<svg xmlns="http://www.w3.org/2000/svg" width="1000" height="400" fill="none" viewBox="0 0 1000 400"><g clip-path="url(#a)"><path fill="#fff" d="M1000 0H0v400h1000z"></path><path fill="#E4E4E4" d="M50.697 227.074c10.879 0 19.698-8.818 19.698-19.697s-8.82-19.697-19.698-19.697S31 196.498 31 207.377s8.819 19.697 19.697 19.697"></path><path fill="#fff" stroke="#D3D3D3" stroke-width="0.886" d="M297.038 207.377c0-30.62-24.823-55.443-55.443-55.443s-55.443 24.823-55.443 55.443 24.823 55.443 55.443 55.443 55.443-24.823 55.443-55.443ZM951.371 207.377c0-30.62-24.823-55.443-55.443-55.443s-55.443 24.823-55.443 55.443 24.823 55.443 55.443 55.443 55.443-24.823 55.443-55.443Z"></path><path fill="#F5F5F5" stroke="#858585" stroke-dasharray="0.1 3" stroke-linecap="round" stroke-width="0.886" d="M726.541 206.596C726.541 118.454 655.087 47 566.945 47s-159.596 71.454-159.596 159.596 71.454 159.596 159.596 159.596 159.596-71.454 159.596-159.596Z"></path><g fill="#000" clip-path="url(#b)"><path d="M274.453 201.712q-1.293 0-2.111-.792-.792-.818-.792-2.164v-7.388h-3.272v-2.744h3.272v-4.063h3.325v4.063h3.588v2.744h-3.588v6.808q0 .791.739.791h2.533v2.745zM258.978 201.712v-13.088h3.272v1.478h.475q.29-.792.949-1.161.687-.369 1.584-.369h1.583v2.955h-1.636q-1.267 0-2.085.686-.818.66-.818 2.058v7.441zM250.368 202.081q-1.952 0-3.509-.792a5.94 5.94 0 0 1-2.454-2.296q-.897-1.503-.897-3.614v-.423q0-2.11.897-3.614a5.94 5.94 0 0 1 2.454-2.296q1.557-.791 3.509-.791 1.953 0 3.509.791a5.94 5.94 0 0 1 2.454 2.296q.897 1.503.897 3.614v.423q0 2.11-.897 3.614a5.94 5.94 0 0 1-2.454 2.296q-1.556.792-3.509.792m0-2.956q1.53 0 2.533-.976 1.003-1.002 1.003-2.849v-.264q0-1.848-1.003-2.824-.976-1.002-2.533-1.002-1.53 0-2.533 1.002-1.002.976-1.002 2.824v.264q0 1.847 1.002 2.849 1.003.976 2.533.976M228.635 206.988v-18.364h3.271v1.583h.475q.449-.765 1.399-1.346.95-.606 2.717-.606a5.67 5.67 0 0 1 2.929.791q1.346.765 2.164 2.269t.818 3.641v.423q0 2.136-.818 3.641t-2.164 2.295a5.8 5.8 0 0 1-2.929.766q-1.187 0-2.005-.291-.792-.263-1.293-.686a5 5 0 0 1-.765-.897h-.475v6.781zm6.86-7.81q1.557 0 2.559-.976 1.029-1.003 1.029-2.902v-.264q0-1.9-1.029-2.876-1.029-1.003-2.559-1.003t-2.56 1.003q-1.029.975-1.029 2.876v.264q0 1.899 1.029 2.902 1.03.976 2.56.976"></path><path fill-rule="evenodd" d="M205.61 195.78h9.017l-9.017-9.016zm.011 3.122a3.9 3.9 0 0 0 3.891 3.61h14.049v-14.049a3.9 3.9 0 0 0-3.61-3.891v14.33h-14.33m11.111-14.341v8.909l-8.91-8.909z" clip-rule="evenodd"></path></g><path fill="#424141" d="M103.518 172.585h1.321v5.74q0 .916-.431 1.624a3 3 0 0 1-1.21 1.108q-.78.4-1.828.4-1.044 0-1.824-.4a3 3 0 0 1-1.21-1.108q-.43-.708-.43-1.624v-5.74h1.316v5.634q0 .593.26 1.052.265.46.746.725.482.26 1.142.26.665 0 1.146-.26.486-.264.742-.725.26-.46.26-1.052zm3.133 11.182v-9h1.244v1.061h.107q.11-.204.319-.473.21-.268.58-.469.37-.204.98-.204.793 0 1.415.4t.976 1.155q.358.754.358 1.816 0 1.06-.354 1.819-.354.754-.972 1.164a2.5 2.5 0 0 1-1.41.404q-.597 0-.976-.2a1.8 1.8 0 0 1-.588-.469 3.6 3.6 0 0 1-.328-.477h-.077v3.473zm1.249-5.727q0 .69.2 1.21t.579.814q.38.29.929.29.571 0 .955-.303.384-.306.58-.831.2-.524.2-1.18 0-.648-.196-1.164a1.8 1.8 0 0 0-.58-.813q-.383-.299-.959-.299-.553 0-.937.286-.38.285-.575.797-.196.511-.196 1.193m8.608 3.4q-.793 0-1.415-.404-.618-.41-.972-1.164-.35-.759-.349-1.819 0-1.062.353-1.816.358-.754.981-1.155.622-.4 1.41-.4.61 0 .98.204.375.2.58.469.209.269.324.473h.076v-3.243h1.274v8.728h-1.244v-1.019h-.106a3.4 3.4 0 0 1-.333.477 1.8 1.8 0 0 1-.588.469q-.375.2-.971.2m.281-1.086q.55 0 .929-.29a1.8 1.8 0 0 0 .579-.814q.201-.52.201-1.21 0-.682-.196-1.193a1.75 1.75 0 0 0-.576-.797q-.38-.286-.937-.286-.575 0-.959.299a1.8 1.8 0 0 0-.58.813 3.3 3.3 0 0 0-.191 1.164q0 .656.196 1.18.196.525.579.831.388.303.955.303m6.685 1.103q-.622 0-1.125-.23a1.9 1.9 0 0 1-.797-.677q-.29-.444-.29-1.087 0-.554.213-.912.213-.357.576-.567.362-.209.809-.315t.912-.162l.955-.111q.367-.047.532-.149.167-.102.167-.332v-.03q0-.558-.316-.865-.31-.307-.929-.307-.644 0-1.014.286a1.53 1.53 0 0 0-.507.626l-1.198-.273a2.3 2.3 0 0 1 .623-.963q.413-.37.95-.537.537-.17 1.129-.17.393 0 .831.094.444.089.827.332.387.243.635.695.247.447.247 1.163v4.347h-1.244v-.895h-.052a1.8 1.8 0 0 1-.37.485q-.248.24-.635.397a2.5 2.5 0 0 1-.929.157m.277-1.022q.528 0 .903-.209.38-.209.576-.546.2-.34.2-.728v-.844a.7.7 0 0 1-.264.128 4 4 0 0 1-.439.098q-.248.038-.482.072l-.392.051a3.2 3.2 0 0 0-.677.158q-.303.11-.486.32-.18.204-.179.545 0 .473.349.716.35.239.891.239m7.705-5.668v1.023h-3.575v-1.023zm-2.616-1.568h1.274v6.192q0 .37.111.558a.58.58 0 0 0 .285.251q.18.064.388.064.153 0 .269-.021l.179-.034.23 1.052a2.516 2.516 0 0 1-.827.137 2.25 2.25 0 0 1-.937-.179 1.6 1.6 0 0 1-.704-.58q-.268-.391-.268-.984zm6.777 8.246q-.968 0-1.667-.414a2.8 2.8 0 0 1-1.073-1.172q-.375-.758-.375-1.777 0-1.005.375-1.772a2.9 2.9 0 0 1 1.056-1.198q.682-.43 1.594-.43.553 0 1.074.183.52.183.933.575a2.7 2.7 0 0 1 .652 1.019q.239.622.239 1.513v.451h-5.203v-.954h3.954q0-.502-.204-.891a1.55 1.55 0 0 0-1.436-.844q-.537 0-.938.265-.396.26-.614.681a2 2 0 0 0-.213.908v.746q0 .656.231 1.116.234.46.652.703.417.24.975.239.363 0 .661-.102.299-.106.516-.316.216-.209.332-.515l1.206.217q-.145.532-.52.933a2.5 2.5 0 0 1-.933.618 3.5 3.5 0 0 1-1.274.218m-50.935 15q-.951 0-1.637-.431a2.85 2.85 0 0 1-1.048-1.197q-.367-.763-.367-1.747 0-.998.375-1.76a2.87 2.87 0 0 1 1.057-1.198q.682-.43 1.607-.43.745 0 1.33.277.584.273.941.767.363.493.43 1.155h-1.24a1.5 1.5 0 0 0-.468-.793q-.363-.332-.972-.332-.532 0-.933.281-.396.277-.618.793-.222.51-.222 1.21 0 .716.218 1.236t.613.805q.4.285.942.285.362 0 .656-.132.299-.137.499-.387.204-.252.285-.606h1.24a2.4 2.4 0 0 1-.413 1.134q-.345.498-.925.784-.575.286-1.35.286m6.808 0q-.92 0-1.606-.422a2.85 2.85 0 0 1-1.066-1.181q-.38-.758-.379-1.772 0-1.019.38-1.782a2.84 2.84 0 0 1 1.065-1.184q.685-.423 1.606-.422.921 0 1.607.422t1.065 1.184q.38.763.38 1.782 0 1.014-.38 1.772a2.85 2.85 0 0 1-1.065 1.181q-.686.422-1.607.422m.004-1.07q.597 0 .99-.315a1.85 1.85 0 0 0 .579-.84q.19-.523.191-1.155 0-.626-.191-1.15a1.9 1.9 0 0 0-.58-.848q-.391-.32-.989-.32-.6 0-.997.32a1.9 1.9 0 0 0-.584.848 3.4 3.4 0 0 0-.187 1.15q0 .632.188 1.155.191.524.583.84.396.315.997.315m5.744-2.949v3.887h-1.275v-6.546h1.224v1.065h.08q.227-.52.708-.835.486-.315 1.223-.315.67 0 1.172.281.502.277.78.827.276.549.277 1.359v4.164h-1.275v-4.01q0-.712-.37-1.113-.37-.405-1.019-.404-.443 0-.788.191a1.4 1.4 0 0 0-.541.563q-.196.367-.196.886m9.012-2.659v1.023h-3.698v-1.023zm-2.684 6.546v-7.304q0-.614.268-1.019.268-.41.712-.609.442-.205.963-.205.383 0 .656.064.273.06.405.111l-.298 1.031-.23-.06a1.3 1.3 0 0 0-.341-.038q-.465 0-.665.23-.196.23-.196.665v7.134zm3.999 0v-6.546h1.274v6.546zm.644-7.556a.8.8 0 0 1-.571-.221.72.72 0 0 1-.235-.537q0-.317.235-.537a.8.8 0 0 1 .571-.226q.332 0 .566.226a.7.7 0 0 1 .239.537q0 .31-.239.537a.8.8 0 0 1-.566.221m5.089 10.146q-.78 0-1.343-.204a2.6 2.6 0 0 1-.912-.541 2.3 2.3 0 0 1-.528-.738l1.095-.451q.115.188.307.396.197.213.528.362.337.15.865.149.725 0 1.198-.353.473-.35.473-1.117v-1.287h-.081q-.116.21-.332.465-.213.255-.588.443-.376.188-.976.188-.776 0-1.398-.363-.618-.366-.98-1.078-.358-.716-.358-1.76 0-1.043.354-1.79.357-.745.98-1.142.622-.4 1.41-.4.61 0 .985.204.375.2.583.469.213.269.328.473h.094v-1.061h1.249v6.69q0 .845-.392 1.385a2.3 2.3 0 0 1-1.061.801q-.665.26-1.5.26m-.013-3.745q.55 0 .929-.256.384-.26.579-.741.201-.486.201-1.164 0-.66-.196-1.163a1.73 1.73 0 0 0-.576-.784q-.378-.286-.937-.286-.576 0-.959.299a1.8 1.8 0 0 0-.579.801 3.2 3.2 0 0 0-.192 1.133q0 .644.196 1.129.196.486.579.759.388.273.955.273m8.821-1.56v-3.831h1.278v6.546h-1.253v-1.134h-.068q-.225.524-.724.874-.494.345-1.232.345a2.2 2.2 0 0 1-1.116-.277 1.96 1.96 0 0 1-.759-.831q-.272-.55-.272-1.36v-4.163h1.274v4.01q0 .669.371 1.065.37.397.963.397.357 0 .711-.179.358-.18.593-.542.239-.362.234-.92m2.99 2.715v-6.546h1.232v1.04h.068q.179-.528.631-.831a1.8 1.8 0 0 1 1.031-.307 5 5 0 0 1 .541.03v1.219a2 2 0 0 0-.273-.047q-.195-.03-.392-.03a1.66 1.66 0 0 0-.805.192 1.4 1.4 0 0 0-.554.524 1.4 1.4 0 0 0-.205.758v3.998zm6.452.144q-.623 0-1.125-.23a1.9 1.9 0 0 1-.797-.677q-.29-.444-.29-1.087 0-.554.213-.912a1.6 1.6 0 0 1 .576-.567q.362-.209.809-.315t.912-.162l.955-.111q.366-.047.533-.149.166-.102.166-.332v-.03q0-.558-.316-.865-.31-.307-.929-.307-.644 0-1.014.286a1.53 1.53 0 0 0-.507.626l-1.197-.273q.213-.595.622-.963.413-.37.95-.537.537-.17 1.129-.17.393 0 .831.094.444.089.827.332.388.243.635.695.247.447.247 1.163v4.347h-1.244v-.895h-.051a1.8 1.8 0 0 1-.371.485q-.247.24-.635.397a2.5 2.5 0 0 1-.929.157m.277-1.022q.528 0 .903-.209.38-.209.576-.546.2-.34.2-.728v-.844a.7.7 0 0 1-.264.128 4 4 0 0 1-.439.098q-.247.038-.482.072l-.392.051a3.2 3.2 0 0 0-.677.158q-.303.11-.486.32-.179.204-.179.545 0 .473.349.716.35.239.891.239m7.706-5.668v1.023h-3.576v-1.023zm-2.617-1.568h1.274v6.192q0 .37.111.558a.57.57 0 0 0 .286.251q.179.064.387.064.154 0 .269-.021l.179-.034.23 1.052a2.534 2.534 0 0 1-.827.137 2.25 2.25 0 0 1-.937-.179 1.6 1.6 0 0 1-.703-.58q-.269-.391-.269-.984zm4.026 8.114v-6.546h1.274v6.546zm.644-7.556a.8.8 0 0 1-.571-.221.72.72 0 0 1-.235-.537q0-.317.235-.537a.8.8 0 0 1 .571-.226q.332 0 .566.226a.7.7 0 0 1 .239.537q0 .31-.239.537a.8.8 0 0 1-.566.221m5.101 7.688q-.92 0-1.606-.422a2.85 2.85 0 0 1-1.065-1.181q-.38-.758-.38-1.772 0-1.019.38-1.782a2.84 2.84 0 0 1 1.065-1.184q.686-.423 1.606-.422.921 0 1.607.422t1.065 1.184q.38.763.38 1.782 0 1.014-.38 1.772a2.85 2.85 0 0 1-1.065 1.181q-.686.422-1.607.422m.005-1.07q.596 0 .988-.315.393-.316.58-.84.192-.523.192-1.155a3.3 3.3 0 0 0-.192-1.15 1.87 1.87 0 0 0-.58-.848q-.392-.32-.988-.32-.601 0-.997.32a1.9 1.9 0 0 0-.584.848 3.4 3.4 0 0 0-.188 1.15q0 .632.188 1.155.191.524.584.84.396.315.997.315m5.743-2.949v3.887h-1.274v-6.546h1.223v1.065h.081q.225-.52.707-.835.486-.315 1.223-.315.67 0 1.172.281.502.277.78.827.277.549.277 1.359v4.164h-1.274v-4.01q0-.712-.371-1.113-.371-.405-1.018-.404-.444 0-.789.191a1.4 1.4 0 0 0-.541.563q-.196.367-.196.886m10.803-1.061-1.155.205a1.4 1.4 0 0 0-.23-.422 1.14 1.14 0 0 0-.418-.328 1.5 1.5 0 0 0-.661-.128q-.54 0-.903.243-.362.238-.362.618 0 .327.243.528.243.2.784.328l1.04.239q.903.208 1.346.643t.443 1.129q0 .589-.341 1.049-.336.456-.941.716-.601.26-1.394.26-1.1 0-1.794-.469-.694-.473-.852-1.342l1.231-.188q.116.481.473.729.358.243.934.243.626 0 1.001-.26.375-.264.375-.644a.67.67 0 0 0-.23-.515q-.226-.21-.695-.316l-1.108-.243q-.915-.208-1.355-.664-.434-.456-.434-1.155 0-.58.324-1.014.323-.435.894-.678a3.3 3.3 0 0 1 1.309-.247q1.06 0 1.67.46.61.456.806 1.223"></path><path fill="#C6C4C4" d="m240.08 268.264-4.33 7.5h8.66zm237.242 3.117v16.653h1.5v-16.653zm-25.25 41.903H266.08v1.5h185.992zm-211.242-25.25v-4.306h-1.5v4.306zm0-4.306v-8.714h-1.5v8.714zm25.25 29.556c-13.945 0-25.25-11.305-25.25-25.25h-1.5c0 14.774 11.976 26.75 26.75 26.75zm211.242-25.25c0 13.945-11.305 25.25-25.25 25.25v1.5c14.774 0 26.75-11.976 26.75-26.75zM488.846 268.054l-4.33 7.5h8.66zm156.689 0v19.98h1.5v-19.98zm-25.25 45.23H514.846v1.5h105.439zm-130.689-25.25v-13.23h-1.5v13.23zm25.25 25.25c-13.945 0-25.25-11.305-25.25-25.25h-1.5c0 14.773 11.976 26.75 26.75 26.75zm130.689-25.25c0 13.945-11.305 25.25-25.25 25.25v1.5c14.774 0 26.75-11.977 26.75-26.75zM649.502 147.161l-4.33-7.5h8.66zm-.75-6.75v-13.23h1.5v13.23zm-25.25-38.48H511.629v-1.5h111.873zm-137.123 25.25v19.98h-1.5v-19.98zm25.25-25.25c-13.945 0-25.25 11.305-25.25 25.25h-1.5c0-14.774 11.976-26.75 26.75-26.75zm137.123 25.25c0-13.945-11.305-25.25-25.25-25.25v-1.5c14.774 0 26.75 11.976 26.75 26.75zM177.068 206.596l-7.5-4.33v8.66zm-99.482.75h92.732v-1.5H77.586zM401.489 206.596l-7.5-4.33v8.66zm-99.482.75h92.732v-1.5h-92.732zM733.487 206.596l7.5 4.33v-8.66zm6.75.75h92.732v-1.5h-92.732z"></path><path fill="#FF648A" d="M542.793 207.376c0-30.699-24.887-55.586-55.586-55.586-30.7 0-55.587 24.887-55.587 55.586 0 30.7 24.887 55.587 55.587 55.587 30.699 0 55.586-24.887 55.586-55.587"></path><path fill="#fff" d="M542.793 207.376c0-30.699-24.887-55.586-55.586-55.586-30.7 0-55.587 24.887-55.587 55.586 0 30.7 24.887 55.587 55.587 55.587 30.699 0 55.586-24.887 55.586-55.587"></path><path stroke="#FFBDB4" stroke-width="1.173" d="M542.793 207.376c0-30.699-24.887-55.586-55.586-55.586-30.7 0-55.587 24.887-55.587 55.586 0 30.7 24.887 55.587 55.587 55.587 30.699 0 55.586-24.887 55.586-55.587Z"></path><path fill="#FF6F55" d="M498.256 187.444h-24.511c.279-6.528 5.659-11.734 12.255-11.734s11.976 5.206 12.256 11.734"></path><path fill="#447CEA" d="M469.644 193.132h32.712v6.578h-32.712z"></path><path fill="#424141" d="M471.275 223.599a4.4 4.4 0 0 1-1.704-.324 4.1 4.1 0 0 1-1.356-.9 4.4 4.4 0 0 1-.888-1.38 4.7 4.7 0 0 1-.312-1.74q0-.936.312-1.728a4.2 4.2 0 0 1 .888-1.368 4.1 4.1 0 0 1 1.356-.912 4.4 4.4 0 0 1 1.704-.324q.912 0 1.692.324t1.344.912q.576.588.888 1.38.324.792.324 1.716 0 .936-.324 1.728a4.1 4.1 0 0 1-.888 1.38 3.9 3.9 0 0 1-1.344.912 4.4 4.4 0 0 1-1.692.324m0-1.644q.72 0 1.284-.348t.876-.96a2.9 2.9 0 0 0 .324-1.392q0-.78-.324-1.38a2.37 2.37 0 0 0-.876-.96 2.34 2.34 0 0 0-1.284-.36q-.732 0-1.296.348a2.45 2.45 0 0 0-.888.96 3 3 0 0 0-.312 1.392q0 .792.312 1.404.324.6.888.948t1.296.348m8.386 1.644q-.9 0-1.62-.432a3.2 3.2 0 0 1-1.128-1.176q-.408-.744-.408-1.692 0-.936.408-1.68.42-.744 1.128-1.176a3.1 3.1 0 0 1 1.62-.432q.852 0 1.548.312.708.312 1.104.876l-.9 1.08a2 2 0 0 0-.696-.588 1.8 1.8 0 0 0-.9-.252 1.64 1.64 0 0 0-.9.252q-.384.24-.612.66-.216.42-.216.948t.228.948.624.672q.396.24.888.24.468 0 .864-.204.396-.216.72-.6l.9 1.08q-.408.528-1.128.852-.72.312-1.524.312m6.744 0q-1.02 0-1.788-.42a3.1 3.1 0 0 1-1.2-1.152q-.42-.732-.42-1.68 0-.984.408-1.728.42-.756 1.14-1.188.732-.432 1.68-.432.852 0 1.524.42.684.408 1.056 1.116.384.708.36 1.62l-.012.516h-4.56q.132.684.648 1.08.528.396 1.332.396.432 0 .78-.132a2.7 2.7 0 0 0 .768-.468l.792 1.104a3.84 3.84 0 0 1-2.508.948m-.168-5.184q-1.356 0-1.632 1.224h3v-.048a1.15 1.15 0 0 0-.432-.84 1.37 1.37 0 0 0-.936-.336m6.587 5.184a2.5 2.5 0 0 1-1.428-.432 3.1 3.1 0 0 1-1.02-1.176q-.372-.744-.372-1.692 0-.972.372-1.704.384-.744 1.032-1.164.66-.42 1.488-.42.672 0 1.176.276.504.264.804.696v-.84h1.632v6.336h-1.644v-.852a2.6 2.6 0 0 1-.876.696q-.528.276-1.164.276m.444-1.428q.732 0 1.188-.516t.456-1.356-.456-1.356-1.188-.516q-.72 0-1.176.516-.444.516-.444 1.356t.444 1.356q.456.516 1.176.516m4.949 1.308v-6.336h1.584l.024.852q.324-.432.864-.708t1.128-.276q2.184 0 2.184 2.592v3.876h-1.632v-3.756q0-1.356-1.14-1.308-.588 0-.984.36-.384.36-.384.888v3.816zm-45.404 13v-8.4h5.64v1.572h-3.912v1.944h3.408v1.512h-3.408v3.372zm6.979 0v-6.336h1.584l.024 1.044a2.56 2.56 0 0 1 .816-.84 1.95 1.95 0 0 1 1.476-.3q.192.024.324.072l-.444 1.8a1.4 1.4 0 0 0-.336-.12 1.8 1.8 0 0 0-.408-.048q-.588 0-.996.408-.396.396-.396 1.008v3.312zm7.309.12a2.5 2.5 0 0 1-1.428-.432 3.1 3.1 0 0 1-1.02-1.176q-.372-.744-.372-1.692 0-.972.372-1.704.384-.744 1.032-1.164.66-.42 1.488-.42.672 0 1.176.276.504.264.804.696v-.84h1.632v6.336h-1.644v-.852a2.6 2.6 0 0 1-.876.696q-.528.276-1.164.276m.444-1.428q.732 0 1.188-.516t.456-1.356-.456-1.356-1.188-.516q-.72 0-1.176.516-.444.516-.444 1.356t.444 1.356q.456.516 1.176.516m4.938 1.308v-6.336h1.584l.024.9q.336-.456.84-.732a2.1 2.1 0 0 1 1.056-.288q.684 0 1.14.3.456.288.744.924.348-.564.936-.888.6-.336 1.236-.336 2.172 0 2.172 2.616v3.84h-1.644v-3.72q0-1.32-1.08-1.32-.576 0-.96.36a1.2 1.2 0 0 0-.372.9v3.78h-1.644v-3.744q0-.624-.276-.96t-.792-.336q-.564 0-.948.36-.372.36-.372.876v3.804zm14.355.12q-1.02 0-1.788-.42a3.1 3.1 0 0 1-1.2-1.152q-.42-.732-.42-1.68 0-.984.408-1.728.42-.756 1.14-1.188.732-.432 1.68-.432.852 0 1.524.42.684.408 1.056 1.116.384.708.36 1.62l-.012.516h-4.56q.132.684.648 1.08.528.396 1.332.396.432 0 .78-.132a2.7 2.7 0 0 0 .768-.468l.792 1.104a3.84 3.84 0 0 1-2.508.948m-.168-5.184q-1.356 0-1.632 1.224h3v-.048a1.15 1.15 0 0 0-.432-.84 1.37 1.37 0 0 0-.936-.336m5.546 5.064-2.124-6.336 1.704-.012 1.212 3.996 1.32-3.06h.96l1.344 3.036 1.212-3.96h1.692l-2.148 6.336h-1.176l-1.428-3.408-1.392 3.408zm11.144.12q-.972 0-1.728-.42-.756-.432-1.188-1.176t-.432-1.704q0-.948.432-1.692a3.1 3.1 0 0 1 1.188-1.164q.756-.432 1.728-.432.948 0 1.704.432.756.42 1.188 1.164t.432 1.692q0 .96-.432 1.704a3.16 3.16 0 0 1-1.188 1.176q-.756.42-1.704.42m0-1.428q.48 0 .864-.24a1.65 1.65 0 0 0 .588-.672q.216-.42.216-.96t-.216-.96q-.204-.42-.588-.66a1.6 1.6 0 0 0-.864-.24q-.492 0-.876.24t-.6.66-.216.96.216.96.6.672q.384.24.876.24m4.619 1.308v-6.336h1.584l.024 1.044a2.56 2.56 0 0 1 .816-.84 1.95 1.95 0 0 1 1.476-.3q.192.024.324.072l-.444 1.8a1.4 1.4 0 0 0-.336-.12 1.8 1.8 0 0 0-.408-.048q-.588 0-.996.408-.396.396-.396 1.008v3.312zm5.215 0v-8.88h1.632v5.04l2.472-2.496h2.16l-2.94 2.76 2.94 3.576h-1.98l-2.052-2.556-.6.564v1.992zM234.003 224.077a.7.7 0 0 1-.522-.216.76.76 0 0 1-.207-.549.75.75 0 0 1 .207-.54.7.7 0 0 1 .522-.216h.207q.315 0 .522.216a.75.75 0 0 1 .207.54.76.76 0 0 1-.207.549.7.7 0 0 1-.522.216zm4.424.9h-1.017l3.168-8.46h1.017zm7.188-6.741a.65.65 0 0 1-.45-.153.53.53 0 0 1-.162-.405q0-.261.162-.414a.63.63 0 0 1 .45-.162h.18q.27 0 .441.162a.55.55 0 0 1 .171.414.52.52 0 0 1-.171.405.65.65 0 0 1-.45.153zm-2.664 7.371v-.9h1.242q.504 0 .774-.27.279-.27.279-.765v-3.744h-2.025v-.891h2.997v4.644q0 .882-.54 1.404t-1.458.522zm8.321-6.57h.963v6.57h-.972v-1.413l.027-1.152h-.036q-.072.477-.423.756t-.9.279q-.747 0-1.188-.504-.432-.504-.432-1.368v-1.395q0-.855.432-1.359.441-.504 1.188-.504.558 0 .9.279.351.27.423.756h.018zm-.999 4.194q.459 0 .72-.279.27-.288.27-.792v-1.296q0-.504-.27-.783-.261-.288-.72-.288-.477 0-.738.279-.252.27-.252.792v1.296q0 .522.252.801.261.27.738.27m-40.419 11.846q-.927 0-1.476-.513-.54-.522-.54-1.404v-2.916q0-.882.54-1.395.549-.522 1.476-.522.918 0 1.458.522.549.522.549 1.395h-.972q0-.504-.27-.783t-.765-.279-.774.279q-.27.27-.27.774v2.925q0 .504.27.783.279.279.774.279.486 0 .756-.279.279-.279.279-.783h.972q0 .873-.549 1.395-.54.522-1.458.522m5.36 0q-.918 0-1.449-.513-.531-.522-.531-1.404v-1.296q0-.882.531-1.395.531-.522 1.449-.522t1.449.513.531 1.395v1.305q0 .882-.531 1.404-.531.513-1.449.513m0-.855q.486 0 .747-.27t.261-.792v-1.296q0-.522-.261-.792t-.747-.27-.747.27-.261.792v1.296q0 .522.261.792t.747.27m5.739-4.275q.738 0 1.179.477.441.468.441 1.269v3.294h-.972v-3.186q0-.486-.261-.756t-.711-.27q-.459 0-.729.288-.261.288-.261.801v3.123h-.972v-4.95h.963v.945h.018q.063-.495.405-.765t.9-.27m4.271 5.04v-3.942h-1.404v-.882h1.404v-.432q0-.603.378-.954.387-.36 1.035-.36h1.512v.864h-1.503q-.216 0-.333.126-.117.117-.117.333v.423h1.953v.882h-1.953v3.942zm6.225-5.751a.65.65 0 0 1-.45-.153.53.53 0 0 1-.162-.405q0-.261.162-.414a.63.63 0 0 1 .45-.162h.18q.27 0 .441.162a.55.55 0 0 1 .171.414.52.52 0 0 1-.171.405.65.65 0 0 1-.45.153zm2.232 5.751h-4.284v-.882h1.746v-3.186h-1.521v-.882h2.466v4.068h1.593zm4.1-4.95h.954v5.04q0 .711-.459 1.116-.45.414-1.242.414h-1.53v-.837h1.521q.747 0 .747-.711v-.495l.027-.729h-.09q-.099.405-.432.63-.324.216-.828.216-.747 0-1.188-.504t-.441-1.368v-.999q0-.855.441-1.359t1.188-.504q.504 0 .828.225a1 1 0 0 1 .432.621h.09zm-.009 1.827q0-.504-.27-.783-.261-.288-.72-.288-.477 0-.738.279-.252.27-.252.792v.9q0 .522.252.801.261.279.738.279.459 0 .72-.279.27-.288.27-.801zm4.415 3.213q-.9 0-1.431-.513-.522-.522-.522-1.413v-3.114h.972v3.105q0 .513.261.801t.72.288q.468 0 .729-.288.27-.288.27-.801v-3.105h.972v3.114q0 .891-.54 1.413-.531.513-1.431.513m5.892-5.13q.792 0 1.251.495.468.486.468 1.341v.333h-.999v-.252q0-.522-.27-.81-.261-.288-.738-.288t-.747.288q-.261.288-.261.81v3.123h-.972v-4.95h.936v.927q.234-1.017 1.332-1.017m4.946.009q.9 0 1.413.441t.513 1.206v3.384h-.945v-.909h-.009q-.063.459-.486.729-.414.27-1.035.27-.756 0-1.206-.396-.441-.405-.441-1.08 0-.72.468-1.125t1.305-.405h1.377v-.45q0-.405-.252-.621-.252-.225-.72-.225-.414 0-.675.171a.67.67 0 0 0-.306.459h-.954a1.5 1.5 0 0 1 .612-1.053q.531-.396 1.341-.396m-.27 4.374q.549 0 .882-.252a.83.83 0 0 0 .342-.693v-.648h-1.359q-.378 0-.603.216-.216.207-.216.567 0 .378.252.594.261.216.702.216m6.171.657q-.675 0-1.053-.369t-.378-1.035v-2.664h-1.368v-.882h1.368v-1.35h.972v1.35h1.944v.882h-1.944v2.664q0 .27.117.396.126.126.387.126h1.35v.882zm4.901-5.751a.65.65 0 0 1-.45-.153.53.53 0 0 1-.162-.405q0-.261.162-.414a.63.63 0 0 1 .45-.162h.18q.27 0 .441.162a.55.55 0 0 1 .171.414.52.52 0 0 1-.171.405.65.65 0 0 1-.45.153zm2.232 5.751h-4.284v-.882h1.746v-3.186H262v-.882h2.466v4.068h1.593zm3.12.09q-.918 0-1.449-.513-.531-.522-.531-1.404v-1.296q0-.882.531-1.395.531-.522 1.449-.522t1.449.513.531 1.395v1.305q0 .882-.531 1.404-.531.513-1.449.513m0-.855q.486 0 .747-.27t.261-.792v-1.296q0-.522-.261-.792t-.747-.27-.747.27-.261.792v1.296q0 .522.261.792t.747.27m5.738-4.275q.738 0 1.179.477.441.468.441 1.269v3.294h-.972v-3.186q0-.486-.261-.756t-.711-.27q-.459 0-.729.288-.261.288-.261.801v3.123h-.972v-4.95h.963v.945h.018q.063-.495.405-.765t.9-.27M320.452 194.775v-8.727h5.472v1.133h-4.155v2.66h3.869v1.129h-3.869v2.672h4.206v1.133zm12.728-6.545-2.374 6.545h-1.363l-2.378-6.545h1.368l1.657 5.037h.068l1.654-5.037zm3.796 6.677q-.968 0-1.667-.413a2.8 2.8 0 0 1-1.073-1.172q-.375-.759-.375-1.777 0-1.005.375-1.773a2.9 2.9 0 0 1 1.056-1.197q.682-.43 1.594-.431.553 0 1.074.184.52.183.933.575t.652 1.018q.239.623.239 1.513v.452h-5.203v-.955h3.954q0-.503-.204-.89a1.54 1.54 0 0 0-.576-.618 1.6 1.6 0 0 0-.86-.226q-.537 0-.938.264a1.8 1.8 0 0 0-.614.682 2 2 0 0 0-.213.908v.745q0 .657.231 1.117.234.46.652.703.417.239.975.239.363 0 .661-.103a1.4 1.4 0 0 0 .516-.315 1.4 1.4 0 0 0 .332-.516l1.206.218q-.145.532-.52.933-.37.396-.933.618a3.5 3.5 0 0 1-1.274.217m5.496-4.018v3.886h-1.274v-6.545h1.223v1.065h.081q.225-.52.707-.835.486-.316 1.223-.316.67 0 1.172.282.502.276.78.826.276.55.277 1.36v4.163h-1.275v-4.01q0-.711-.37-1.112-.37-.405-1.019-.405-.443 0-.788.192a1.4 1.4 0 0 0-.541.562q-.196.367-.196.887m8.953-2.659v1.022h-3.575v-1.022zm-2.617-1.568h1.274v6.191q0 .371.111.559a.57.57 0 0 0 .286.251q.178.064.388.064.153 0 .268-.021l.179-.035.23 1.053a2 2 0 0 1-.315.085 2.4 2.4 0 0 1-.512.051 2.2 2.2 0 0 1-.937-.179 1.6 1.6 0 0 1-.703-.579q-.269-.392-.269-.984zm8.476-.614v8.727h-1.274v-8.727zm1.714 8.727v-6.545h1.274v6.545zm.644-7.555a.8.8 0 0 1-.571-.222.72.72 0 0 1-.235-.537q0-.315.235-.537a.8.8 0 0 1 .571-.226q.331 0 .567.226a.7.7 0 0 1 .238.537.71.71 0 0 1-.238.537.8.8 0 0 1-.567.222m7.249 2.608-1.154.204a1.4 1.4 0 0 0-.231-.422 1.15 1.15 0 0 0-.417-.328 1.5 1.5 0 0 0-.661-.128q-.54 0-.903.243-.363.238-.362.618 0 .328.243.529.243.2.784.328l1.039.238q.905.21 1.347.644.443.435.443 1.129 0 .588-.341 1.048-.336.456-.941.716-.601.26-1.394.26-1.1 0-1.794-.468-.695-.474-.852-1.343l1.231-.187q.116.482.473.728.358.243.934.243.626 0 1.001-.26.375-.264.375-.643a.67.67 0 0 0-.23-.516q-.226-.209-.695-.315l-1.108-.243q-.915-.209-1.355-.665-.434-.456-.434-1.155 0-.579.323-1.014.325-.434.895-.677a3.3 3.3 0 0 1 1.309-.248q1.06 0 1.67.461.61.456.805 1.223m4.585-1.598v1.022H367.9v-1.022zm-2.617-1.568h1.274v6.191q0 .371.111.559a.57.57 0 0 0 .286.251q.179.064.387.064.154 0 .269-.021l.179-.035.23 1.053a2 2 0 0 1-.315.085 2.4 2.4 0 0 1-.512.051 2.2 2.2 0 0 1-.937-.179 1.6 1.6 0 0 1-.703-.579q-.269-.392-.269-.984zm6.777 8.245q-.968 0-1.666-.413a2.8 2.8 0 0 1-1.074-1.172q-.375-.759-.375-1.777 0-1.005.375-1.773.38-.766 1.057-1.197.681-.43 1.593-.431.555 0 1.074.184.52.183.933.575t.652 1.018q.239.623.239 1.513v.452h-5.203v-.955h3.954q0-.503-.204-.89a1.54 1.54 0 0 0-.575-.618 1.6 1.6 0 0 0-.861-.226q-.537 0-.938.264a1.8 1.8 0 0 0-.613.682 2 2 0 0 0-.213.908v.745q0 .657.23 1.117.234.46.652.703.417.239.976.239.361 0 .66-.103a1.368 1.368 0 0 0 .848-.831l1.206.218q-.145.532-.52.933-.37.396-.933.618a3.5 3.5 0 0 1-1.274.217m5.496-4.018v3.886h-1.274v-6.545h1.223v1.065h.081q.225-.52.707-.835.486-.316 1.223-.316.67 0 1.172.282.503.276.78.826t.277 1.36v4.163h-1.274v-4.01q0-.711-.371-1.112-.37-.405-1.019-.405-.443 0-.788.192a1.4 1.4 0 0 0-.541.562q-.196.367-.196.887m8.719 4.018q-.968 0-1.667-.413a2.8 2.8 0 0 1-1.073-1.172q-.375-.759-.375-1.777 0-1.005.375-1.773a2.9 2.9 0 0 1 1.056-1.197q.682-.43 1.594-.431.553 0 1.074.184.52.183.933.575t.652 1.018q.239.623.239 1.513v.452h-5.203v-.955h3.954q0-.503-.204-.89a1.54 1.54 0 0 0-.576-.618 1.6 1.6 0 0 0-.86-.226q-.537 0-.938.264a1.8 1.8 0 0 0-.614.682 2 2 0 0 0-.213.908v.745q0 .657.231 1.117.234.46.652.703.417.239.975.239.363 0 .661-.103a1.4 1.4 0 0 0 .516-.315 1.4 1.4 0 0 0 .332-.516l1.206.218q-.145.532-.52.933-.37.396-.933.618a3.5 3.5 0 0 1-1.274.217m4.222-.132v-6.545h1.231v1.039h.068q.18-.528.631-.83a1.8 1.8 0 0 1 1.031-.307q.12 0 .281.008.167.009.26.022v1.218a2 2 0 0 0-.272-.047 3 3 0 0 0-.392-.029q-.452 0-.806.191-.349.188-.554.524a1.4 1.4 0 0 0-.204.759v3.997z"></path><path fill="#231F20" d="M341.541 222.967c-.741 0-1.405.333-1.859.857l-1.165-.837a3.256 3.256 0 0 0 .006-2.191l1.163-.828a2.46 2.46 0 0 0 1.855.852c1.367 0 2.479-1.128 2.479-2.515s-1.112-2.515-2.479-2.515-2.479 1.128-2.479 2.515c0 .248.037.488.103.714l-1.163.829a3.19 3.19 0 0 0-1.983-1.169v-1.422a2.51 2.51 0 0 0 1.969-2.462c0-1.386-1.112-2.515-2.479-2.515s-2.478 1.129-2.478 2.515a2.51 2.51 0 0 0 1.924 2.45v1.441c-1.502.267-2.648 1.597-2.648 3.196 0 1.607 1.158 2.942 2.67 3.2v1.522a2.51 2.51 0 0 0-1.946 2.455c0 1.387 1.112 2.515 2.478 2.515s2.479-1.128 2.479-2.515a2.51 2.51 0 0 0-1.946-2.455v-1.522a3.2 3.2 0 0 0 1.949-1.15l1.172.842a2.6 2.6 0 0 0-.101.708c0 1.387 1.112 2.515 2.479 2.515s2.479-1.128 2.479-2.515-1.112-2.515-2.479-2.515m0-5.881c.663 0 1.202.547 1.202 1.219s-.539 1.22-1.202 1.22a1.213 1.213 0 0 1-1.202-1.22c0-.672.539-1.219 1.202-1.219m-7.233-2.291c0-.672.539-1.219 1.201-1.219.663 0 1.202.547 1.202 1.219 0 .673-.539 1.22-1.202 1.22a1.21 1.21 0 0 1-1.201-1.22m2.403 14.264c0 .672-.539 1.219-1.202 1.219a1.21 1.21 0 0 1-1.201-1.219c0-.672.539-1.219 1.201-1.219.663 0 1.202.547 1.202 1.219m-1.202-5.476c-.924 0-1.676-.763-1.676-1.701s.752-1.701 1.676-1.701c.925 0 1.677.763 1.677 1.701s-.752 1.701-1.677 1.701m6.032 3.118a1.21 1.21 0 0 1-1.202-1.219c0-.672.539-1.22 1.202-1.22s1.202.548 1.202 1.22-.539 1.219-1.202 1.219"></path><path fill="#000" d="M355.591 214.049h-.019l-.193.038q-.637.075-1.245.351a3.7 3.7 0 0 0-1.072.73 3.7 3.7 0 0 0-1.1 1.726 3.7 3.7 0 0 0-.155 1.194q.02.627.232 1.195a3.9 3.9 0 0 0 1.004 1.48l.251.227-1.603 2.56a2.1 2.1 0 0 0-.868.133 1.75 1.75 0 0 0-.869.759 2 2 0 0 0-.174.588 1.6 1.6 0 0 0 .676 1.517q.29.19.637.275t.695.038q.348-.048.666-.237.318-.19.531-.474.231-.323.28-.74a1.5 1.5 0 0 0-.106-.778.8.8 0 0 0-.136-.265l-.057-.114 2.278-3.641a1.7 1.7 0 0 0 .154-.266l-.193-.057q-.174-.038-.251-.075a2.8 2.8 0 0 1-.801-.522 2.4 2.4 0 0 1-.55-.749 2.17 2.17 0 0 1-.174-1.423q.077-.435.328-.815.25-.38.599-.645a2.66 2.66 0 0 1 1.583-.512q.52-.02 1.013.18t.859.579q.329.303.512.73.184.426.202.863 0 .322-.115.796l1.351.361.154.019a3.36 3.36 0 0 0 .136-1.631 3.746 3.746 0 0 0-1.139-2.219q-.812-.797-1.989-1.062a2.4 2.4 0 0 0-.347-.076l-.271-.038zm.348 2.351q-.329 0-.657.133a1.8 1.8 0 0 0-.589.389q-.26.256-.376.597a1.5 1.5 0 0 0-.077.835q.057.34.27.645.213.303.541.474.462.285 1.081.246.057.077.096.152l2.162 3.623a.7.7 0 0 0 .116.17 2.8 2.8 0 0 1 1.13-.673q.607-.18 1.254-.066.648.113 1.13.493.618.474.84 1.166t.009 1.394a2.3 2.3 0 0 1-.55.948 2.5 2.5 0 0 1-.936.626 2.5 2.5 0 0 1-1.284.161 2.7 2.7 0 0 1-1.226-.464l-.251-.19-.097-.114a2 2 0 0 0-.212.19l-.907.872a4.2 4.2 0 0 0 2.181 1.138l.425.076h.753l.54-.095a4.05 4.05 0 0 0 2.124-1.138q.424-.417.705-.957.28-.541.376-1.129a4 4 0 0 0-.038-1.356 3.6 3.6 0 0 0-.483-1.223 4.192 4.192 0 0 0-1.95-1.631 4.2 4.2 0 0 0-1.361-.304q-.705-.038-1.38.133l-.328.095-1.564-2.598q.25-.36.309-.702a1.57 1.57 0 0 0-.251-1.138 1.63 1.63 0 0 0-.85-.664 2 2 0 0 0-.675-.114m-5.445 5.007q-1.119.247-1.93 1.005a3.86 3.86 0 0 0-1.178 1.992l-.077.455v.702l.039.208q.038.247.077.38.135.588.473 1.119.338.53.82.929a4.3 4.3 0 0 0 2.221.929q.734.076 1.467-.085a4.4 4.4 0 0 0 1.351-.541 3.87 3.87 0 0 0 1.506-1.725q.135-.323.27-.854.115-.02.348 0l2.413.038q.27 0 .386.019.212.38.483.588.27.208.608.303.337.096.685.076.54-.057.965-.379.522-.399.618-1.024a1.8 1.8 0 0 0-.029-.626 1.5 1.5 0 0 0-.261-.569 1.76 1.76 0 0 0-.791-.607 1.7 1.7 0 0 0-.685-.123 2 2 0 0 0-.686.142q-.54.228-.83.702l-.058.114q-.27 0-.811-.019l-2.181-.019q-.29-.02-.83-.019l-.965-.019.057.322a2.2 2.2 0 0 1-.251 1.536q-.27.513-.772.854a2.5 2.5 0 0 1-1.1.417 2.56 2.56 0 0 1-1.352-.142 2.47 2.47 0 0 1-1.1-.806 2.23 2.23 0 0 1-.521-1.499q.02-.701.444-1.308.25-.36.618-.607a2.6 2.6 0 0 1 .791-.36l.174-.057z"></path><path fill="#424141" d="M545 115.818q0 1.398-.511 2.403-.512 1.002-1.402 1.543-.887.537-2.016.537-1.133 0-2.024-.537-.887-.542-1.398-1.547t-.511-2.399q0-1.398.511-2.399.511-1.006 1.398-1.543.89-.541 2.024-.541 1.13 0 2.016.541.89.537 1.402 1.543.511 1 .511 2.399m-1.304 0q0-1.065-.345-1.794-.34-.733-.938-1.108a2.43 2.43 0 0 0-1.342-.379q-.755 0-1.347.379-.591.375-.937 1.108-.34.729-.341 1.794 0 1.066.341 1.798.346.729.937 1.108.592.375 1.347.375.75 0 1.342-.375.597-.38.938-1.108.345-.732.345-1.798m4.118.477v3.887h-1.275v-6.546h1.223v1.065h.081q.226-.52.708-.835.486-.315 1.223-.315.668 0 1.172.281.503.277.779.827.277.549.277 1.359v4.164h-1.274v-4.01q0-.713-.37-1.113-.371-.404-1.019-.404-.443 0-.788.191a1.37 1.37 0 0 0-.541.563q-.196.367-.196.886m11.523 4.014q-.793 0-1.414-.404-.618-.41-.972-1.164-.35-.759-.349-1.819 0-1.062.353-1.816.359-.755.98-1.155a2.55 2.55 0 0 1 1.411-.4q.61 0 .98.204.375.2.58.469.209.269.323.473h.077v-3.243h1.274v8.728h-1.244v-1.019h-.107a3.3 3.3 0 0 1-.332.477 1.8 1.8 0 0 1-.588.469q-.375.2-.972.2m.282-1.086q.55 0 .929-.29.382-.294.579-.814.2-.52.2-1.21 0-.682-.196-1.193a1.74 1.74 0 0 0-.575-.797q-.38-.286-.937-.286-.576 0-.959.299a1.8 1.8 0 0 0-.58.813 3.3 3.3 0 0 0-.192 1.164q0 .656.196 1.18.196.525.58.831.388.303.955.303m7.601 1.091q-.967 0-1.666-.414a2.8 2.8 0 0 1-1.074-1.172q-.375-.758-.375-1.777 0-1.005.375-1.772a2.9 2.9 0 0 1 1.057-1.198q.681-.43 1.593-.43.555 0 1.074.183.52.183.933.575a2.7 2.7 0 0 1 .652 1.019q.239.622.239 1.513v.451h-5.203v-.954h3.954q0-.502-.204-.891a1.55 1.55 0 0 0-1.436-.844q-.537 0-.938.265-.396.26-.613.681a2 2 0 0 0-.213.908v.746q0 .655.23 1.116.234.46.652.703.417.24.976.239.361 0 .66-.102.298-.106.516-.316.217-.209.332-.515l1.206.217q-.145.532-.52.933a2.5 2.5 0 0 1-.933.618 3.5 3.5 0 0 1-1.274.218m7.277-6.678v1.023h-3.575v-1.023zm-2.616-1.568h1.274v6.192q0 .37.111.558a.57.57 0 0 0 .285.251q.179.064.388.064.154 0 .268-.021l.179-.034.23 1.052a2.523 2.523 0 0 1-.826.137 2.3 2.3 0 0 1-.938-.179 1.6 1.6 0 0 1-.703-.58q-.268-.391-.268-.984zm6.776 8.246q-.967 0-1.666-.414a2.8 2.8 0 0 1-1.074-1.172q-.375-.758-.375-1.777 0-1.005.375-1.772a2.9 2.9 0 0 1 1.057-1.198q.682-.43 1.594-.43.553 0 1.074.183.519.183.933.575.413.392.652 1.019.239.622.239 1.513v.451h-5.204v-.954h3.955q0-.502-.205-.891a1.55 1.55 0 0 0-1.436-.844q-.537 0-.937.265-.396.26-.614.681a2 2 0 0 0-.213.908v.746q0 .655.23 1.116.235.46.652.703.418.24.976.239.363 0 .661-.102.297-.106.515-.316.217-.209.333-.515l1.206.217q-.145.532-.52.933a2.5 2.5 0 0 1-.934.618 3.5 3.5 0 0 1-1.274.218m6.979 0q-.95 0-1.636-.431a2.85 2.85 0 0 1-1.048-1.197q-.367-.763-.367-1.747 0-.998.375-1.76.375-.768 1.057-1.198t1.607-.43q.745 0 1.329.277.583.273.942.767.362.494.43 1.155h-1.24a1.5 1.5 0 0 0-.469-.793q-.362-.332-.971-.332-.533 0-.933.281a1.8 1.8 0 0 0-.618.793q-.222.51-.222 1.21 0 .716.217 1.236.218.52.614.805.4.285.942.285.362 0 .656-.132a1.35 1.35 0 0 0 .499-.387q.204-.252.285-.606h1.24a2.4 2.4 0 0 1-.413 1.134q-.345.498-.925.784-.575.285-1.351.286m7.107-6.678v1.023h-3.575v-1.023zm-2.616-1.568h1.274v6.192q0 .37.111.558a.58.58 0 0 0 .285.251q.18.064.388.064.154 0 .268-.021l.179-.034.231 1.052a2.523 2.523 0 0 1-.827.137 2.3 2.3 0 0 1-.938-.179 1.6 1.6 0 0 1-.703-.58q-.268-.391-.268-.984zm4.026 8.114v-6.546h1.274v6.546zm.643-7.556a.81.81 0 0 1-.571-.221.72.72 0 0 1-.234-.537.7.7 0 0 1 .234-.537.8.8 0 0 1 .571-.226q.333 0 .567.226a.7.7 0 0 1 .239.537q0 .31-.239.537a.8.8 0 0 1-.567.221m3.619 3.669v3.887h-1.274v-6.546h1.223v1.065h.081q.226-.52.707-.835.486-.315 1.223-.315.67 0 1.172.281.503.277.78.827t.277 1.359v4.164h-1.274v-4.01q0-.713-.371-1.113-.371-.404-1.018-.404-.444 0-.789.191a1.4 1.4 0 0 0-.541.563q-.196.367-.196.886m8.642 6.477q-.78 0-1.342-.204a2.6 2.6 0 0 1-.912-.541 2.3 2.3 0 0 1-.529-.738l1.096-.451q.115.188.306.396.196.213.529.362.337.15.865.149.724 0 1.197-.353.474-.35.473-1.117v-1.287h-.081a3 3 0 0 1-.332.465q-.213.255-.588.443-.375.187-.976.187-.776 0-1.398-.362-.618-.366-.98-1.078-.358-.716-.358-1.76t.354-1.79q.358-.745.98-1.142a2.55 2.55 0 0 1 1.411-.4q.609 0 .984.204.375.2.584.469.213.269.328.473h.094v-1.061h1.248v6.69q0 .845-.392 1.385a2.3 2.3 0 0 1-1.061.801q-.664.26-1.5.26m-.013-3.745q.55 0 .929-.256a1.6 1.6 0 0 0 .58-.741q.2-.486.2-1.164 0-.66-.196-1.163a1.73 1.73 0 0 0-.575-.784q-.379-.286-.938-.286-.575 0-.958.299a1.8 1.8 0 0 0-.58.801 3.2 3.2 0 0 0-.192 1.133q0 .644.196 1.129.196.486.58.759.388.273.954.273m-79.673 16.287q-.95 0-1.637-.431a2.85 2.85 0 0 1-1.048-1.197q-.366-.763-.366-1.747 0-.998.375-1.76.375-.768 1.056-1.198.682-.43 1.607-.43.745 0 1.329.277.585.273.942.767.362.494.431 1.155h-1.24a1.5 1.5 0 0 0-.469-.793q-.363-.333-.972-.332-.533 0-.933.281-.396.277-.618.793-.221.51-.221 1.21 0 .716.217 1.236t.613.805q.401.285.942.285.363 0 .656-.132.299-.137.499-.387.204-.252.286-.606h1.24a2.4 2.4 0 0 1-.414 1.134q-.345.498-.924.784-.576.286-1.351.286m6.808 0q-.92 0-1.606-.422a2.85 2.85 0 0 1-1.066-1.181q-.379-.758-.379-1.772 0-1.018.379-1.782a2.84 2.84 0 0 1 1.066-1.184q.686-.423 1.606-.422.92 0 1.607.422.685.422 1.065 1.184.38.763.379 1.782 0 1.014-.379 1.772a2.85 2.85 0 0 1-1.065 1.181q-.687.422-1.607.422m.005-1.07q.596 0 .988-.315.393-.316.58-.84.192-.524.192-1.155a3.3 3.3 0 0 0-.192-1.15 1.87 1.87 0 0 0-.58-.848q-.392-.32-.988-.32-.601 0-.998.32a1.9 1.9 0 0 0-.583.848 3.4 3.4 0 0 0-.188 1.15q0 .631.188 1.155.191.524.583.84.397.315.998.315m5.743-2.949v3.887h-1.274v-6.546h1.223v1.065h.081q.225-.52.707-.835.486-.315 1.223-.315.67 0 1.172.281.503.277.78.827t.277 1.359v4.164h-1.274v-4.01q0-.713-.371-1.113-.37-.404-1.019-.404-.443 0-.788.191a1.4 1.4 0 0 0-.541.563q-.196.367-.196.886m9.013-2.659v1.023h-3.699v-1.023zm-2.685 6.546v-7.304q0-.614.268-1.019.269-.41.712-.609.444-.205.963-.205.384 0 .656.064.273.06.405.111l-.298 1.031a7 7 0 0 0-.23-.06 1.3 1.3 0 0 0-.341-.038q-.464 0-.665.23-.196.23-.196.665v7.134zm3.999 0v-6.546h1.274v6.546zm.644-7.556a.8.8 0 0 1-.571-.221.72.72 0 0 1-.235-.537q0-.316.235-.537a.8.8 0 0 1 .571-.226q.332 0 .566.226.24.22.239.537a.71.71 0 0 1-.239.537.8.8 0 0 1-.566.221m5.089 10.146q-.78 0-1.342-.204a2.6 2.6 0 0 1-.912-.541 2.3 2.3 0 0 1-.529-.738l1.095-.451q.115.188.307.396.196.213.529.362.336.15.865.149.724 0 1.197-.353.473-.35.473-1.117v-1.287h-.081q-.115.21-.332.465-.213.255-.588.443-.375.187-.976.187-.775 0-1.398-.362-.618-.366-.98-1.078-.358-.716-.358-1.76t.354-1.79q.357-.745.98-1.142.622-.4 1.41-.4.61 0 .985.204.374.2.584.469.213.269.328.473h.093v-1.061h1.249v6.69q0 .845-.392 1.385a2.3 2.3 0 0 1-1.061.801q-.664.26-1.5.26m-.013-3.745q.55 0 .929-.256a1.6 1.6 0 0 0 .58-.741q.2-.486.2-1.164 0-.66-.196-1.163a1.74 1.74 0 0 0-.575-.784q-.38-.286-.938-.286-.575 0-.959.299a1.8 1.8 0 0 0-.579.801 3.2 3.2 0 0 0-.192 1.133q0 .644.196 1.129.196.486.58.759.387.273.954.273m10.608 1.287q-.95 0-1.637-.431a2.85 2.85 0 0 1-1.048-1.197q-.366-.763-.366-1.747 0-.998.375-1.76.375-.768 1.056-1.198.682-.43 1.607-.43.745 0 1.329.277.585.273.942.767.362.494.431 1.155h-1.24a1.5 1.5 0 0 0-.469-.793q-.363-.333-.972-.332-.533 0-.933.281-.396.277-.618.793-.222.51-.222 1.21 0 .716.218 1.236.217.52.613.805.4.285.942.285.362 0 .656-.132a1.35 1.35 0 0 0 .499-.387q.205-.252.286-.606h1.24a2.4 2.4 0 0 1-.414 1.134q-.345.498-.924.784-.576.286-1.351.286m5.325-4.019v3.887h-1.274v-8.728h1.257v3.247h.081q.23-.528.703-.839.474-.31 1.236-.311.673 0 1.176.277.507.276.784.827.282.545.282 1.363v4.164h-1.275v-4.01q0-.721-.37-1.117-.37-.4-1.032-.4-.452 0-.809.191a1.4 1.4 0 0 0-.558.563q-.201.367-.201.886m7.85 4.031q-.623 0-1.125-.23a1.9 1.9 0 0 1-.797-.677q-.29-.444-.29-1.087 0-.553.213-.912.213-.357.575-.567.363-.209.81-.315t.912-.162l.955-.111q.366-.047.532-.149t.166-.332v-.03q0-.559-.315-.865-.31-.307-.929-.307-.644 0-1.014.286a1.53 1.53 0 0 0-.507.626l-1.198-.273a2.3 2.3 0 0 1 .623-.963q.413-.37.95-.537.537-.17 1.129-.17.391 0 .831.094.443.089.827.332.387.243.635.695.246.447.247 1.163v4.347h-1.244v-.895h-.052a1.8 1.8 0 0 1-.37.485q-.248.24-.635.397a2.5 2.5 0 0 1-.929.157m.277-1.022q.528 0 .903-.209a1.45 1.45 0 0 0 .776-1.274v-.844a.7.7 0 0 1-.265.128 4 4 0 0 1-.438.098q-.248.038-.482.072l-.392.051a3.2 3.2 0 0 0-.678.158q-.302.11-.485.32-.18.204-.179.545 0 .473.349.716.35.239.891.239m5.924-3.009v3.887h-1.274v-6.546h1.223v1.065h.081q.225-.52.707-.835.486-.315 1.223-.315.67 0 1.172.281.503.277.78.827t.277 1.359v4.164h-1.274v-4.01q0-.713-.371-1.113-.371-.404-1.018-.404-.444 0-.789.191a1.4 1.4 0 0 0-.541.563q-.196.367-.196.886m8.642 6.477q-.78 0-1.342-.204a2.6 2.6 0 0 1-.912-.541 2.3 2.3 0 0 1-.529-.738l1.096-.451q.115.188.306.396.196.213.529.362.337.15.865.149.725 0 1.197-.353.474-.35.473-1.117v-1.287h-.081a3 3 0 0 1-.332.465q-.213.255-.588.443-.375.187-.976.187-.775 0-1.398-.362-.618-.366-.98-1.078-.358-.716-.358-1.76t.354-1.79q.358-.745.98-1.142a2.55 2.55 0 0 1 1.411-.4q.609 0 .984.204.375.2.584.469.213.269.328.473h.094v-1.061h1.248v6.69q0 .845-.392 1.385a2.3 2.3 0 0 1-1.061.801q-.664.26-1.5.26m-.013-3.745q.55 0 .929-.256a1.6 1.6 0 0 0 .58-.741q.2-.486.2-1.164 0-.66-.196-1.163a1.73 1.73 0 0 0-.575-.784q-.38-.286-.938-.286-.575 0-.958.299a1.8 1.8 0 0 0-.58.801 3.2 3.2 0 0 0-.192 1.133q0 .644.196 1.129.196.486.58.759.387.273.954.273m7.496 1.287q-.967 0-1.666-.414a2.8 2.8 0 0 1-1.074-1.172q-.375-.758-.375-1.777 0-1.005.375-1.772a2.9 2.9 0 0 1 1.057-1.198q.681-.43 1.594-.43.554 0 1.073.183.52.183.934.575.413.393.652 1.019.238.622.238 1.513v.451h-5.203v-.954h3.955q0-.503-.205-.891a1.55 1.55 0 0 0-1.436-.844q-.537 0-.937.265-.397.26-.614.681a2 2 0 0 0-.213.908v.746q0 .656.23 1.116.235.46.652.703.418.24.976.239.362 0 .66-.102.298-.106.516-.316a1.36 1.36 0 0 0 .332-.515l1.206.217q-.144.532-.52.933a2.5 2.5 0 0 1-.933.618 3.5 3.5 0 0 1-1.274.218"></path><path fill="#000" d="M505.494 81.634a4 4 0 0 1-1.562-.297 3.8 3.8 0 0 1-1.243-.825 4 4 0 0 1-.814-1.265 4.3 4.3 0 0 1-.286-1.595q0-.858.286-1.584.297-.726.814-1.254.528-.54 1.243-.836a4 4 0 0 1 1.562-.297q.836 0 1.551.297.714.297 1.232.836.528.539.814 1.265.297.726.297 1.573 0 .858-.297 1.584a3.76 3.76 0 0 1-2.046 2.1 4 4 0 0 1-1.551.298m0-1.507q.66 0 1.177-.32.516-.318.803-.88.297-.56.297-1.275a2.6 2.6 0 0 0-.297-1.265 2.2 2.2 0 0 0-.803-.88 2.14 2.14 0 0 0-1.177-.33q-.672 0-1.188.319a2.24 2.24 0 0 0-.814.88q-.286.561-.286 1.276 0 .726.286 1.287.297.55.814.869.516.32 1.188.319m9.293 1.507q-1.123 0-2.002-.506a3.6 3.6 0 0 1-1.364-1.397q-.495-.901-.495-2.08 0-.834.297-1.55a4 4 0 0 1 .836-1.265 3.8 3.8 0 0 1 1.254-.836 4.1 4.1 0 0 1 1.562-.297q.825 0 1.584.352.77.34 1.232.924l-1.001 1.11a3.2 3.2 0 0 0-.847-.648 2.1 2.1 0 0 0-.979-.231q-.65 0-1.177.308-.518.308-.825.869-.309.55-.308 1.276 0 .748.297 1.309.308.55.858.858a2.7 2.7 0 0 0 1.287.297q.538 0 1.012-.22.472-.22.814-.572l.77 1.243a2.6 2.6 0 0 1-.715.539q-.452.242-1.001.385a4.6 4.6 0 0 1-1.089.132m4.779-.11v-7.7h5.148v1.408h-3.597v1.683h3.058v1.364h-3.058v1.837h3.663v1.408zm6.598 0 3.014-7.7h1.43l3.003 7.7h-1.628l-.627-1.661h-2.992l-.627 1.66zm3.157-4.191-.462 1.232h2.013l-.473-1.254a8 8 0 0 1-.154-.43 16 16 0 0 0-.198-.582q-.099-.308-.176-.583-.131.407-.275.836-.143.429-.275.78m5.965 4.19v-7.7h1.419l3.971 5.358a22 22 0 0 1-.132-1.441q-.033-.76-.022-1.75v-2.166h1.551v7.7h-1.441l-3.949-5.27q.066.727.099 1.156.033.418.044.704.012.275.011.572v2.838zm13.03 0V80.15h1.276v-4.95h-1.276v-1.375h4.147v1.375h-1.287v4.95h1.287v1.375zm6.517 0v-7.7h1.419l3.971 5.358a21 21 0 0 1-.132-1.441q-.034-.76-.022-1.75v-2.166h1.551v7.7h-1.441l-3.949-5.27q.066.727.099 1.156.033.418.044.704.01.275.011.572v2.838zm10.942 0v-6.258h-2.233v-1.441h6.116v1.44h-2.299v6.26zm5.809 0v-7.7h5.148v1.409h-3.597v1.683h3.058v1.364h-3.058v1.837h3.663v1.408zm11.02.11a4.3 4.3 0 0 1-1.628-.296 3.84 3.84 0 0 1-2.112-2.101 4.1 4.1 0 0 1-.297-1.584q0-.836.308-1.551.309-.726.858-1.265.55-.54 1.287-.836a4.4 4.4 0 0 1 1.639-.297q.913 0 1.705.363.793.363 1.243.924l-.979 1.034a3.3 3.3 0 0 0-.935-.638 2.4 2.4 0 0 0-1.045-.231q-.704 0-1.265.33-.55.32-.869.89-.319.562-.319 1.277 0 .716.33 1.287a2.6 2.6 0 0 0 .913.913q.572.34 1.265.34.518 0 .935-.197.419-.21.66-.54.253-.34.253-.758h-2.002v-1.342h3.531q.033.188.044.462.012.264.011.418 0 1.001-.473 1.77a3.2 3.2 0 0 1-1.265 1.2q-.791.429-1.793.429m5.56-.11v-7.7h3.388q.703 0 1.276.32.582.32.924.88.34.55.341 1.254 0 .748-.396 1.342a2.47 2.47 0 0 1-1.045.89l1.749 3.026-1.837-.011-1.573-2.783h-1.298v2.783zm1.529-4.091h1.804q.462 0 .737-.308.286-.32.286-.792 0-.506-.341-.814t-.902-.308h-1.584zm5.81 4.092 3.014-7.7h1.43l3.003 7.7h-1.628l-.627-1.661h-2.992l-.627 1.66zm3.157-4.191-.462 1.232h2.013l-.473-1.254a8 8 0 0 1-.154-.43 20 20 0 0 0-.198-.582q-.1-.308-.176-.583-.132.407-.275.836t-.275.78m7.001 4.19v-6.258h-2.233v-1.441h6.116v1.44h-2.299v6.26zm5.6 0V80.15h1.276v-4.95h-1.276v-1.375h4.147v1.375h-1.287v4.95h1.287v1.375zm9.743.11a4 4 0 0 1-1.562-.296 3.8 3.8 0 0 1-1.243-.825 4 4 0 0 1-.814-1.265 4.3 4.3 0 0 1-.286-1.595q0-.858.286-1.584a3.9 3.9 0 0 1 .814-1.254q.529-.54 1.243-.836a4 4 0 0 1 1.562-.297q.837 0 1.551.297.716.297 1.232.836.528.539.814 1.265.297.726.297 1.573 0 .858-.297 1.584a3.7 3.7 0 0 1-.814 1.265q-.516.54-1.232.836a4 4 0 0 1-1.551.297m0-1.506q.66 0 1.177-.32.518-.318.803-.88.297-.56.297-1.275a2.6 2.6 0 0 0-.297-1.265 2.16 2.16 0 0 0-.803-.88 2.14 2.14 0 0 0-1.177-.33q-.67 0-1.188.319a2.25 2.25 0 0 0-.814.88q-.285.561-.286 1.276 0 .726.286 1.287.298.55.814.869.517.32 1.188.319m5.95 1.397v-7.7h1.419l3.971 5.357a21 21 0 0 1-.132-1.441q-.034-.76-.022-1.75v-2.166h1.551v7.7H632.3l-3.949-5.27q.066.727.099 1.156.033.418.044.704.01.275.011.572v2.838z"></path><path fill="#FF648A" d="M704.918 207.377c0-30.376-24.624-55-55-55s-55 24.624-55 55 24.624 55 55 55 55-24.624 55-55"></path><path fill="#fff" d="M704.918 207.377c0-30.376-24.624-55-55-55s-55 24.624-55 55 24.624 55 55 55 55-24.624 55-55"></path><mask id="c" width="41" height="50" x="629" y="171" maskUnits="userSpaceOnUse" style="mask-type:luminance"><path fill="#fff" d="M669.9 171.544h-39.964v49.177H669.9z"></path></mask><g mask="url(#c)"><path fill="url(#d)" d="M649.68 171.544a27 27 0 0 0-4.606.399c-4.079.732-4.82 2.264-4.82 5.09v3.732h9.64v1.243h-13.257c-2.802 0-5.255 1.711-6.022 4.964-.885 3.73-.925 6.057 0 9.951.685 2.899 2.321 4.964 5.123 4.964h3.314v-4.473c0-3.232 2.753-6.082 6.022-6.082h9.628c2.681 0 4.82-2.242 4.82-4.976v-9.323c0-2.654-2.204-4.647-4.82-5.09a29.6 29.6 0 0 0-5.022-.399m-5.213 3.001c.996 0 1.809.84 1.809 1.872 0 1.028-.813 1.86-1.809 1.86-.999 0-1.809-.832-1.809-1.86 0-1.032.81-1.872 1.809-1.872"></path><path fill="url(#e)" d="M660.724 182.008v4.348c0 3.371-2.813 6.208-6.022 6.208h-9.628c-2.637 0-4.82 2.293-4.82 4.976v9.323c0 2.653 2.272 4.214 4.82 4.975 3.051.912 5.977 1.076 9.628 0 2.427-.713 4.82-2.15 4.82-4.975v-3.732h-9.628v-1.244h14.448c2.801 0 3.845-1.984 4.82-4.964 1.006-3.067.963-6.016 0-9.951-.693-2.832-2.015-4.964-4.82-4.964zm-5.415 23.611c.999 0 1.809.832 1.809 1.86 0 1.032-.81 1.872-1.809 1.872-.996 0-1.809-.84-1.809-1.872 0-1.028.813-1.86 1.809-1.86"></path><path fill="url(#f)" d="M650.003 220.721c7.134 0 12.918-1.14 12.918-2.545s-5.784-2.544-12.918-2.544-12.918 1.139-12.918 2.544 5.784 2.545 12.918 2.545" opacity="0.444"></path></g><path fill="#424141" d="M625.771 226.004q.693 0 1.197.27.513.27.783.765.279.495.279 1.152v3.888h-.747l.027-.495h-.135a.72.72 0 0 1-.324.432 1.13 1.13 0 0 1-.612.153q-.576 0-.891-.36-.306-.369-.306-1.062v-1.053q0-.693.306-1.053.315-.369.891-.369.369 0 .621.162a.73.73 0 0 1 .324.45h.135l-.117-.63v-.063q0-.684-.378-1.071-.369-.396-1.053-.396-.783 0-1.224.495-.432.495-.432 1.395v3.06q0 .864.459 1.35.468.486 1.287.486h.63v.774h-.63q-.783 0-1.368-.324a2.17 2.17 0 0 1-.891-.909q-.315-.585-.315-1.377v-3.06q0-1.215.657-1.908.666-.702 1.827-.702m1.431 3.681q0-.396-.162-.585-.162-.198-.504-.198-.666 0-.666.792v1.053q0 .414.162.603.171.189.504.189.342 0 .504-.207t.162-.648zm3.83 3.069q-.918 0-1.449-.513-.531-.522-.531-1.404v-1.296q0-.882.531-1.395.531-.522 1.449-.522t1.449.513.531 1.395v1.305q0 .882-.531 1.404-.531.513-1.449.513m0-.855q.486 0 .747-.27t.261-.792v-1.296q0-.522-.261-.792t-.747-.27-.747.27-.261.792v1.296q0 .522.261.792t.747.27m5.739-4.275q.738 0 1.179.477.441.468.441 1.269v3.294h-.972v-3.186q0-.486-.261-.756t-.711-.27q-.459 0-.729.288-.261.288-.261.801v3.123h-.972v-4.95h.963v.945h.018q.063-.495.405-.765t.9-.27m7.214 6.12h-4.32v-.855h4.32zm3.723-6.12q.792 0 1.251.495.468.486.468 1.341v.333h-.999v-.252q0-.522-.27-.81-.261-.288-.738-.288t-.747.288q-.261.288-.261.81v3.123h-.972v-4.95h.936v.927q.234-1.017 1.332-1.017m6.89 2.799h-3.024v.414q0 .549.261.837.27.288.792.288.423 0 .666-.144a.66.66 0 0 0 .315-.441h.972q-.108.63-.639 1.008-.531.369-1.323.369-.909 0-1.449-.522-.531-.531-.531-1.395v-1.296q0-.873.531-1.395.54-.522 1.449-.522t1.44.522q.54.522.54 1.395zm-3.024-.657 2.088-.009v-.225q0-.549-.27-.837-.261-.297-.774-.297t-.783.297q-.261.297-.261.846zm6.243 2.988q-.801 0-1.296-.369a1.34 1.34 0 0 1-.531-1.008h.972a.57.57 0 0 0 .261.405q.225.153.594.153h.378q.441 0 .666-.18a.59.59 0 0 0 .225-.486.55.55 0 0 0-.198-.45q-.198-.162-.594-.225l-.639-.099q-.801-.117-1.179-.45-.369-.342-.369-.981 0-.684.45-1.062.459-.378 1.323-.378h.342q.756 0 1.224.36a1.3 1.3 0 0 1 .54.954h-.972a.55.55 0 0 0-.252-.36q-.207-.135-.54-.135h-.342q-.81 0-.81.63 0 .27.162.405t.54.189l.648.099q.846.126 1.233.477.396.342.396.999 0 .72-.477 1.116-.468.396-1.377.396zm4.469 1.53.711-1.908-1.836-4.662h1.062l1.008 2.79q.108.315.234.837.126-.531.225-.837l.936-2.79h1.035l-2.349 6.57zm6.864-6.66q.738 0 1.179.477.441.468.441 1.269v3.294h-.972v-3.186q0-.486-.261-.756t-.711-.27q-.459 0-.729.288-.261.288-.261.801v3.123h-.972v-4.95h.963v.945h.018q.063-.495.405-.765t.9-.27m5.09 5.13q-.927 0-1.476-.513-.54-.513-.54-1.404v-1.296q0-.891.54-1.404.549-.513 1.476-.513.891 0 1.431.468t.567 1.278h-.972q-.027-.423-.297-.657t-.729-.234q-.495 0-.774.279-.27.27-.27.774v1.305q0 .504.27.783.279.279.774.279.459 0 .729-.234t.297-.666h.972q-.027.81-.567 1.287-.54.468-1.431.468m-42.551 10.91q-.702 0-1.125-.405-.414-.414-.414-1.098v-4.185h-1.494v-.882h2.466v5.067a.64.64 0 0 0 .162.459.6.6 0 0 0 .441.162h1.602v.882zm4.785-5.751a.65.65 0 0 1-.45-.153.53.53 0 0 1-.162-.405q0-.261.162-.414a.63.63 0 0 1 .45-.162h.18q.27 0 .441.162a.55.55 0 0 1 .171.414.52.52 0 0 1-.171.405.65.65 0 0 1-.45.153zm2.232 5.751h-4.284v-.882h1.746v-3.186h-1.521v-.882h2.466v4.068h1.593zm2.921.09q-.801 0-1.296-.369a1.34 1.34 0 0 1-.531-1.008h.972a.57.57 0 0 0 .261.405q.225.153.594.153h.378q.441 0 .666-.18a.59.59 0 0 0 .225-.486.55.55 0 0 0-.198-.45q-.198-.162-.594-.225l-.639-.099q-.801-.117-1.179-.45-.369-.342-.369-.981 0-.684.45-1.062.459-.378 1.323-.378h.342q.756 0 1.224.36a1.3 1.3 0 0 1 .54.954h-.972a.55.55 0 0 0-.252-.36q-.207-.135-.54-.135h-.342q-.81 0-.81.63 0 .27.162.405t.54.189l.648.099q.846.126 1.233.477.396.342.396.999 0 .72-.477 1.116-.468.396-1.377.396zm6.135-.09q-.675 0-1.053-.369t-.378-1.035v-2.664h-1.368v-.882h1.368v-1.35h.972v1.35h1.944v.882h-1.944v2.664q0 .27.117.396.126.126.387.126h1.35v.882zm6.836-2.241h-3.024v.414q0 .549.261.837.27.288.792.288.423 0 .666-.144a.66.66 0 0 0 .315-.441h.972q-.108.63-.639 1.008-.531.369-1.323.369-.909 0-1.449-.522-.531-.531-.531-1.395v-1.296q0-.873.531-1.395.54-.522 1.449-.522t1.44.522q.54.522.54 1.395zm-3.024-.657 2.088-.009v-.225q0-.549-.27-.837-.261-.297-.774-.297t-.783.297q-.261.297-.261.846zm6.783-2.142q.738 0 1.179.477.441.468.441 1.269v3.294h-.972v-3.186q0-.486-.261-.756t-.711-.27q-.459 0-.729.288-.261.288-.261.801v3.123h-.972v-4.95h.963v.945h.018q.063-.495.405-.765t.9-.27m7.034 2.799h-3.024v.414q0 .549.261.837.27.288.792.288.423 0 .666-.144a.66.66 0 0 0 .315-.441h.972q-.108.63-.639 1.008-.531.369-1.323.369-.909 0-1.449-.522-.531-.531-.531-1.395v-1.296q0-.873.531-1.395.54-.522 1.449-.522t1.44.522q.54.522.54 1.395zm-3.024-.657 2.088-.009v-.225q0-.549-.27-.837-.261-.297-.774-.297t-.783.297q-.261.297-.261.846zm6.927-2.142q.792 0 1.251.495.468.486.468 1.341v.333h-.999v-.252q0-.522-.27-.81-.261-.288-.738-.288t-.747.288q-.261.288-.261.81v3.123h-.972v-4.95h.936v.927q.234-1.017 1.332-1.017M542.179 283.599a1.24 1.24 0 0 0-.563-.937q-.494-.337-1.244-.337-.537 0-.929.171-.391.166-.609.46a1.1 1.1 0 0 0-.213.66q0 .312.145.537.149.226.387.379.244.15.52.252.277.098.533.162l.852.221q.418.103.857.277t.814.461q.375.285.605.707.234.422.234 1.01 0 .741-.383 1.317-.38.575-1.104.907-.72.333-1.743.333-.98 0-1.696-.311-.716-.312-1.121-.882-.405-.576-.447-1.364h1.321q.038.473.307.788.273.312.694.465.426.149.934.149.558 0 .992-.175.44-.179.691-.494.25-.32.251-.746a.92.92 0 0 0-.221-.635 1.64 1.64 0 0 0-.593-.409 6 6 0 0 0-.839-.285l-1.031-.282q-1.048-.285-1.662-.839-.61-.554-.61-1.466 0-.755.409-1.317a2.7 2.7 0 0 1 1.108-.873q.7-.316 1.577-.316.886 0 1.564.311.681.312 1.074.857.391.541.409 1.244zm5.681 6.567q-.966 0-1.666-.413a2.8 2.8 0 0 1-1.074-1.172q-.375-.759-.375-1.777 0-1.006.375-1.773.38-.767 1.057-1.197.682-.43 1.594-.431.553 0 1.074.183.519.184.933.576t.652 1.018q.239.622.239 1.513v.452h-5.203v-.955h3.954q0-.502-.204-.891a1.55 1.55 0 0 0-.576-.617 1.6 1.6 0 0 0-.861-.226q-.537 0-.937.264a1.8 1.8 0 0 0-.614.682 2 2 0 0 0-.213.907v.746q0 .657.23 1.117.235.46.652.703.418.238.976.238.363 0 .661-.102.298-.107.515-.315a1.4 1.4 0 0 0 .333-.516l1.206.218q-.145.533-.52.933-.37.396-.933.618a3.5 3.5 0 0 1-1.275.217m5.497-4.018v3.886h-1.275v-6.546h1.223v1.066h.081q.226-.52.708-.835.486-.316 1.223-.316.668 0 1.172.281.503.278.779.827.277.55.277 1.36v4.163h-1.274v-4.01q0-.712-.37-1.112-.371-.405-1.019-.405-.443 0-.788.192a1.37 1.37 0 0 0-.541.562q-.196.366-.196.887m8.348 4.014q-.793 0-1.415-.405-.618-.41-.972-1.163-.35-.76-.349-1.82 0-1.061.353-1.815.359-.754.981-1.155a2.55 2.55 0 0 1 1.41-.401q.61 0 .98.205.375.2.58.468.209.269.324.473h.076v-3.242h1.274v8.727h-1.244v-1.019h-.106q-.116.21-.333.478a1.8 1.8 0 0 1-.588.468q-.375.201-.971.201m.281-1.087q.55 0 .929-.29a1.8 1.8 0 0 0 .579-.814q.201-.52.201-1.21a3.3 3.3 0 0 0-.196-1.193 1.75 1.75 0 0 0-.576-.797q-.38-.285-.937-.285-.575 0-.959.298t-.58.814a3.3 3.3 0 0 0-.191 1.163q0 .656.196 1.181.196.524.579.831.388.302.955.302m7.956.959v-6.546h1.231v1.04h.068q.18-.528.631-.831a1.8 1.8 0 0 1 1.031-.307 5 5 0 0 1 .542.03v1.219a2 2 0 0 0-.273-.047 2.6 2.6 0 0 0-.392-.03q-.452 0-.806.192-.349.188-.554.524a1.4 1.4 0 0 0-.204.759v3.997zm6.451.145q-.621 0-1.125-.23a1.9 1.9 0 0 1-.796-.678q-.29-.443-.29-1.087 0-.554.213-.911.213-.358.575-.567.363-.209.81-.316.447-.106.912-.162l.954-.11q.367-.048.533-.149.166-.103.166-.333v-.03q0-.558-.315-.865-.312-.307-.929-.307-.644 0-1.014.286-.368.28-.507.626l-1.198-.272q.214-.597.622-.963.414-.372.951-.537a3.7 3.7 0 0 1 1.129-.171q.392 0 .831.094.443.09.826.332.389.243.635.695.248.447.248 1.163v4.347h-1.245v-.895h-.051a1.8 1.8 0 0 1-.371.486 2 2 0 0 1-.635.396 2.5 2.5 0 0 1-.929.158m.277-1.023q.53 0 .904-.209.379-.209.575-.545.2-.341.2-.729v-.844q-.067.069-.264.128-.192.056-.439.098-.246.039-.481.073l-.392.051a3.2 3.2 0 0 0-.678.157 1.2 1.2 0 0 0-.486.32q-.179.204-.179.545 0 .473.35.716.35.239.89.239m6.07.878-1.926-6.546h1.316l1.283 4.807h.064l1.287-4.807h1.317l1.278 4.786h.064l1.274-4.786h1.317l-1.922 6.546h-1.3l-1.329-4.726h-.098l-1.33 4.726zm14.109.128q-.792 0-1.415-.405-.618-.41-.971-1.163-.35-.76-.35-1.82t.354-1.815q.358-.754.98-1.155a2.55 2.55 0 0 1 1.411-.401q.61 0 .98.205.375.2.579.468.209.269.324.473h.077v-3.242h1.274v8.727h-1.244v-1.019h-.107q-.115.21-.332.478a1.8 1.8 0 0 1-.588.468q-.375.201-.972.201m.281-1.087q.55 0 .929-.29.384-.294.58-.814.2-.52.2-1.21 0-.681-.196-1.193a1.75 1.75 0 0 0-.575-.797q-.38-.285-.938-.285-.575 0-.959.298a1.83 1.83 0 0 0-.579.814 3.3 3.3 0 0 0-.192 1.163q0 .656.196 1.181.196.524.58.831.387.302.954.302m6.685 1.104q-.621 0-1.125-.23a1.9 1.9 0 0 1-.797-.678q-.29-.443-.289-1.087 0-.554.213-.911.213-.358.575-.567t.81-.316q.447-.106.912-.162l.954-.11q.366-.048.533-.149.166-.103.166-.333v-.03q0-.558-.315-.865-.312-.307-.929-.307-.644 0-1.014.286a1.5 1.5 0 0 0-.508.626l-1.197-.272q.213-.597.622-.963.413-.372.95-.537a3.7 3.7 0 0 1 1.13-.171q.392 0 .831.094.443.09.826.332.389.243.635.695.247.447.247 1.163v4.347h-1.244v-.895h-.051a1.8 1.8 0 0 1-.371.486 2 2 0 0 1-.635.396 2.5 2.5 0 0 1-.929.158m.277-1.023q.53 0 .904-.209.379-.209.575-.545.2-.341.2-.729v-.844q-.068.069-.264.128-.192.056-.439.098l-.481.073-.392.051a3.2 3.2 0 0 0-.678.157 1.17 1.17 0 0 0-.486.32q-.179.204-.179.545 0 .473.35.716.35.239.89.239m7.706-5.668v1.023h-3.575v-1.023zm-2.617-1.568h1.275v6.192q0 .37.11.558a.58.58 0 0 0 .286.252q.178.063.388.064.153 0 .268-.022l.179-.034.23 1.053a2.523 2.523 0 0 1-.826.136 2.2 2.2 0 0 1-.938-.179 1.6 1.6 0 0 1-.703-.579q-.269-.393-.269-.985zm5.931 8.259q-.623 0-1.125-.23a1.9 1.9 0 0 1-.797-.678q-.29-.443-.289-1.087 0-.554.213-.911.212-.358.575-.567.362-.209.81-.316.447-.106.911-.162l.955-.11q.366-.048.533-.149.166-.103.166-.333v-.03q0-.558-.315-.865-.312-.307-.929-.307-.643 0-1.015.286a1.53 1.53 0 0 0-.507.626l-1.197-.272q.213-.597.622-.963.413-.372.95-.537a3.7 3.7 0 0 1 1.13-.171q.392 0 .831.094.443.09.826.332.388.243.635.695.247.447.247 1.163v4.347h-1.244v-.895h-.051a1.8 1.8 0 0 1-.371.486 2 2 0 0 1-.635.396 2.5 2.5 0 0 1-.929.158m.277-1.023q.528 0 .904-.209a1.47 1.47 0 0 0 .575-.545q.2-.341.2-.729v-.844q-.068.069-.264.128-.192.056-.439.098l-.481.073-.393.051a3.2 3.2 0 0 0-.677.157 1.17 1.17 0 0 0-.486.32q-.179.204-.179.545 0 .473.35.716.349.239.89.239m-87.72 9.332v1.023h-3.575v-1.023zm-2.616-1.568h1.274v6.192q0 .37.11.558.111.183.286.252.179.063.388.064.154 0 .268-.022l.179-.034.23 1.053a2.523 2.523 0 0 1-.826.136 2.2 2.2 0 0 1-.938-.179 1.6 1.6 0 0 1-.703-.579q-.268-.393-.268-.985zm6.712 8.246q-.92 0-1.606-.422a2.85 2.85 0 0 1-1.066-1.18q-.378-.759-.379-1.773 0-1.019.379-1.781a2.83 2.83 0 0 1 1.066-1.185q.686-.422 1.606-.422t1.607.422q.685.421 1.065 1.185.38.762.379 1.781 0 1.014-.379 1.773a2.85 2.85 0 0 1-1.065 1.18q-.687.422-1.607.422m.005-1.07q.596 0 .988-.315.393-.315.58-.839a3.3 3.3 0 0 0 .191-1.155q0-.627-.191-1.151a1.87 1.87 0 0 0-.58-.848q-.392-.32-.988-.319-.601 0-.998.319a1.9 1.9 0 0 0-.583.848q-.188.525-.188 1.151 0 .63.188 1.155.191.524.583.839.397.315.998.315m10.7-5.608v1.023h-3.575v-1.023zm-2.617-1.568h1.274v6.192q0 .37.111.558a.58.58 0 0 0 .286.252q.178.063.388.064.153 0 .268-.022l.179-.034.23 1.053a2.534 2.534 0 0 1-.827.136 2.2 2.2 0 0 1-.937-.179 1.6 1.6 0 0 1-.703-.579q-.269-.393-.269-.985zm5.441 4.228v3.886h-1.274v-8.727h1.257v3.247h.081q.23-.529.703-.84.472-.31 1.236-.311.673 0 1.176.277.507.277.784.827.281.546.281 1.364v4.163h-1.274v-4.01q0-.72-.371-1.117-.37-.4-1.031-.4-.452 0-.809.192a1.4 1.4 0 0 0-.559.562q-.2.366-.2.887m8.766 4.018q-.968 0-1.667-.413a2.8 2.8 0 0 1-1.073-1.172q-.375-.759-.375-1.777 0-1.006.375-1.773a2.9 2.9 0 0 1 1.056-1.197q.682-.43 1.594-.431.553 0 1.074.183.52.184.933.576t.652 1.018q.239.622.239 1.513v.452h-5.203v-.955h3.954q0-.502-.204-.891a1.54 1.54 0 0 0-.576-.617 1.6 1.6 0 0 0-.86-.226q-.537 0-.938.264a1.77 1.77 0 0 0-.613.682 1.96 1.96 0 0 0-.214.907v.746q0 .657.231 1.117.234.46.652.703.417.238.975.238.363 0 .661-.102a1.4 1.4 0 0 0 .516-.315 1.4 1.4 0 0 0 .332-.516l1.206.218q-.145.533-.52.933-.37.396-.933.618a3.5 3.5 0 0 1-1.274.217m10.512-6.678v1.023h-3.698v-1.023zm-2.684 6.546v-7.304q0-.614.268-1.019.268-.408.712-.609.442-.204.963-.204.384 0 .656.063.273.06.405.111l-.298 1.031q-.09-.025-.23-.059a1.3 1.3 0 0 0-.341-.039q-.465 0-.665.231-.196.23-.196.664v7.134zm3.999 0v-6.546h1.232v1.04h.068q.178-.528.63-.831a1.8 1.8 0 0 1 1.032-.307 5 5 0 0 1 .541.03v1.219a2 2 0 0 0-.273-.047 2.6 2.6 0 0 0-.392-.03 1.66 1.66 0 0 0-.805.192 1.43 1.43 0 0 0-.759 1.283v3.997zm6.452.145q-.622 0-1.125-.23a1.9 1.9 0 0 1-.797-.678q-.29-.443-.29-1.087 0-.554.213-.911.213-.358.575-.567.363-.209.81-.316.447-.106.912-.162l.955-.11q.366-.048.532-.149.166-.103.166-.333v-.03q0-.558-.315-.865-.31-.307-.929-.307-.644 0-1.014.286a1.53 1.53 0 0 0-.507.626l-1.198-.272q.213-.597.623-.963.413-.372.95-.537a3.7 3.7 0 0 1 1.129-.171q.391 0 .831.094.444.09.827.332.387.243.635.695.246.447.247 1.163v4.347h-1.244v-.895h-.052a1.8 1.8 0 0 1-.37.486 2 2 0 0 1-.635.396 2.5 2.5 0 0 1-.929.158m.277-1.023q.528 0 .903-.209.38-.209.575-.545.201-.341.201-.729v-.844a.7.7 0 0 1-.264.128q-.192.056-.439.098l-.482.073-.392.051a3.2 3.2 0 0 0-.678.157 1.17 1.17 0 0 0-.485.32q-.18.204-.179.545 0 .473.349.716.35.239.891.239m4.65.878v-6.546h1.223v1.066h.081q.204-.541.669-.844.464-.307 1.112-.307.656 0 1.1.307.447.307.66.844h.068q.235-.525.746-.835.511-.316 1.219-.316.89 0 1.453.558.567.56.567 1.684v4.389h-1.274v-4.27q0-.664-.363-.963a1.32 1.32 0 0 0-.865-.298q-.622 0-.967.383-.345.38-.345.976v4.172h-1.27v-4.351q0-.533-.333-.857-.331-.323-.865-.323-.362 0-.669.191-.302.188-.49.525a1.6 1.6 0 0 0-.183.779v4.036zm13.426.132q-.966 0-1.666-.413a2.8 2.8 0 0 1-1.074-1.172q-.375-.759-.375-1.777 0-1.006.375-1.773a2.9 2.9 0 0 1 1.057-1.197q.682-.43 1.594-.431.554 0 1.074.183.519.184.933.576t.652 1.018q.239.622.239 1.513v.452h-5.203v-.955h3.954q0-.502-.204-.891a1.55 1.55 0 0 0-.576-.617 1.6 1.6 0 0 0-.861-.226q-.536 0-.937.264a1.8 1.8 0 0 0-.614.682 2 2 0 0 0-.213.907v.746q0 .657.23 1.117.235.46.652.703.418.238.976.238.363 0 .661-.102.298-.107.515-.315a1.4 1.4 0 0 0 .333-.516l1.206.218q-.145.533-.52.933-.37.396-.933.618a3.5 3.5 0 0 1-1.275.217m5.63-.132-1.926-6.546h1.316l1.283 4.807h.064l1.287-4.807h1.317l1.278 4.786h.064l1.274-4.786h1.317l-1.922 6.546h-1.3l-1.329-4.726h-.098l-1.33 4.726zm11.041.132q-.92 0-1.607-.422a2.85 2.85 0 0 1-1.065-1.18q-.38-.759-.379-1.773 0-1.019.379-1.781a2.84 2.84 0 0 1 1.065-1.185q.687-.422 1.607-.422t1.606.422q.687.421 1.066 1.185.38.762.379 1.781 0 1.014-.379 1.773a2.85 2.85 0 0 1-1.066 1.18q-.685.422-1.606.422m.004-1.07q.596 0 .989-.315.391-.315.579-.839a3.3 3.3 0 0 0 .192-1.155q0-.627-.192-1.151a1.9 1.9 0 0 0-.579-.848q-.392-.32-.989-.319-.6 0-.997.319a1.9 1.9 0 0 0-.584.848q-.187.525-.187 1.151 0 .63.187 1.155.192.524.584.839.396.315.997.315m4.469.938v-6.546h1.232v1.04h.068q.179-.528.631-.831a1.8 1.8 0 0 1 1.031-.307 5 5 0 0 1 .541.03v1.219a2 2 0 0 0-.273-.047q-.195-.03-.392-.03a1.66 1.66 0 0 0-.805.192 1.43 1.43 0 0 0-.759 1.283v3.997zm5.778-2.22-.009-1.556h.222l2.608-2.77h1.525l-2.974 3.154h-.201zm-1.172 2.22v-8.727h1.274v8.727zm4.133 0-2.343-3.111.877-.891 3.03 4.002z"></path><mask id="g" width="18" height="25" x="908" y="217" maskUnits="userSpaceOnUse" style="mask-type:luminance"><path fill="#fff" d="M925.407 217.128h-17v24h17z"></path></mask><g mask="url(#g)"><path fill="#06AC38" d="M912.03 234.737v6.391h-3.623v-6.391zm3.618-17.609c3.104.003 4.449.175 6.362 1.179 2.101 1.096 3.397 3.278 3.397 5.993 0 2.524-1.059 4.704-3.089 6.007-1.86 1.207-3.975 1.372-6.793 1.372h-7.118v-14.551zm.469 3.085-4.087.026v8.393h4.327c3.031 0 5.342-1.179 5.342-4.292 0-2.893-1.861-4.157-5.582-4.127"></path></g><mask id="h" width="22" height="30" x="904" y="175" maskUnits="userSpaceOnUse" style="mask-type:luminance"><path fill="#fff" d="M925.407 175.128h-21v29h21z"></path></mask><g mask="url(#h)"><path fill="#D33833" fill-rule="evenodd" d="M925.09 189.103c0 5.744-4.561 10.403-10.183 10.403-5.623 0-10.183-4.656-10.183-10.403s4.558-10.401 10.183-10.401 10.183 4.659 10.183 10.403z" clip-rule="evenodd"></path><path fill="#EF3D3A" d="M905.139 191.677s-.738-10.849 9.271-11.157l-.698-1.162-5.432 1.821-1.551 1.781-1.358 2.596-.777 3.022.233 2.016"></path><path fill="#000" d="M907.931 182.006a10.18 10.18 0 0 0-2.893 7.136c0 2.788 1.105 5.31 2.893 7.136 1.789 1.826 4.252 2.952 6.976 2.952s5.186-1.126 6.975-2.952a10.18 10.18 0 0 0 2.893-7.136c0-2.788-1.107-5.31-2.893-7.136s-4.251-2.951-6.975-2.951-5.187 1.128-6.976 2.951m-.451 14.712a10.8 10.8 0 0 1-3.073-7.576c0-2.957 1.173-5.637 3.073-7.576s4.526-3.144 7.427-3.141c2.901 0 5.53 1.202 7.427 3.141a10.8 10.8 0 0 1 3.073 7.576c0 2.957-1.173 5.637-3.073 7.576a10.36 10.36 0 0 1-7.427 3.141c-2.901 0-5.528-1.201-7.427-3.141"></path><path fill="#F0D6B7" fill-rule="evenodd" d="m919.192 189.161-1.551.231-2.095.232-1.358.04-1.318-.04-1.01-.311-.893-.969-.697-1.977-.156-.427-.93-.311-.545-.89-.388-1.278.428-1.123 1.009-.348.814.388.389.851.465-.077.156-.192-.156-.891-.04-1.122.233-1.55-.008-.885.708-1.131 1.242-.89 2.171-.931 2.405.348 2.095 1.51.97 1.55.621 1.122.155 2.791-.465 2.403-.853 2.132-.814 1.123" clip-rule="evenodd"></path><path fill="#335061" fill-rule="evenodd" d="m917.874 195.864-5.549.232v.931l.465 3.254-.232.271-3.879-1.317-.272-.464-.388-4.377-.893-2.635-.193-.619 3.104-2.132.97-.388.853 1.047.737.658.854.272.388.116.465 2.016.349.426.893-.31-.621 1.201 3.374 1.589-.425.232z" clip-rule="evenodd"></path><path fill="#6D6B6D" fill-rule="evenodd" d="m908.679 182.341 1.009-.348.814.387.389.851.465-.076.116-.464-.233-.89.233-2.132-.193-1.162.698-.815 1.514-1.201-.429-.583-2.134 1.046-.893.699-.505 1.085-.777 1.047-.232 1.241.155 1.317z" clip-rule="evenodd"></path><path fill="#DCD9D8" fill-rule="evenodd" d="M910.27 178.699s.581-1.434 2.909-2.132.116-.503.116-.503l-2.521.97-.969.969-.426.775.893-.076zM909.107 182.069s-.814-2.711 2.288-3.099l-.116-.463-2.135.503-.621 2.016.156 1.317.426-.271z" clip-rule="evenodd"></path><path fill="#F7E4CD" fill-rule="evenodd" d="m910.349 185.674.507-.493s.23.027.267.298c.04.272.156 2.712 1.823 4.029.153.122-1.242-.195-1.242-.195l-1.241-1.936M917.488 184.939s.09-1.175.407-1.083c.317.09.317.406.317.406s-.769.498-.724.677" clip-rule="evenodd"></path><path fill="#F7E4CD" d="M920.706 180.636s-.639.134-.697.698.697.116.814.077M916.011 180.675s-.853.116-.853.659.969.503 1.242.272"></path><path fill="#F7E4CD" fill-rule="evenodd" d="M910.737 183.195s-1.474-.891-1.63-.04-.504 1.473.233 2.364l-.505-.156-.465-1.201-.156-1.162.893-.931 1.009.077.582.464.039.582zM911.435 180.754s.66-3.41 3.995-4.068c2.748-.543 4.19.116 4.732.735 0 0-2.444-2.907-4.772-2.016s-4.034 2.519-3.995 3.565c.066 1.782.04 1.782.04 1.782zM920.437 177.808s-1.126-.039-1.165.97c0 0 0 .155.076.311 0 0 .893-1.007 1.435-.464" clip-rule="evenodd"></path><path fill="#F7E4CD" fill-rule="evenodd" d="M915.509 179.192s-.193-1.547-1.514-.649c-.853.583-.777 1.394-.621 1.55.156.155.114.466.23.253.119-.214.079-.912.507-1.104.428-.195 1.126-.411 1.398-.05" clip-rule="evenodd"></path><path fill="#49728B" fill-rule="evenodd" d="m911.863 189.664-3.646 1.628s1.514 6.006.737 7.866l-.544-.192-.04-2.287-1.009-4.34-.428-1.202 3.802-2.556 1.125 1.085zM912.235 192.984l.518.63v2.324h-.621s-.076-1.628-.076-1.821c0-.192.076-.89.076-.89M912.249 196.289l-1.747.076.505.348 1.242.195" clip-rule="evenodd"></path><path fill="#335061" fill-rule="evenodd" d="m918.225 195.904 1.435-.04.349 3.566-1.475.192-.309-3.721z" clip-rule="evenodd"></path><path fill="#335061" fill-rule="evenodd" d="m918.611 195.904 2.172-.116s.893-2.248.893-2.364.777-3.254.777-3.254l-1.747-1.821-.348-.311-.93.93v3.602l-.814 3.331z" clip-rule="evenodd"></path><path fill="#49728B" fill-rule="evenodd" d="m919.581 195.63-1.358.271.193 1.086c.504.232 1.358-.387 1.358-.387M919.62 188.85l2.717 2.016.076-.931-2.055-1.897-.738.814z" clip-rule="evenodd"></path><path fill="#fff" fill-rule="evenodd" d="m913.596 203.535-.803-3.254-.399-2.401-.066-1.784 3.636-.192h2.261l-.206 4.069.349 3.138-.04.582-2.948.232-1.784-.387z" clip-rule="evenodd"></path><path fill="#DCD9D8" fill-rule="evenodd" d="M917.718 195.862s-.193 4.029.388 6.896c0 0-1.165.735-2.872.93l3.258-.116.389-.232-.465-6.353-.117-1.357" clip-rule="evenodd"></path><path fill="#fff" fill-rule="evenodd" d="m920.075 199.119 1.514-.427 2.869-.156.428-1.317-.777-2.285-.893-.116-1.241.388-1.192.579-.632-.116-.491.193" clip-rule="evenodd"></path><path fill="#DCD9D8" fill-rule="evenodd" d="M920.046 198.341s1.009-.463 1.165-.426l-.425-2.132.504-.193s.349 2.016.349 2.248c0 0 2.172.116 2.367.116 0 0 .465-.891.349-1.821l.428 1.241.04.699-.621.93-.698.155-1.165-.039-.388-.503-1.358.192-.428.155" clip-rule="evenodd"></path><path fill="#fff" d="m918.521 195.59-.853-2.168-.893-1.278s.193-.543.465-.543h.893l.853.311-.076 1.433-.389 2.248z"></path><path fill="#DCD9D8" fill-rule="evenodd" d="M918.69 194.855s-1.086-2.092-1.086-2.403c0 0 .193-.464.465-.348.273.116.854.427.854.427v-.735l-1.319-.272-.893.116 1.514 3.566.309.039" clip-rule="evenodd"></path><path fill="#fff" d="m913.945 189.743-1.075-.116-1.01-.311v.348l.494.543 1.551.698"></path><path fill="#DCD9D8" fill-rule="evenodd" d="M912.212 189.859s1.202.503 1.59.387l.04.464-1.086-.232-.661-.464z" clip-rule="evenodd"></path><path fill="#D33833" fill-rule="evenodd" d="M920.07 191.732c-.658-.018-1.253-.097-1.773-.245.034-.213-.032-.421.021-.577.145-.105.388-.102.607-.126a1.1 1.1 0 0 0-.676-.077c-.005-.147-.071-.239-.111-.355.37-.132 1.245-.996 1.736-.712.235.137.333.915.351 1.294.016.314-.029.63-.155.796z" clip-rule="evenodd"></path><path stroke="#D33833" stroke-width="0.83" d="M920.07 191.732c-.658-.018-1.253-.097-1.773-.245.034-.213-.032-.421.021-.577.145-.105.388-.102.607-.126a1.1 1.1 0 0 0-.676-.077c-.005-.147-.071-.239-.111-.355.37-.132 1.245-.996 1.736-.712.235.137.333.915.351 1.294.016.314-.029.63-.155.796z"></path><path fill="#D33833" fill-rule="evenodd" d="M916.923 190.657q0 .075-.006.151c-.206.134-.536.134-.763.247.333.016.594.095.822.208l-.016.377c-.378.258-.722.641-1.165.883-.209.113-.946.408-1.168.356-.127-.029-.138-.185-.188-.332-.108-.316-.354-.82-.378-1.294-.026-.601-.087-1.608.56-1.484.524.1 1.131.34 1.535.562.249.134.392.303.767.332z" clip-rule="evenodd"></path><path stroke="#D33833" stroke-width="0.83" d="M916.923 190.657q0 .075-.006.151c-.206.134-.536.134-.763.247.333.016.594.095.822.208l-.016.377c-.378.258-.722.641-1.165.883-.209.113-.946.408-1.168.356-.127-.029-.138-.185-.188-.332-.108-.316-.354-.82-.378-1.294-.026-.601-.087-1.608.56-1.484.524.1 1.131.34 1.535.562.249.134.392.303.767.332z"></path><path fill="#D33833" fill-rule="evenodd" d="M917.295 191.377c-.058-.327-.124-.422-.097-.707.874-.582 1.038.999.097.707" clip-rule="evenodd"></path><path stroke="#D33833" stroke-width="0.83" d="M917.295 191.377c-.058-.327-.124-.422-.097-.707.874-.582 1.038.999.097.707Z"></path><path fill="#EF3D3A" fill-rule="evenodd" d="M918.561 191.64s-.272-.387-.077-.503c.193-.116.389 0 .505-.192.116-.195 0-.311.04-.543.039-.232.232-.272.428-.311.192-.04.737-.116.813.076l-.232-.698-.465-.156-1.475.852-.076.426v.852M914.487 192.918c-.048-.603-.095-1.209-.151-1.813-.082-.901.217-.745.999-.745.119 0 .737.142.779.231.212.433-.354.335.243.662.505.274 1.395-.166 1.192-.778-.114-.137-.595-.042-.766-.131l-.909-.472c-.386-.2-1.276-.49-1.689-.211-1.041.709.066 2.475.439 3.212" clip-rule="evenodd"></path><path fill="#000" fill-rule="evenodd" d="M915.509 179.189c-1.057-.245-1.583.443-1.902 1.154-.286-.068-.172-.458-.101-.656.191-.519.952-1.212 1.575-1.117.267.039.632.284.428.619M920.661 180.393h.051c.237.496.446 1.02.747 1.46-.2.469-1.529.886-1.508.042.288-.126.782-.026 1.035-.184-.148-.403-.359-.746-.325-1.318M916.051 180.407c.227.416.301.851.623 1.164.146.143.428.314.288.707-.031.092-.272.3-.409.339-.505.148-1.678.032-1.282-.595.418.018.978.271 1.29-.032-.238-.382-.666-1.138-.508-1.581zM920.471 184.625c-.758.488-1.604 1.018-2.848.894-.267-.232-.367-.743-.108-1.083.134.232.05.653.425.719.705.121 1.527-.432 2.034-.624.315-.53-.026-.725-.311-1.065-.582-.698-1.358-1.565-1.329-2.609.235-.169.253.258.288.337.303.709 1.064 1.613 1.622 2.219.137.15.362.293.386.39.071.287-.188.63-.159.822M910.471 184.114c-.238-.134-.294-.732-.574-.748-.399-.024-.325.775-.325 1.241-.275-.248-.322-1.015-.121-1.41-.23-.113-.333.124-.46.208.164-1.188 1.741-.55 1.48.709M920.955 185.121c-.354.672-.854 1.41-1.889 1.431-.022-.216-.037-.546 0-.677.792-.077 1.281-.48 1.886-.754zM915.99 185.556c.661.347 1.876.384 2.774.358.048.198.048.44.048.68-1.155.058-2.521-.227-2.822-1.038M915.866 186.204c.457 1.146 2.026 1.014 3.353.983-.058.147-.185.324-.341.387-.425.171-1.596.303-2.185-.008-.373-.197-.613-.645-.819-.909-.098-.126-.592-.45-.008-.45z" clip-rule="evenodd"></path><path fill="#81B0C4" fill-rule="evenodd" d="M920.416 192.523c-.537.917-1.049 1.86-1.686 2.669.267-.782.38-2.095.42-3.093.558-.261 1.036.058 1.266.424" clip-rule="evenodd"></path><path fill="#000" fill-rule="evenodd" d="M923.301 195.822c-.6.121-1.023.704-1.609.667.322-.453.885-.643 1.609-.667M923.568 196.758c-.489.052-1.065.131-1.562.089.235-.361 1.142-.237 1.562-.089M923.737 197.569c-.55.014-1.234 0-1.757-.042.309-.332 1.4-.124 1.757.042" clip-rule="evenodd"></path><path fill="#DCD9D8" fill-rule="evenodd" d="M919.38 199.783c.079.69.354 1.389.32 2.145-.304.103-.479.192-.885.192-.03-.643-.114-1.623-.09-2.234.2.013.496-.143.658-.1z" clip-rule="evenodd"></path><path fill="#F0D6B7" fill-rule="evenodd" d="M918.495 189.616c-.278.18-.513.406-.777.599-.589.029-.909-.04-1.342-.377.008-.027.05-.016.053-.048.628.28 1.429-.113 2.066-.171z" clip-rule="evenodd"></path><path fill="#81B0C4" fill-rule="evenodd" d="M915.189 193.904c.172-.749.851-1.136 1.467-1.55.634.807 1.022 1.842 1.448 2.841-1.007-.303-2.032-.793-2.915-1.291" clip-rule="evenodd"></path><path fill="#000" fill-rule="evenodd" d="M918.725 199.883c-.027.611.06 1.594.09 2.235.406 0 .581-.09.885-.193.034-.756-.241-1.454-.32-2.145-.161-.042-.457.114-.658.1zm-6.344-3.481c.269 2.467.658 4.54 1.371 6.725 1.585.48 3.493.522 4.893.09-.256-1.234-.145-2.733-.296-4.051-.113-.988-.055-1.984-.211-2.993-1.696-.353-4.095-.082-5.76.229zm6.161-.213c-.013 1.059.048 2.105.13 3.164.407-.06.684-.102 1.062-.184-.124-1.023-.108-2.171-.359-3.073-.288.003-.545-.002-.833.093m2.067-.172c-.193-.045-.418 0-.603 0 .087.865.299 1.816.373 2.722.29.008.446-.129.684-.174.013-.795-.069-1.892-.454-2.55zm3.128 2.854c.605-.147.985-.888.816-1.649-.113-.512-.317-1.476-.533-1.803-.162-.242-.595-.559-.941-.337-.563.361-1.556.466-1.968.901.206.685.269 1.629.354 2.498.705.045 1.572-.192 2.158.058-.409.132-.94.135-1.294.327.288.14.964.111 1.405.005zm-5.633-3.679c-.426-.998-.811-2.034-1.448-2.84-.616.411-1.295.801-1.467 1.549.883.498 1.908.988 2.915 1.291m1.049-3.093c-.04.998-.154 2.311-.42 3.093.636-.809 1.149-1.752 1.685-2.669-.23-.366-.705-.685-1.265-.424m-1.189-.422c-.241-.026-.447.277-.759.145-.071.079-.137.166-.211.243.692.832 1.007 2.015 1.54 2.993.288-.941.254-1.971.318-2.999-.394.024-.613-.356-.891-.384zm-.764-1.006c-.026.284.04.379.098.706.938.292.774-1.289-.098-.706m-1.041-.343a5.8 5.8 0 0 0-1.535-.561c-.647-.124-.587.882-.56 1.483.021.475.269.978.378 1.294.05.148.06.303.187.332.222.053.959-.242 1.168-.356.444-.242.788-.624 1.165-.882l.016-.377a2 2 0 0 0-.822-.208c.225-.114.558-.111.764-.248 0-.05.005-.1.005-.15-.375-.029-.518-.195-.766-.332zm-3.865-.701c-.336.34.943.804 1.35.83 0-.216.124-.419.098-.574-.484-.085-1.118-.029-1.448-.256m4.137.161c0 .034-.045.021-.053.047.434.337.753.406 1.343.377.264-.192.499-.416.776-.598-.636.058-1.437.45-2.066.171zm3.797 1.151c-.018-.379-.119-1.157-.351-1.294-.492-.287-1.366.58-1.736.712.039.116.105.208.111.356.219-.053.486-.016.676.076-.219.024-.462.024-.608.127-.052.152.014.363-.021.577.521.147 1.115.224 1.773.245.127-.166.172-.482.156-.796zm-8.5-.98c-.105-.074-.819-1.001-.917-.964-1.292.508-2.499 1.388-3.577 2.218 1.028 2.203 1.442 4.904 1.516 7.508 1.179.551 2.215 1.344 3.813 1.426-.185-1.307-.354-2.475-.46-3.705-.401-.169-.977.007-1.355-.053-.003-.453.573-.198.624-.503.036-.23-.318-.248-.204-.609.293.105.449.342.761.429.285-.624-.005-1.734.037-2.255.008-.098.05-.543.269-.467.196.069-.01 1.186.011 1.681.019.456-.055.899.13 1.184a44 44 0 0 1 4.787-.393c-.367-.158-.806-.306-1.284-.577-.259-.148-1.078-.451-1.152-.696-.119-.392.314-.601.388-.938-.779.424-.932-.406-1.117-.996-.167-.535-.262-.933-.304-1.241-.671-.319-1.39-.643-1.968-1.054zm7.818-.851c1.076-.522 1.271 1.947.849 2.743.066.237.288.327.38.54-.6 1.075-1.268 2.077-1.879 3.139.455-.282 1.107-.05 1.644-.264.195-.076.338-.524.486-.883.407-.985.838-2.229 1.028-3.17.042-.213.161-.682.135-.872-.048-.342-.51-.595-.748-.806-.436-.39-.708-.733-1.163-1.099-.185.271-.578.453-.729.674zm-10.28-9.532c-.513.564-.405 1.618-.344 2.369.928-.582 2.156.045 2.146 1.036.441-.01.166-.551.084-.898-.261-1.136.441-2.372.032-3.41-.793.06-1.445.384-1.918.903m3.667-3.27c-1.16.33-2.647 1.17-3.126 2.211.37-.053.627-.24.991-.263.138-.008.317.058.476.018.314-.079.581-.785.819-1.046.232-.256.51-.366.7-.601.122-.058.304-.055.312-.24-.053-.058-.109-.1-.172-.081zm6.04.309c-1.205-.68-3.242-1.189-4.523-.551-1.033.514-2.431 1.367-2.909 2.445.443 1.041-.133 1.995-.169 3.054-.019.564.264 1.054.288 1.666-.154.25-.619.282-.941.263-.108-.543-.299-1.151-.856-1.212-.79-.087-1.369.567-1.406 1.249-.042.804.618 2.135 1.554 2.042.362-.036.449-.397.843-.392.214.424-.331.558-.386.864-.016.079.045.385.079.53.169.701.55 1.61.922 2.142.473.677 1.403.78 2.405.846.179-.385.837-.353 1.265-.253-.515-.203-.991-.696-1.387-1.133-.454-.501-.917-1.038-.938-1.692.859 1.191 1.57 2.232 3.134 2.754 1.183.395 2.563-.182 3.472-.82.377-.266.602-.685.869-1.069 1.004-1.442 1.472-3.497 1.368-5.492-.042-.822-.039-1.642-.317-2.195-.288-.577-1.265-1.096-1.836-.572-.106-.561.476-.909 1.157-.709-.486-.627-.998-1.381-1.688-1.771zm2.243 18.548c.941-.466 2.701-1.257 3.29 0 .216.464.473 1.25.586 1.729.159.677-.171 2.098-.869 2.324-.616.201-1.332.187-2.071.04a1.1 1.1 0 0 1-.251-.33c-.529-.021-1.023.029-1.44.246.039.39-.225.453-.473.532-.185.727.367 1.678.235 2.343-.095.471-.677.545-1.105.635-.013.263.019.482.048.703-.098.361-.536.567-.954.617-1.369.163-3.445.237-4.764-.235-.367-.901-.658-1.995-.961-3.022-1.285.137-2.323-.554-3.301-1.007-.338-.158-.808-.242-.935-.514-.121-.261-.071-.761-.103-1.233-.077-1.207-.143-2.369-.462-3.605-.143-.553-.394-1.043-.568-1.578-.162-.496-.442-1.107-.516-1.6-.108-.732.582-.772 1.023-1.088.682-.49 1.218-.762 1.955-1.205.219-.131.877-.463.954-.616.148-.303-.256-.73-.365-.967a2.9 2.9 0 0 1-.285-1.065 2.05 2.05 0 0 1-1.371-.88c-.471-.688-.796-1.958-.389-2.925.032-.076.191-.227.214-.343.045-.229-.087-.537-.095-.782-.042-1.257.214-2.34 1.06-2.717.343-1.368 1.574-1.824 2.734-2.504.434-.252.912-.416 1.406-.598 1.77-.651 4.486-.527 5.955.583.624.471 1.62 1.465 1.974 2.184.941 1.9.875 5.073.217 7.384-.09.311-.217.767-.397 1.138-.124.261-.512.78-.465 1.01.048.237.886.872 1.065 1.043.323.311.936.725.986 1.117.053.419-.185.991-.304 1.394-.402 1.347-.795 2.591-1.252 3.79z" clip-rule="evenodd"></path><path fill="#F7E4CD" fill-rule="evenodd" d="M914.938 185.851c.051-.069.333-.171.724.018 0 0-.465.077-.428.854l-.193-.039s-.2-.704-.103-.833" clip-rule="evenodd"></path><path fill="#1D1919" fill-rule="evenodd" d="M918.339 192.51a.213.213 0 0 1-.214.213.213.213 0 1 1 0-.427c.119 0 .214.095.214.214M918.553 193.501a.213.213 0 0 1-.214.213.213.213 0 1 1 0-.427c.119 0 .214.095.214.214" clip-rule="evenodd"></path></g><mask id="i" width="24" height="24" x="866" y="217" maskUnits="userSpaceOnUse" style="mask-type:luminance"><path fill="#fff" d="M889.45 217.628h-23v23h23z"></path></mask><g mask="url(#i)"><path fill="#171716" d="M877.948 217.628c-6.349 0-11.498 5.28-11.498 11.79 0 5.21 3.294 9.629 7.863 11.189.575.109.786-.256.786-.566 0-.281-.01-1.21-.016-2.195-3.198.713-3.875-1.392-3.875-1.392-.523-1.361-1.276-1.725-1.276-1.725-1.045-.731.078-.715.078-.715 1.154.083 1.763 1.215 1.763 1.215 1.026 1.802 2.691 1.282 3.347.98.104-.761.401-1.282.729-1.576-2.555-.299-5.24-1.308-5.24-5.826 0-1.288.448-2.34 1.185-3.165-.12-.296-.513-1.495.112-3.119 0 0 .966-.318 3.164 1.21a10.8 10.8 0 0 1 2.878-.398 10.8 10.8 0 0 1 2.881.398c2.195-1.525 3.159-1.21 3.159-1.21.625 1.624.232 2.823.112 3.119.737.825 1.183 1.877 1.183 3.165 0 4.528-2.691 5.525-5.251 5.818.411.366.779 1.084.779 2.185 0 1.578-.013 2.846-.013 3.236 0 .313.205.681.789.566 4.565-1.559 7.857-5.979 7.857-11.186.006-6.518-5.143-11.798-11.496-11.798m-7.193 16.797c-.026.059-.115.077-.198.035-.083-.038-.13-.118-.104-.177.026-.061.114-.077.198-.037.083.037.13.12.101.179zm.565.518c-.055.053-.161.027-.234-.053-.076-.083-.089-.193-.034-.246.057-.053.161-.027.237.053.075.083.091.193.034.246zm.388.662c-.07.051-.185.003-.258-.101-.07-.104-.07-.23 0-.281.071-.05.185-.005.258.099.07.107.07.233 0 .283m.656.767c-.062.072-.197.053-.294-.046-.101-.096-.127-.229-.065-.301.063-.073.198-.051.297.045s.13.23.062.302m.849.259c-.028.093-.156.133-.286.096-.13-.04-.216-.15-.19-.243.026-.094.156-.136.289-.094.13.04.216.147.187.241m.967.109c.002.096-.107.179-.245.179-.138.003-.247-.075-.25-.171 0-.099.107-.179.245-.181.135-.003.247.074.247.171zm.948-.037c.015.096-.078.192-.214.219-.133.024-.258-.035-.273-.128-.016-.097.08-.195.213-.219.136-.024.258.032.276.128z"></path></g><mask id="j" width="16" height="25" x="870" y="177" maskUnits="userSpaceOnUse" style="mask-type:luminance"><path fill="#fff" d="M885.447 177.628h-15v24h15z"></path></mask><g mask="url(#j)"><path fill="#231F20" d="M882.268 190.91c-.948 0-1.797.414-2.379 1.065l-1.49-1.04c.158-.429.249-.89.249-1.373 0-.474-.088-.927-.241-1.35l1.487-1.029a3.18 3.18 0 0 0 2.374 1.059c1.749 0 3.172-1.402 3.172-3.126s-1.423-3.126-3.172-3.126-3.172 1.403-3.172 3.126c0 .309.048.606.132.888l-1.488 1.03a4.1 4.1 0 0 0-2.536-1.453v-1.768c1.436-.297 2.519-1.555 2.519-3.059 0-1.723-1.423-3.126-3.172-3.126-1.748 0-3.171 1.403-3.171 3.126 0 1.483 1.054 2.726 2.462 3.045v1.79c-1.921.333-3.387 1.986-3.387 3.973 0 1.998 1.48 3.656 3.415 3.977v1.891c-1.422.308-2.49 1.559-2.49 3.052 0 1.724 1.423 3.126 3.171 3.126 1.749 0 3.172-1.402 3.172-3.126 0-1.493-1.068-2.744-2.491-3.052v-1.891a4.1 4.1 0 0 0 2.494-1.429l1.5 1.047a3 3 0 0 0-.13.879c0 1.724 1.423 3.126 3.172 3.126s3.172-1.402 3.172-3.126-1.423-3.126-3.172-3.126m0-7.309c.848 0 1.538.68 1.538 1.515 0 .836-.69 1.516-1.538 1.516s-1.538-.68-1.538-1.516c0-.835.69-1.515 1.538-1.515m-9.254-2.847c0-.835.689-1.515 1.537-1.515s1.538.68 1.538 1.515c0 .836-.69 1.516-1.538 1.516s-1.537-.68-1.537-1.516m3.075 17.728c0 .835-.69 1.515-1.538 1.515s-1.537-.68-1.537-1.515c0-.836.689-1.516 1.537-1.516s1.538.68 1.538 1.516m-1.538-6.806c-1.183 0-2.145-.948-2.145-2.114s.962-2.114 2.145-2.114 2.145.949 2.145 2.114-.962 2.114-2.145 2.114m7.717 3.876c-.848 0-1.538-.68-1.538-1.516s.69-1.516 1.538-1.516 1.538.68 1.538 1.516-.69 1.516-1.538 1.516"></path></g><path fill="#424141" d="M754.751 194.775v-8.727h3.11q1.015 0 1.684.349.673.35 1.005.968.333.613.333 1.419 0 .801-.337 1.41a2.26 2.26 0 0 1-1.006.942q-.669.337-1.683.337h-2.356v-1.134h2.237q.64 0 1.04-.183.405-.183.592-.533t.187-.839q0-.495-.191-.857a1.24 1.24 0 0 0-.593-.554q-.4-.195-1.052-.196h-1.654v7.598zm4.308-3.937 2.156 3.937h-1.5l-2.113-3.937zm6.063 4.069q-.968 0-1.666-.413a2.8 2.8 0 0 1-1.074-1.172q-.375-.759-.375-1.777 0-1.005.375-1.773.38-.766 1.057-1.197.681-.43 1.593-.431.555 0 1.074.184.52.183.933.575t.652 1.018q.239.623.239 1.513v.452h-5.203v-.955h3.954q0-.503-.204-.89a1.54 1.54 0 0 0-.575-.618 1.6 1.6 0 0 0-.861-.226q-.537 0-.938.264a1.8 1.8 0 0 0-.613.682 2 2 0 0 0-.213.908v.745q0 .657.23 1.117.234.46.652.703.417.239.976.239.361 0 .66-.103a1.368 1.368 0 0 0 .848-.831l1.206.218q-.145.532-.52.933-.37.396-.933.618a3.5 3.5 0 0 1-1.274.217m7.277-6.677v1.022h-3.575v-1.022zm-2.616-1.568h1.274v6.191q0 .371.111.559a.57.57 0 0 0 .285.251q.179.064.388.064.154 0 .268-.021l.179-.035.23 1.053a2 2 0 0 1-.315.085 2.4 2.4 0 0 1-.511.051 2.24 2.24 0 0 1-.938-.179 1.6 1.6 0 0 1-.703-.579q-.268-.392-.268-.984zm4.026 8.113v-6.545h1.231v1.039h.068q.18-.528.631-.83a1.8 1.8 0 0 1 1.031-.307q.12 0 .281.008.167.009.26.022v1.218a2 2 0 0 0-.272-.047 3 3 0 0 0-.392-.029q-.453 0-.806.191-.349.188-.554.524a1.4 1.4 0 0 0-.204.759v3.997zm4.605 0v-6.545h1.274v6.545zm.643-7.555a.8.8 0 0 1-.571-.222.72.72 0 0 1-.234-.537q0-.315.234-.537.24-.225.571-.226.333 0 .567.226a.7.7 0 0 1 .239.537q0 .312-.239.537a.8.8 0 0 1-.567.222m5.166 7.687q-.967 0-1.666-.413a2.8 2.8 0 0 1-1.074-1.172q-.375-.759-.375-1.777 0-1.005.375-1.773.38-.766 1.057-1.197.682-.43 1.594-.431.553 0 1.074.184.519.183.933.575t.652 1.018q.239.623.239 1.513v.452h-5.204v-.955h3.955a1.9 1.9 0 0 0-.205-.89 1.54 1.54 0 0 0-.575-.618 1.6 1.6 0 0 0-.861-.226q-.537 0-.937.264a1.8 1.8 0 0 0-.614.682 2 2 0 0 0-.213.908v.745q0 .657.23 1.117.235.46.652.703.418.239.976.239.363 0 .661-.103.297-.106.515-.315a1.4 1.4 0 0 0 .333-.516l1.206.218q-.145.532-.52.933-.371.396-.934.618a3.5 3.5 0 0 1-1.274.217m9.634-6.677-2.373 6.545h-1.364l-2.378-6.545h1.368l1.658 5.037h.068l1.653-5.037zm3.796 6.677q-.967 0-1.666-.413a2.8 2.8 0 0 1-1.074-1.172q-.375-.759-.375-1.777 0-1.005.375-1.773.38-.766 1.057-1.197.681-.43 1.594-.431.554 0 1.073.184.52.183.934.575.413.392.652 1.018.238.623.238 1.513v.452h-5.203v-.955h3.955q0-.503-.205-.89a1.54 1.54 0 0 0-.575-.618 1.6 1.6 0 0 0-.861-.226q-.537 0-.937.264a1.8 1.8 0 0 0-.614.682 2 2 0 0 0-.213.908v.745q0 .657.23 1.117.234.46.652.703.418.239.976.239.361 0 .66-.103a1.356 1.356 0 0 0 .848-.831l1.206.218q-.145.532-.52.933-.37.396-.933.618a3.5 3.5 0 0 1-1.274.217m9.848-.004q-.792 0-1.415-.405-.618-.409-.971-1.163-.35-.758-.35-1.82 0-1.06.354-1.815.358-.755.98-1.155a2.55 2.55 0 0 1 1.411-.401q.61 0 .98.205.375.2.579.469.208.268.324.473h.077v-3.243h1.274v8.727H809.5v-1.018h-.107a3.4 3.4 0 0 1-.332.477 1.9 1.9 0 0 1-.588.469q-.375.2-.972.2m.281-1.087q.55 0 .929-.289.384-.294.58-.814.2-.52.2-1.211 0-.681-.196-1.193a1.76 1.76 0 0 0-.575-.797q-.38-.285-.938-.285-.575 0-.959.298a1.83 1.83 0 0 0-.579.814 3.3 3.3 0 0 0-.192 1.163q0 .656.196 1.181.196.524.58.831.387.302.954.302m6.685 1.104q-.621 0-1.125-.23a1.9 1.9 0 0 1-.797-.678q-.29-.442-.289-1.086 0-.555.213-.912.213-.358.575-.567t.81-.315q.447-.107.912-.162l.954-.111q.366-.047.533-.149.166-.102.166-.333v-.029q0-.56-.315-.865-.312-.307-.929-.307-.643 0-1.015.285a1.54 1.54 0 0 0-.507.627l-1.197-.273q.213-.597.622-.963a2.5 2.5 0 0 1 .95-.537 3.7 3.7 0 0 1 1.13-.171q.392 0 .831.094.443.09.826.333.388.243.635.694.247.448.247 1.164v4.346h-1.244v-.895h-.051a1.8 1.8 0 0 1-.371.486 2 2 0 0 1-.635.396 2.4 2.4 0 0 1-.929.158m.277-1.023q.53 0 .904-.208.379-.21.575-.546.2-.34.2-.729v-.843a.65.65 0 0 1-.264.127q-.192.056-.439.098l-.481.073-.392.051a3 3 0 0 0-.678.158q-.303.11-.486.319-.179.205-.179.546 0 .473.35.716.349.238.89.238m7.706-5.667v1.022h-3.575v-1.022zm-2.617-1.568h1.275v6.191q0 .371.11.559a.57.57 0 0 0 .286.251q.178.064.388.064.153 0 .268-.021l.179-.035.23 1.053a2 2 0 0 1-.315.085 2.4 2.4 0 0 1-.511.051 2.2 2.2 0 0 1-.938-.179 1.6 1.6 0 0 1-.703-.579q-.269-.392-.269-.984zm5.931 8.258q-.623 0-1.125-.23a1.9 1.9 0 0 1-.797-.678q-.29-.442-.289-1.086 0-.555.213-.912.212-.358.575-.567.362-.209.81-.315.447-.107.911-.162l.955-.111q.366-.047.533-.149.166-.102.166-.333v-.029q0-.56-.315-.865-.312-.307-.929-.307-.643 0-1.015.285a1.54 1.54 0 0 0-.507.627l-1.197-.273q.213-.597.622-.963a2.5 2.5 0 0 1 .95-.537 3.7 3.7 0 0 1 1.13-.171q.392 0 .83.094.444.09.827.333.388.243.635.694.247.448.247 1.164v4.346h-1.244v-.895h-.051a1.8 1.8 0 0 1-.371.486 2 2 0 0 1-.635.396 2.4 2.4 0 0 1-.929.158m.277-1.023q.528 0 .904-.208.378-.21.575-.546.2-.34.2-.729v-.843a.65.65 0 0 1-.264.127q-.192.056-.439.098l-.482.073-.392.051a3 3 0 0 0-.677.158q-.303.11-.486.319-.179.205-.179.546 0 .473.35.716.348.238.89.238M298.509 290.034v-8.727h3.11q1.019 0 1.688.37.67.371 1.001 1.015.333.639.333 1.44 0 .805-.337 1.449a2.44 2.44 0 0 1-1.006 1.014q-.669.37-1.683.371h-2.139v-1.117h2.02q.644 0 1.044-.221.4-.226.588-.614.187-.389.187-.882 0-.494-.187-.878a1.35 1.35 0 0 0-.592-.601q-.402-.217-1.057-.217h-1.654v7.598zm9.419.145q-.621 0-1.125-.23a1.9 1.9 0 0 1-.797-.678q-.29-.443-.289-1.087 0-.554.213-.911.213-.358.575-.567.361-.209.81-.316.447-.106.912-.162l.954-.11q.366-.048.533-.149.166-.103.166-.333v-.03q0-.558-.315-.865-.312-.307-.929-.307-.643 0-1.015.286a1.53 1.53 0 0 0-.507.626l-1.197-.272q.213-.597.622-.963.413-.372.95-.537a3.7 3.7 0 0 1 1.13-.171q.392 0 .831.094.443.09.826.332.388.243.635.695.247.447.247 1.163v4.347h-1.244v-.895h-.051a1.8 1.8 0 0 1-.371.486 2 2 0 0 1-.635.396 2.5 2.5 0 0 1-.929.158m.277-1.023q.53 0 .904-.209.379-.209.575-.545.2-.341.2-.729v-.844q-.067.069-.264.128-.192.056-.439.098l-.481.073-.392.051a3.2 3.2 0 0 0-.678.157 1.17 1.17 0 0 0-.486.32q-.179.204-.179.545 0 .473.35.716.349.239.89.239m4.65.878v-6.546h1.232v1.04h.068q.18-.528.631-.831a1.8 1.8 0 0 1 1.031-.307 5 5 0 0 1 .541.03v1.219a2 2 0 0 0-.272-.047 2.6 2.6 0 0 0-.392-.03q-.453 0-.806.192-.349.188-.554.524a1.4 1.4 0 0 0-.204.759v3.997zm9.511-4.948-1.155.205a1.4 1.4 0 0 0-.23-.422 1.14 1.14 0 0 0-.418-.328 1.5 1.5 0 0 0-.66-.128q-.541 0-.904.243-.362.238-.362.618a.65.65 0 0 0 .243.528q.243.2.784.328l1.04.239q.903.209 1.346.644.444.434.444 1.129 0 .588-.341 1.048-.337.456-.942.716-.601.26-1.394.26-1.098 0-1.794-.469-.695-.473-.852-1.342l1.232-.188q.114.482.473.729.357.243.933.243.627 0 1.001-.26.375-.264.375-.643a.67.67 0 0 0-.23-.516q-.225-.209-.694-.315l-1.108-.243q-.917-.209-1.355-.665-.435-.456-.435-1.155 0-.579.324-1.014t.895-.678q.57-.247 1.308-.247 1.06 0 1.67.46.61.456.806 1.223m1.529 4.948v-6.546h1.274v6.546zm.643-7.556a.8.8 0 0 1-.571-.221.72.72 0 0 1-.234-.537q0-.315.234-.537a.8.8 0 0 1 .571-.226q.333 0 .567.226a.7.7 0 0 1 .238.537.72.72 0 0 1-.238.537.8.8 0 0 1-.567.221m3.619 3.67v3.886h-1.274v-6.546h1.223v1.066h.081q.225-.52.707-.835.486-.316 1.223-.316.67 0 1.172.281.502.278.78.827.277.55.277 1.36v4.163h-1.274v-4.01q0-.712-.371-1.112-.371-.405-1.018-.405-.444 0-.789.192a1.4 1.4 0 0 0-.541.562q-.196.366-.196.887m8.642 6.477q-.78 0-1.342-.205a2.6 2.6 0 0 1-.912-.541 2.3 2.3 0 0 1-.529-.737l1.096-.452q.115.187.306.396.196.213.529.363.336.149.865.149.725 0 1.197-.354.474-.35.473-1.116v-1.287h-.081a3 3 0 0 1-.332.464 1.8 1.8 0 0 1-.588.443q-.375.188-.976.188-.775 0-1.398-.362-.618-.367-.98-1.078-.358-.717-.358-1.76t.354-1.79q.358-.746.98-1.142a2.55 2.55 0 0 1 1.411-.401q.609 0 .984.205.374.2.584.468.213.269.328.473h.094v-1.061h1.248v6.691q0 .843-.392 1.385-.392.54-1.061.801-.664.26-1.5.26m-.013-3.746q.55 0 .929-.256a1.6 1.6 0 0 0 .58-.741q.2-.486.2-1.163 0-.661-.196-1.164a1.73 1.73 0 0 0-.575-.784q-.38-.285-.938-.285-.575 0-.959.298a1.8 1.8 0 0 0-.579.801 3.2 3.2 0 0 0-.192 1.134q0 .643.196 1.129t.58.758q.387.273.954.273m10.391 1.278q-.879 0-1.513-.319a2.37 2.37 0 0 1-.972-.869 2.35 2.35 0 0 1-.341-1.253q0-.533.222-.946.222-.418.618-.772.396-.353.916-.711l1.406-.993q.358-.234.558-.495.201-.264.201-.651 0-.307-.265-.589-.264-.28-.707-.281a1 1 0 0 0-.541.149 1.1 1.1 0 0 0-.362.384 1 1 0 0 0-.128.486q0 .298.162.601.166.302.426.626.26.32.545.665l4.053 4.845h-1.44l-3.354-3.942a99 99 0 0 1-.784-.937 4.8 4.8 0 0 1-.588-.895 2.2 2.2 0 0 1-.222-.985q0-.6.273-1.065.277-.469.771-.733.495-.264 1.159-.264.673 0 1.155.264.486.26.746.695.264.43.264.941 0 .623-.311 1.1a3.4 3.4 0 0 1-.848.869l-1.751 1.291q-.512.375-.712.742-.196.361-.196.567 0 .375.192.694.195.32.545.512.353.19.827.191.486 0 .946-.208a2.7 2.7 0 0 0 .839-.61q.38-.396.601-.95.222-.554.222-1.24h1.15q0 .843-.191 1.427a3.3 3.3 0 0 1-.972 1.513 4 4 0 0 0-.145.137q-.068.067-.145.136a2.7 2.7 0 0 1-1.074.66 3.8 3.8 0 0 1-1.235.213m12.598-2.838v-3.831h1.279v6.546h-1.253V288.9h-.068q-.226.525-.725.874-.494.345-1.231.345-.631 0-1.117-.277a1.94 1.94 0 0 1-.758-.831q-.273-.549-.273-1.359v-4.164h1.274v4.01q0 .669.371 1.066.37.396.963.396.358 0 .712-.179.358-.179.592-.541.238-.362.234-.921m2.991 5.169v-9h1.244v1.061h.107a3.5 3.5 0 0 1 .319-.473q.208-.268.58-.468.37-.205.98-.205.792 0 1.415.401.622.4.975 1.155.358.754.358 1.815t-.353 1.82q-.354.753-.972 1.163-.618.405-1.41.405-.597 0-.976-.201a1.8 1.8 0 0 1-.588-.468 3.4 3.4 0 0 1-.328-.478h-.077v3.473zm1.248-5.727q0 .69.201 1.21.2.52.579.814.38.29.929.29.571 0 .955-.302a1.9 1.9 0 0 0 .579-.831q.2-.524.2-1.181 0-.647-.196-1.163a1.8 1.8 0 0 0-.579-.814q-.383-.298-.959-.298-.554 0-.937.285-.38.285-.576.797a3.3 3.3 0 0 0-.196 1.193m8.608 3.401q-.792 0-1.415-.405-.618-.41-.971-1.163-.35-.76-.35-1.82t.354-1.815q.358-.754.98-1.155a2.55 2.55 0 0 1 1.411-.401q.61 0 .98.205.375.2.579.468.21.269.324.473h.077v-3.242h1.274v8.727h-1.244v-1.019h-.107q-.114.21-.332.478a1.8 1.8 0 0 1-.588.468q-.375.201-.972.201m.281-1.087q.55 0 .929-.29.384-.294.58-.814.2-.52.2-1.21 0-.681-.196-1.193a1.74 1.74 0 0 0-.575-.797q-.379-.285-.938-.285-.575 0-.958.298-.384.298-.58.814a3.3 3.3 0 0 0-.192 1.163q0 .656.196 1.181.196.524.58.831.388.302.954.302m6.685 1.104q-.621 0-1.125-.23a1.9 1.9 0 0 1-.796-.678q-.29-.443-.29-1.087 0-.554.213-.911.213-.358.575-.567.363-.209.81-.316.447-.106.912-.162l.954-.11q.367-.048.533-.149.166-.103.166-.333v-.03q0-.558-.315-.865-.312-.307-.929-.307-.643 0-1.014.286-.368.28-.507.626l-1.198-.272q.213-.597.622-.963.414-.372.951-.537a3.7 3.7 0 0 1 1.129-.171q.392 0 .831.094.443.09.826.332.389.243.635.695.248.447.248 1.163v4.347h-1.245v-.895h-.051a1.8 1.8 0 0 1-.371.486 2 2 0 0 1-.635.396 2.5 2.5 0 0 1-.929.158m.277-1.023q.53 0 .904-.209.379-.209.575-.545.2-.341.2-.729v-.844q-.067.069-.264.128-.192.056-.439.098-.247.039-.481.073l-.392.051a3.2 3.2 0 0 0-.678.157 1.2 1.2 0 0 0-.486.32q-.179.204-.179.545 0 .473.35.716.35.239.89.239m7.706-5.668v1.023h-3.575v-1.023zm-2.616-1.568h1.274v6.192q0 .37.111.558a.58.58 0 0 0 .285.252q.179.063.388.064.154 0 .268-.022l.179-.034.23 1.053a2.523 2.523 0 0 1-.826.136 2.2 2.2 0 0 1-.938-.179 1.6 1.6 0 0 1-.703-.579q-.268-.393-.268-.985zm4.025 8.114v-6.546h1.275v6.546zm.644-7.556a.8.8 0 0 1-.571-.221.72.72 0 0 1-.234-.537q0-.315.234-.537a.8.8 0 0 1 .571-.226q.332 0 .567.226a.7.7 0 0 1 .238.537.72.72 0 0 1-.238.537.8.8 0 0 1-.567.221m3.619 3.67v3.886h-1.274v-6.546h1.223v1.066h.081q.225-.52.707-.835.486-.316 1.223-.316.67 0 1.172.281.502.278.78.827.277.55.277 1.36v4.163h-1.274v-4.01q0-.712-.371-1.112-.37-.405-1.019-.405-.443 0-.788.192a1.37 1.37 0 0 0-.541.562q-.196.366-.196.887m8.642 6.477q-.78 0-1.342-.205a2.6 2.6 0 0 1-.912-.541 2.3 2.3 0 0 1-.529-.737l1.095-.452q.115.187.307.396.196.213.529.363.336.149.865.149.725 0 1.197-.354.474-.35.473-1.116v-1.287h-.081a3 3 0 0 1-.332.464 1.8 1.8 0 0 1-.588.443q-.375.188-.976.188-.775 0-1.398-.362-.617-.367-.98-1.078-.358-.717-.358-1.76t.354-1.79q.357-.746.98-1.142a2.55 2.55 0 0 1 1.41-.401q.61 0 .985.205.374.2.584.468.213.269.328.473h.094v-1.061h1.248v6.691q0 .843-.392 1.385-.392.54-1.061.801-.664.26-1.5.26m-.013-3.746q.55 0 .929-.256a1.6 1.6 0 0 0 .58-.741q.2-.486.2-1.163 0-.661-.196-1.164a1.73 1.73 0 0 0-.575-.784q-.38-.285-.938-.285-.575 0-.959.298a1.8 1.8 0 0 0-.579.801 3.2 3.2 0 0 0-.192 1.134q0 .643.196 1.129t.58.758q.387.273.954.273m-119.345 16.155v-6.546h1.232v1.04h.068q.179-.528.631-.831a1.8 1.8 0 0 1 1.031-.307 5 5 0 0 1 .541.03v1.219a2 2 0 0 0-.273-.047q-.195-.03-.392-.03a1.66 1.66 0 0 0-.805.192 1.43 1.43 0 0 0-.758 1.283v3.997zm7.192.132q-.967 0-1.666-.413a2.8 2.8 0 0 1-1.074-1.172q-.375-.759-.375-1.777 0-1.006.375-1.773a2.9 2.9 0 0 1 1.057-1.197q.682-.43 1.594-.431.553 0 1.074.183.52.184.933.576t.652 1.018q.239.622.239 1.513v.452h-5.203v-.955h3.954q0-.502-.204-.891a1.55 1.55 0 0 0-.576-.617 1.6 1.6 0 0 0-.86-.226q-.537 0-.938.264a1.8 1.8 0 0 0-.614.682 2 2 0 0 0-.213.907v.746q0 .657.23 1.117.235.46.652.703.418.238.976.238.363 0 .661-.102.299-.107.515-.315a1.4 1.4 0 0 0 .333-.516l1.206.218q-.145.533-.52.933-.37.396-.933.618a3.5 3.5 0 0 1-1.275.217m5.497-8.859v8.727h-1.275v-8.727zm4.535 8.859q-.968 0-1.666-.413a2.8 2.8 0 0 1-1.074-1.172q-.375-.759-.375-1.777 0-1.006.375-1.773.38-.767 1.056-1.197.682-.43 1.594-.431.555 0 1.074.183.52.184.933.576t.652 1.018q.239.622.239 1.513v.452h-5.203v-.955h3.954q0-.502-.204-.891a1.55 1.55 0 0 0-.575-.617 1.6 1.6 0 0 0-.861-.226q-.537 0-.938.264a1.8 1.8 0 0 0-.613.682 2 2 0 0 0-.213.907v.746q0 .657.23 1.117.234.46.652.703.417.238.976.238.361 0 .66-.102a1.368 1.368 0 0 0 .848-.831l1.206.218q-.145.533-.52.933-.37.396-.933.618a3.5 3.5 0 0 1-1.274.217m9.634-6.678-2.374 6.546h-1.364l-2.377-6.546h1.367l1.658 5.037h.068l1.654-5.037zm2.914 6.691q-.621 0-1.125-.23a1.9 1.9 0 0 1-.796-.678q-.29-.443-.29-1.087 0-.554.213-.911.213-.358.575-.567t.81-.316q.447-.106.912-.162l.954-.11q.367-.048.533-.149.166-.103.166-.333v-.03q0-.558-.315-.865-.312-.307-.929-.307-.643 0-1.014.286a1.5 1.5 0 0 0-.508.626l-1.197-.272q.213-.597.622-.963.414-.372.95-.537a3.7 3.7 0 0 1 1.13-.171q.392 0 .831.094.443.09.826.332.389.243.635.695.248.447.248 1.163v4.347h-1.245v-.895h-.051a1.8 1.8 0 0 1-.371.486 2 2 0 0 1-.635.396 2.5 2.5 0 0 1-.929.158m.277-1.023q.53 0 .904-.209.379-.209.575-.545.2-.341.2-.729v-.844q-.067.069-.264.128-.192.056-.439.098l-.481.073-.392.051a3.2 3.2 0 0 0-.678.157 1.17 1.17 0 0 0-.486.32q-.179.204-.179.545 0 .473.35.716.35.239.89.239m5.925-3.008v3.886h-1.274v-6.546h1.223v1.066h.081q.225-.52.707-.835.486-.316 1.223-.316.67 0 1.172.281.502.278.78.827.276.55.277 1.36v4.163h-1.274v-4.01q0-.712-.371-1.112-.37-.405-1.019-.405-.443 0-.788.192a1.37 1.37 0 0 0-.541.562q-.196.366-.196.887m8.953-2.66v1.023h-3.575v-1.023zm-2.617-1.568h1.275v6.192q0 .37.11.558a.58.58 0 0 0 .286.252q.178.063.388.064.153 0 .268-.022l.179-.034.23 1.053a2.534 2.534 0 0 1-.827.136 2.2 2.2 0 0 1-.937-.179 1.6 1.6 0 0 1-.703-.579q-.269-.393-.269-.985zm10.023 8.246q-.967 0-1.666-.413a2.8 2.8 0 0 1-1.074-1.172q-.375-.759-.375-1.777 0-1.006.375-1.773.38-.767 1.057-1.197.682-.43 1.594-.431.554 0 1.073.183.52.184.934.576.413.392.652 1.018.238.622.238 1.513v.452h-5.203v-.955h3.955q0-.502-.205-.891a1.54 1.54 0 0 0-.575-.617 1.6 1.6 0 0 0-.861-.226q-.537 0-.937.264a1.77 1.77 0 0 0-.614.682 2 2 0 0 0-.213.907v.746q0 .657.23 1.117.235.46.652.703.418.238.976.238.362 0 .66-.102a1.356 1.356 0 0 0 .848-.831l1.206.218q-.144.533-.52.933-.37.396-.933.618a3.5 3.5 0 0 1-1.274.217m5.496-4.018v3.886h-1.274v-6.546h1.223v1.066h.081q.226-.52.707-.835.486-.316 1.223-.316.67 0 1.172.281.503.278.78.827.277.55.277 1.36v4.163h-1.274v-4.01q0-.712-.371-1.112-.37-.405-1.018-.405-.443 0-.789.192a1.4 1.4 0 0 0-.541.562q-.196.366-.196.887m8.953-2.66v1.023h-3.575v-1.023zm-2.616-1.568h1.274v6.192q0 .37.111.558a.6.6 0 0 0 .285.252q.18.063.388.064.153 0 .269-.022l.179-.034.23 1.053a2.523 2.523 0 0 1-.827.136 2.24 2.24 0 0 1-.938-.179 1.6 1.6 0 0 1-.703-.579q-.268-.393-.268-.985zm4.026 8.114v-6.546h1.274v6.546zm.643-7.556a.8.8 0 0 1-.571-.221.72.72 0 0 1-.234-.537q0-.315.234-.537a.8.8 0 0 1 .571-.226q.333 0 .567.226a.7.7 0 0 1 .239.537q0 .31-.239.537a.8.8 0 0 1-.567.221m5.4 1.01v1.023h-3.575v-1.023zm-2.616-1.568h1.274v6.192q0 .37.111.558a.6.6 0 0 0 .285.252q.18.063.388.064.153 0 .269-.022l.179-.034.23 1.053a2.516 2.516 0 0 1-.827.136 2.2 2.2 0 0 1-.937-.179 1.6 1.6 0 0 1-.704-.579q-.268-.393-.268-.985zm4.026 8.114v-6.546h1.274v6.546zm.643-7.556a.8.8 0 0 1-.571-.221.72.72 0 0 1-.234-.537q0-.315.234-.537a.8.8 0 0 1 .571-.226q.333 0 .567.226a.7.7 0 0 1 .239.537q0 .31-.239.537a.8.8 0 0 1-.567.221m5.166 7.688q-.967 0-1.666-.413a2.8 2.8 0 0 1-1.074-1.172q-.375-.759-.375-1.777 0-1.006.375-1.773.38-.767 1.057-1.197.682-.43 1.594-.431.554 0 1.074.183.519.184.933.576.413.392.652 1.018.238.622.238 1.513v.452h-5.203v-.955h3.955q0-.502-.205-.891a1.54 1.54 0 0 0-.575-.617 1.6 1.6 0 0 0-.861-.226q-.537 0-.937.264a1.8 1.8 0 0 0-.614.682 2 2 0 0 0-.213.907v.746q0 .657.23 1.117.235.46.652.703.418.238.976.238.362 0 .661-.102.297-.107.515-.315a1.4 1.4 0 0 0 .333-.516l1.205.218a2.2 2.2 0 0 1-.519.933q-.372.396-.934.618a3.5 3.5 0 0 1-1.274.217m9.127-5.08-1.155.205a1.4 1.4 0 0 0-.23-.422 1.1 1.1 0 0 0-.418-.328 1.5 1.5 0 0 0-.66-.128q-.541 0-.903.243-.363.238-.363.618a.65.65 0 0 0 .243.528q.243.2.784.328l1.04.239q.903.209 1.347.644.443.434.443 1.129 0 .588-.341 1.048-.337.456-.942.716-.6.26-1.393.26-1.1 0-1.794-.469-.695-.473-.853-1.342l1.232-.188q.115.482.473.729.358.243.933.243.627 0 1.002-.26.375-.264.375-.643a.67.67 0 0 0-.231-.516q-.226-.209-.694-.315l-1.108-.243q-.917-.209-1.355-.665-.435-.456-.435-1.155 0-.579.324-1.014t.895-.678a3.3 3.3 0 0 1 1.308-.247q1.061 0 1.671.46.609.456.805 1.223M450.23 293.021a.7.7 0 0 1-.522-.216.76.76 0 0 1-.207-.549.75.75 0 0 1 .207-.54.7.7 0 0 1 .522-.216h.207q.315 0 .522.216a.75.75 0 0 1 .207.54.76.76 0 0 1-.207.549.7.7 0 0 1-.522.216zm4.424.9h-1.017l3.168-8.46h1.017zm7.188-6.741a.65.65 0 0 1-.45-.153.53.53 0 0 1-.162-.405q0-.261.162-.414a.63.63 0 0 1 .45-.162h.18q.27 0 .441.162a.55.55 0 0 1 .171.414.52.52 0 0 1-.171.405.65.65 0 0 1-.45.153zm-2.664 7.371v-.9h1.242q.504 0 .774-.27.279-.27.279-.765v-3.744h-2.025v-.891h2.997v4.644q0 .882-.54 1.404t-1.458.522zm8.321-6.57h.963v6.57h-.972v-1.413l.027-1.152h-.036q-.072.477-.423.756t-.9.279q-.747 0-1.188-.504-.432-.504-.432-1.368v-1.395q0-.855.432-1.359.441-.504 1.188-.504.558 0 .9.279.351.27.423.756h.018zm-.999 4.194q.459 0 .72-.279.27-.288.27-.792v-1.296q0-.504-.27-.783-.261-.288-.72-.288-.477 0-.738.279-.252.27-.252.792v1.296q0 .522.252.801.261.27.738.27"></path><path fill="#000" d="M60.79 216.306c-1.547-2.674-3.93-4.591-6.712-5.5a7.315 7.315 0 0 0 .691-12.1 7.316 7.316 0 0 0-8.864 0 7.315 7.315 0 0 0-2.352 8.547 7.3 7.3 0 0 0 3.043 3.553c-2.781.908-5.165 2.825-6.712 5.5a.82.82 0 0 0-.095.625.8.8 0 0 0 .381.504.8.8 0 0 0 .627.078.8.8 0 0 0 .494-.394c1.913-3.307 5.295-5.281 9.046-5.281s7.133 1.974 9.046 5.281a.82.82 0 0 0 .494.394q.157.045.321.024a.81.81 0 0 0 .702-.928.8.8 0 0 0-.11-.303m-16.14-11.781a5.69 5.69 0 0 1 3.51-5.254 5.687 5.687 0 1 1-3.51 5.254"></path><path fill="#FF6F55" d="M526.922 291.034a6 6 0 1 0 0-12 6 6 0 0 0 0 12"></path><path fill="#fff" d="M526.678 288.097q-.621 0-1.125-.279a2.4 2.4 0 0 1-.837-.819l.54-.603q.423.468.738.639t.684.171.666-.162.468-.441q.18-.279.18-.621 0-.36-.171-.639a1.2 1.2 0 0 0-.441-.45 1.2 1.2 0 0 0-.63-.171q-.171 0-.324.027a1.6 1.6 0 0 0-.369.099 7 7 0 0 0-.567.252l-.513-.693.369-2.673h3.402v.9h-2.628l-.207 1.395q.207-.09.486-.144.279-.063.522-.063.576 0 1.026.27.459.261.72.729.27.468.27 1.071 0 .621-.297 1.125a2.23 2.23 0 0 1-.81.792 2.3 2.3 0 0 1-1.152.288"></path><path fill="#FF6F55" d="M87.666 182.775a6 6 0 1 0 0-12 6 6 0 0 0 0 12"></path><path fill="#fff" d="M86.37 179.775v-.936h.999v-4.185l-.909.477-.261-.846 1.683-.9h.468v5.454h1.026v.936z"></path><path fill="#FF6F55" d="M526.922 121.839a6 6 0 1 0 0-12 6 6 0 0 0 0 12"></path><path fill="#fff" d="M526.799 118.929q-.666 0-1.161-.306-.486-.306-.918-1.026l.756-.477q.333.504.666.729.342.225.729.225.315 0 .585-.153a1.22 1.22 0 0 0 .594-1.071q0-.531-.288-.819-.279-.288-.783-.288-.423 0-1.089.27l-.27-.711 1.692-1.863h-2.241v-.9h3.609l.18.36-1.764 1.953q.531 0 .954.261.432.261.684.702t.252.981q0 .612-.297 1.098-.288.477-.783.756t-1.107.279"></path><path fill="#FF6F55" d="M310.053 196.75a6 6 0 1 0 0-12 6 6 0 0 0 0 12"></path><path fill="#fff" d="m308.425 193.75-.297-.738 1.926-2.169q.198-.225.423-.513.234-.288.396-.594t.162-.567q0-.432-.252-.666-.252-.243-.693-.243-.387 0-.756.342-.369.333-.54.891l-.747-.468q.225-.783.801-1.224.585-.441 1.359-.441.531 0 .945.225.414.216.648.612.234.387.234.9 0 .522-.306 1.107-.297.576-.981 1.323l-1.179 1.287h2.664v.936z"></path><path fill="#FF6F55" d="M288.269 291.034a6 6 0 1 0 0-12 6 6 0 0 0 0 12"></path><path fill="#fff" d="M288.311 288.034q-.621 0-1.116-.288a2.1 2.1 0 0 1-.783-.792 2.26 2.26 0 0 1-.288-1.143q0-.486.27-1.206.279-.72.801-1.593l.819-1.386h.945l.036.09-.99 1.665a7 7 0 0 0-.234.414q.36-.162.765-.162.522 0 .954.288.441.279.702.747.27.468.27 1.026 0 .675-.279 1.206-.27.522-.756.828a2.05 2.05 0 0 1-1.116.306m0-.9q.522 0 .864-.369.351-.369.351-.954 0-.333-.162-.621a1.3 1.3 0 0 0-.432-.477q-.27-.18-.603-.18-.369 0-.657.171a1.2 1.2 0 0 0-.45.459 1.3 1.3 0 0 0-.162.639q0 .378.162.684.162.297.441.477.279.171.648.171"></path><path fill="#FF6F55" d="M743.367 196.75a6 6 0 1 0 0-12 6 6 0 0 0 0 12"></path><path fill="#fff" d="M743.745 193.75v-1.71h-2.484l-.414-.81 3.087-3.78h.747v3.699h1.098v.891h-1.098v1.71zm-1.755-2.601h1.755v-2.142z"></path></g><defs><linearGradient id="d" x1="629.936" x2="652.455" y1="171.544" y2="190.436" gradientUnits="userSpaceOnUse"><stop stop-color="#5A9FD4"></stop><stop offset="1" stop-color="#306998"></stop></linearGradient><linearGradient id="e" x1="655.077" x2="646.937" y1="207.165" y2="195.935" gradientUnits="userSpaceOnUse"><stop stop-color="#FFD43B"></stop><stop offset="1" stop-color="#FFE873"></stop></linearGradient><clipPath id="a"><path fill="#fff" d="M0 0h1000v400H0z"></path></clipPath><clipPath id="b"><path fill="#fff" d="M205.512 183h72.976v24h-72.976z"></path></clipPath><radialGradient id="f" cx="0" cy="0" r="1" gradientTransform="matrix(0 -2.54426 11.01 0 650.003 218.176)" gradientUnits="userSpaceOnUse"><stop stop-color="#B8B8B8" stop-opacity="0.498"></stop><stop offset="1" stop-color="#7F7F7F" stop-opacity="0"></stop></radialGradient></defs></svg>