<svg width="904" height="598" viewBox="0 0 904 598" fill="none" xmlns="http://www.w3.org/2000/svg">
<rect x="765.5" y="249.5" width="79" height="79" rx="15.5" fill="black" fill-opacity="0.25"/>
<rect x="765.5" y="249.5" width="79" height="79" rx="15.5" stroke="#E3E3E3"/>
<path d="M823.045 282.521C823.695 282.121 824.301 281.654 824.853 281.127C824.958 281.025 825.061 280.922 825.162 280.818C825.548 280.424 825.905 280.003 826.228 279.557C826.558 279.103 826.843 278.618 827.078 278.109C827.401 277.414 827.598 276.668 827.663 275.905C827.863 273.298 826.319 270.706 822.875 268.616L809.006 260.2L792.84 275.69L782.315 285.774L796.914 294.634C799.251 296.065 801.937 296.827 804.678 296.839C808.028 296.839 811.238 295.657 813.606 293.386C816.182 290.918 817.037 287.724 815.448 285.07C815.189 284.639 814.883 284.239 814.534 283.877C815.386 284.068 816.257 284.165 817.131 284.166H817.151C818.576 284.169 819.99 283.905 821.318 283.388C821.918 283.151 822.496 282.86 823.045 282.521ZM809.529 290.561C806.932 293.049 802.754 293.414 799.353 291.354L789.253 285.223L798.32 276.534L808.591 282.768C812.292 285.012 812.088 288.107 809.529 290.561ZM810.729 279.508L801.233 273.743L809.891 265.443L819.216 271.102C822.702 273.215 823.155 276.075 820.634 278.495C819.326 279.733 817.646 280.505 815.854 280.688C814.063 280.871 812.261 280.457 810.729 279.508ZM814.743 305.049C812.113 307.569 808.537 308.959 804.678 308.959C801.636 308.947 798.656 308.101 796.061 306.513L782.315 298.177V301.493L796.914 310.353C799.251 311.784 801.937 312.548 804.678 312.56C808.028 312.56 811.238 311.376 813.606 309.107C815.337 307.448 816.294 305.46 816.252 303.53V303.289C815.808 303.926 815.303 304.517 814.743 305.054V305.049ZM814.743 299.806C812.113 302.327 808.537 303.715 804.678 303.715C801.636 303.703 798.656 302.857 796.061 301.27L782.315 292.936V296.254L796.914 305.113C799.251 306.545 801.937 307.308 804.678 307.321C808.028 307.321 811.238 306.136 813.606 303.867C815.337 302.209 816.294 300.22 816.252 298.289V298.049C815.808 298.686 815.303 299.277 814.743 299.814V299.806ZM814.743 294.564C812.113 297.086 808.537 298.474 804.678 298.474C801.636 298.462 798.656 297.616 796.061 296.029L782.315 287.696V291.014L796.914 299.873C799.251 301.304 801.937 302.067 804.678 302.079C808.028 302.079 811.238 300.896 813.606 298.627C815.337 296.967 816.294 294.981 816.252 293.049V292.804C815.809 293.443 815.304 294.035 814.743 294.573V294.564ZM825.995 298.024C823.8 300.114 820.929 301.347 817.902 301.5V305.097C820.504 304.953 822.97 303.887 824.857 302.09C826.739 300.292 827.699 298.312 827.68 296.358V296.064C827.187 296.776 826.622 297.436 825.995 298.033V298.024ZM814.743 310.284C812.113 312.806 808.537 314.195 804.678 314.195C801.636 314.183 798.656 313.336 796.061 311.748L782.315 303.417V306.734L796.914 315.593C799.251 317.024 801.937 317.787 804.678 317.8C808.028 317.8 811.238 316.617 813.606 314.347C815.337 312.688 816.294 310.7 816.252 308.77V308.529C815.809 309.166 815.304 309.757 814.743 310.294V310.284ZM826.271 282.037C826.18 282.13 826.09 282.222 825.996 282.314C825.548 282.736 825.07 283.124 824.565 283.477C824.07 283.828 823.549 284.143 823.006 284.417C821.894 284.979 820.706 285.373 819.479 285.588C818.851 285.705 818.214 285.776 817.576 285.8C817.642 286.016 817.698 286.236 817.744 286.458C817.855 286.988 817.907 287.529 817.897 288.071V289.37H817.904C819.072 289.298 820.221 289.046 821.312 288.624C822.63 288.108 823.835 287.34 824.859 286.363C824.967 286.259 825.061 286.153 825.163 286.048C825.549 285.655 825.906 285.234 826.229 284.787C826.559 284.335 826.843 283.851 827.079 283.343C827.401 282.646 827.597 281.898 827.659 281.132C827.67 280.967 827.686 280.8 827.685 280.635V280.363C827.588 280.501 827.487 280.64 827.382 280.779C827.04 281.221 826.668 281.642 826.271 282.037ZM826.271 292.511C826.179 292.605 826.095 292.701 826.002 292.793C823.808 294.883 820.937 296.116 817.91 296.27V299.855C820.512 299.71 822.978 298.644 824.865 296.848C825.789 295.99 826.54 294.963 827.078 293.823C827.4 293.126 827.597 292.378 827.659 291.613C827.67 291.447 827.685 291.281 827.684 291.114V290.82C827.585 290.964 827.488 291.109 827.379 291.252C827.037 291.695 826.667 292.116 826.271 292.511ZM826.271 287.269C826.179 287.363 826.095 287.458 826.002 287.551C825.555 287.973 825.078 288.362 824.574 288.714C824.076 289.066 823.554 289.38 823.01 289.654C821.424 290.459 819.687 290.925 817.91 291.023V294.612C820.512 294.467 822.978 293.401 824.865 291.605C824.973 291.502 825.067 291.395 825.169 291.291C825.555 290.897 825.912 290.476 826.235 290.03C826.563 289.576 826.845 289.092 827.078 288.583C827.4 287.887 827.597 287.139 827.659 286.373C827.67 286.207 827.685 286.04 827.684 285.875V285.579C827.585 285.724 827.488 285.869 827.379 286.012C827.037 286.455 826.667 286.876 826.271 287.271V287.269Z" fill="white"/>
<path d="M144.64 84C349.547 84 177.184 265 452 265" stroke="#00FF00" stroke-width="2"/>
<path d="M144.64 167C349.547 167 176.28 277 452 277" stroke="#FFA500" stroke-width="2"/>
<path d="M144.64 251C349.547 251 217.864 289 452 289" stroke="#FF4500" stroke-width="2"/>
<path d="M144.64 346C349.547 346 219.22 299 452 299" stroke="#FF00FF" stroke-width="2"/>
<path d="M144.64 435C349.547 435 189.84 309 452 309" stroke="#8A2BE2" stroke-width="2"/>
<path d="M144.64 520C349.547 520 201.592 318 452 318" stroke="#00BFFF" stroke-width="2"/>
<path d="M488 245H416C411.029 245 407 248.94 407 253.8V324.2C407 329.06 411.029 333 416 333H488C492.971 333 497 329.06 497 324.2V253.8C497 248.94 492.971 245 488 245Z" fill="black" stroke="#555555" stroke-width="2"/>
<rect x="412.5" y="249.5" width="79" height="79" rx="15.5" fill="black" fill-opacity="0.25"/>
<rect x="412.5" y="249.5" width="79" height="79" rx="15.5" stroke="#E3E3E3"/>
<path d="M428 295.001L452.105 295.001L428 270.897V295.001Z" fill="white"/>
<path d="M428.029 303.348C428.429 308.746 432.935 313 438.435 313H476V275.435C476 269.902 471.694 265.375 466.25 265.022L466.25 303.348L428.029 303.348Z" fill="white"/>
<path d="M457.902 265L457.902 288.992L433.909 265H457.902Z" fill="white"/>
<g filter="url(#filter0_d_4_133)">
<rect x="59" y="39" width="80" height="80" rx="20" fill="white" shape-rendering="crispEdges"/>
<rect x="59.625" y="39.625" width="78.75" height="78.75" rx="19.375" stroke="#E3E3E3" stroke-width="1.25" shape-rendering="crispEdges"/>
<path d="M106.101 72.0752V85.5203L117.75 78.8019V65.3428L106.101 72.0752Z" fill="#4040B2"/>
<path d="M93.1757 65.3425L104.824 72.075V85.5201L93.1757 78.7934V65.3425ZM80.2498 57.8354V71.2875L91.8984 78.0141V64.5609L80.2498 57.8354ZM93.1757 93.7232L104.824 100.45V86.9966L93.1757 80.2712V93.7232Z" fill="#5C4EE5"/>
</g>
<g filter="url(#filter1_d_4_133)">
<rect x="59" y="127" width="80" height="80" rx="20" fill="white" shape-rendering="crispEdges"/>
<rect x="59.625" y="127.625" width="78.75" height="78.75" rx="19.375" stroke="#E3E3E3" stroke-width="1.25" shape-rendering="crispEdges"/>
<path d="M89.7285 163.577C89.7285 164.094 89.7866 164.515 89.8862 164.814C89.9941 165.121 90.1352 165.46 90.3344 165.816C90.4091 165.929 90.434 166.042 90.434 166.139C90.434 166.277 90.351 166.414 90.1684 166.56L89.272 167.142C89.1475 167.222 89.023 167.263 88.9068 167.263C88.7657 167.263 88.6246 167.198 88.4835 167.069C88.2843 166.859 88.1183 166.64 87.9772 166.414C87.8361 166.18 87.695 165.913 87.5373 165.598C86.4334 166.875 85.0473 167.513 83.379 167.513C82.1921 167.513 81.2459 167.182 80.557 166.511C79.8598 165.848 79.5112 164.959 79.5112 163.844C79.5112 162.664 79.9345 161.702 80.7977 160.982C81.6609 160.255 82.8063 159.899 84.2588 159.899C84.7402 159.899 85.2299 159.94 85.7528 160.004C86.2757 160.077 86.8152 160.19 87.3796 160.312V159.301C87.3796 158.242 87.1555 157.507 86.7156 157.078C86.2674 156.642 85.5038 156.432 84.4165 156.432C83.9185 156.432 83.4122 156.488 82.8893 156.618C82.3664 156.739 81.8601 156.893 81.3621 157.086C81.138 157.183 80.9637 157.24 80.8641 157.272C80.7645 157.297 80.6981 157.313 80.64 157.313C80.4408 157.313 80.3412 157.175 80.3412 156.876V156.197C80.3412 155.979 80.3744 155.809 80.4408 155.712C80.5155 155.615 80.64 155.518 80.8392 155.421C81.3372 155.171 81.9265 154.961 82.6237 154.791C83.3126 154.613 84.0513 154.532 84.8232 154.532C86.5081 154.532 87.7365 154.904 88.525 155.656C89.3052 156.408 89.7036 157.547 89.7036 159.075V163.577H89.7285ZM83.9849 165.695C84.458 165.695 84.9394 165.606 85.4457 165.444C85.952 165.274 86.4085 164.967 86.7903 164.555C87.0144 164.288 87.1804 163.997 87.2717 163.666C87.3547 163.326 87.4128 162.922 87.4128 162.453V161.872C86.9978 161.775 86.5579 161.686 86.1097 161.637C85.6532 161.581 85.2216 161.548 84.7817 161.548C83.8355 161.548 83.1383 161.734 82.6735 162.106C82.2087 162.478 81.9846 163.011 81.9846 163.706C81.9846 164.361 82.1506 164.846 82.5075 165.177C82.8478 165.525 83.3375 165.695 83.9849 165.695ZM95.3393 167.198C95.082 167.198 94.916 167.15 94.7998 167.053C94.6919 166.972 94.5923 166.778 94.501 166.511L91.181 155.769C91.098 155.494 91.0565 155.308 91.0565 155.211C91.0565 154.993 91.1727 154.864 91.3968 154.864H92.7829C93.0485 154.864 93.2311 154.904 93.3307 155.001C93.4469 155.09 93.5299 155.284 93.6129 155.543L95.9867 164.749L98.1945 155.543C98.2609 155.268 98.3522 155.09 98.4601 155.001C98.5763 154.92 98.7755 154.864 99.0245 154.864H100.162C100.427 154.864 100.61 154.904 100.726 155.001C100.834 155.09 100.934 155.284 100.992 155.543L103.224 164.862L105.673 155.543C105.756 155.268 105.855 155.09 105.955 155.001C106.063 154.92 106.246 154.864 106.503 154.864H107.823C108.047 154.864 108.171 154.977 108.171 155.211C108.171 155.284 108.155 155.349 108.146 155.438C108.13 155.518 108.105 155.632 108.047 155.785L104.635 166.527C104.552 166.802 104.453 166.988 104.345 167.069C104.229 167.15 104.046 167.206 103.805 167.206H102.585C102.32 167.206 102.137 167.166 102.021 167.069C101.913 166.972 101.813 166.794 101.755 166.511L99.564 157.547L97.3894 166.503C97.3147 166.778 97.2317 166.956 97.1238 167.053C97.0076 167.15 96.8084 167.198 96.5511 167.198H95.3393ZM113.5 167.57C112.769 167.57 112.031 167.489 111.325 167.319C110.62 167.15 110.064 166.972 109.698 166.762C109.474 166.64 109.317 166.503 109.258 166.374C109.2 166.252 109.175 166.107 109.175 165.986V165.274C109.175 164.983 109.292 164.846 109.499 164.846C109.582 164.846 109.673 164.862 109.756 164.886C109.839 164.919 109.964 164.967 110.105 165.024C110.586 165.234 111.109 165.404 111.665 165.509C112.23 165.622 112.778 165.679 113.342 165.679C114.238 165.679 114.927 165.525 115.409 165.218C115.89 164.911 116.139 164.466 116.139 163.9C116.139 163.512 116.015 163.189 115.766 162.922C115.508 162.664 115.027 162.429 114.338 162.203L112.288 161.581C111.25 161.257 110.487 160.788 110.022 160.158C109.557 159.552 109.317 158.865 109.317 158.145C109.317 157.563 109.441 157.046 109.698 156.602C109.956 156.157 110.296 155.769 110.719 155.462C111.143 155.139 111.624 154.904 112.188 154.734C112.753 154.573 113.342 154.5 113.965 154.5C114.28 154.5 114.604 154.516 114.911 154.557C115.243 154.597 115.533 154.654 115.832 154.71C116.114 154.783 116.388 154.848 116.637 154.936C116.894 155.017 117.094 155.098 117.235 155.179C117.434 155.292 117.575 155.405 117.658 155.527C117.741 155.64 117.783 155.793 117.783 155.987V156.642C117.783 156.933 117.675 157.086 117.459 157.086C117.343 157.086 117.16 157.03 116.919 156.925C116.114 156.561 115.21 156.375 114.205 156.375C113.4 156.375 112.769 156.505 112.329 156.771C111.89 157.03 111.665 157.434 111.665 158.008C111.665 158.396 111.807 158.727 112.089 158.994C112.371 159.253 112.894 159.519 113.641 159.754L115.649 160.384C116.67 160.7 117.401 161.144 117.841 161.718C118.281 162.284 118.488 162.938 118.488 163.666C118.488 164.264 118.364 164.806 118.123 165.274C117.866 165.751 117.534 166.163 117.094 166.495C116.654 166.842 116.131 167.093 115.525 167.279C114.886 167.473 114.222 167.57 113.5 167.57Z" fill="black"/>
<path d="M116.172 174.327C111.524 177.705 104.768 179.5 98.9582 179.5C90.8159 179.5 83.4787 176.533 77.9426 171.611C77.5027 171.223 77.8928 170.698 78.424 171.005C84.4166 174.424 91.8036 176.493 99.4479 176.493C104.61 176.493 110.279 175.442 115.492 173.268C116.272 172.92 116.936 173.769 116.172 174.327ZM118.106 172.161C117.517 171.409 114.18 171.797 112.67 171.975C112.213 172.031 112.147 171.643 112.554 171.352C115.21 169.518 119.575 170.043 120.09 170.657C120.596 171.28 119.949 175.58 117.459 177.633C117.077 177.956 116.712 177.786 116.878 177.366C117.442 175.992 118.704 172.896 118.106 172.161Z" fill="#FF9900"/>
</g>
<g filter="url(#filter2_d_4_133)">
<rect x="59" y="215" width="80" height="80" rx="20" fill="white" shape-rendering="crispEdges"/>
<rect x="59.625" y="215.625" width="78.75" height="78.75" rx="19.375" stroke="#E3E3E3" stroke-width="1.25" shape-rendering="crispEdges"/>
<path d="M98.844 233.154C98.4462 233.174 98.0564 233.273 97.6976 233.444L82.0533 240.919C81.6484 241.112 81.2927 241.394 81.0124 241.742C80.7322 242.091 80.5347 242.497 80.4347 242.932L76.5752 259.722C76.486 260.109 76.4761 260.51 76.5458 260.901C76.6156 261.291 76.7637 261.664 76.9813 261.997C77.0341 262.079 77.0909 262.158 77.1514 262.233L87.9797 275.697C88.26 276.045 88.6158 276.326 89.0207 276.52C89.4256 276.713 89.8692 276.813 90.3186 276.813L107.684 276.809C108.133 276.81 108.576 276.71 108.981 276.517C109.386 276.324 109.742 276.043 110.022 275.695L120.847 262.229C121.127 261.881 121.325 261.474 121.425 261.039C121.525 260.605 121.525 260.153 121.425 259.718L117.559 242.928C117.459 242.493 117.262 242.087 116.982 241.738C116.701 241.39 116.346 241.108 115.941 240.915L100.295 233.444C99.8432 233.228 99.3444 233.129 98.844 233.154Z" fill="#326CE5"/>
<path d="M98.9993 238.868C98.4822 238.868 98.0629 239.334 98.0629 239.908C98.0629 239.917 98.0647 239.926 98.0649 239.934C98.0641 240.013 98.0604 240.107 98.0629 240.175C98.0752 240.506 98.1475 240.76 98.191 241.065C98.2697 241.718 98.3357 242.26 98.295 242.764C98.2554 242.953 98.1155 243.127 97.9909 243.248L97.9689 243.644C97.4069 243.69 96.8412 243.776 96.2762 243.904C93.8449 244.456 91.7515 245.708 90.1578 247.399C90.0544 247.329 89.8734 247.199 89.8196 247.159C89.6525 247.182 89.4835 247.233 89.2634 247.105C88.8444 246.823 88.4627 246.434 88.0009 245.965C87.7893 245.741 87.6361 245.527 87.3847 245.311C87.3276 245.261 87.2404 245.195 87.1766 245.145C86.98 244.988 86.7482 244.906 86.5243 244.898C86.2365 244.889 85.9594 245.001 85.778 245.229C85.4556 245.633 85.5589 246.251 86.0081 246.609C86.0127 246.613 86.0175 246.616 86.0221 246.619C86.0839 246.669 86.1595 246.733 86.2162 246.775C86.483 246.972 86.7267 247.073 86.9925 247.229C87.5525 247.575 88.0168 247.862 88.3851 248.208C88.5289 248.361 88.554 248.631 88.5731 248.748L88.8733 249.016C87.2666 251.434 86.5231 254.42 86.9625 257.463L86.5703 257.577C86.467 257.711 86.3209 257.921 86.1682 257.984C85.6864 258.135 85.1441 258.191 84.4895 258.26C84.1822 258.285 83.917 258.27 83.5912 258.332C83.5194 258.345 83.4195 258.371 83.3411 258.39C83.3383 258.39 83.3358 258.391 83.3331 258.392C83.3288 258.393 83.3232 258.395 83.3191 258.396C82.7671 258.529 82.4126 259.036 82.5267 259.536C82.6409 260.036 83.18 260.34 83.7352 260.221C83.7392 260.22 83.745 260.219 83.7492 260.219C83.7555 260.217 83.761 260.214 83.7672 260.213C83.8446 260.196 83.9416 260.177 84.0093 260.159C84.3297 260.073 84.5617 259.947 84.8497 259.836C85.4692 259.614 85.9824 259.429 86.4823 259.356C86.6911 259.34 86.9111 259.485 87.0205 259.546L87.4287 259.476C88.3679 262.388 90.3363 264.742 92.8288 266.219L92.6588 266.627C92.7201 266.786 92.7877 267 92.742 267.157C92.5603 267.628 92.249 268.125 91.8945 268.68C91.7228 268.936 91.5472 269.135 91.3923 269.428C91.3552 269.498 91.308 269.606 91.2722 269.68C91.0315 270.195 91.2081 270.788 91.6704 271.011C92.1356 271.235 92.713 270.999 92.9629 270.483C92.9633 270.482 92.9645 270.481 92.9649 270.481C92.9651 270.48 92.9646 270.479 92.9649 270.479C93.0005 270.405 93.0509 270.309 93.0809 270.241C93.2136 269.937 93.2577 269.676 93.351 269.382C93.5988 268.76 93.7349 268.107 94.076 267.7C94.1694 267.589 94.3216 267.546 94.4795 267.503L94.6916 267.119C96.8645 267.953 99.2967 268.177 101.726 267.625C102.281 267.5 102.816 267.337 103.333 267.141C103.393 267.247 103.503 267.45 103.533 267.501C103.693 267.554 103.869 267.581 104.011 267.792C104.266 268.227 104.441 268.743 104.654 269.366C104.747 269.66 104.793 269.921 104.926 270.225C104.956 270.294 105.006 270.391 105.042 270.465C105.291 270.982 105.87 271.219 106.336 270.995C106.798 270.772 106.975 270.179 106.734 269.664C106.699 269.59 106.649 269.482 106.612 269.412C106.457 269.119 106.282 268.922 106.11 268.666C105.756 268.111 105.462 267.651 105.28 267.179C105.204 266.936 105.293 266.785 105.352 266.627C105.316 266.586 105.24 266.357 105.196 266.249C107.786 264.719 109.697 262.278 110.594 259.458C110.715 259.477 110.926 259.515 110.994 259.528C111.135 259.435 111.264 259.314 111.518 259.334C112.018 259.406 112.531 259.592 113.151 259.814C113.439 259.925 113.671 260.053 113.991 260.138C114.059 260.157 114.156 260.174 114.233 260.191C114.24 260.192 114.245 260.195 114.251 260.197C114.256 260.197 114.261 260.198 114.265 260.199C114.821 260.318 115.36 260.014 115.474 259.514C115.588 259.014 115.233 258.507 114.682 258.374C114.601 258.356 114.487 258.325 114.409 258.31C114.084 258.248 113.818 258.263 113.511 258.238C112.856 258.169 112.314 258.113 111.832 257.962C111.636 257.885 111.496 257.652 111.428 257.555L111.05 257.445C111.246 256.027 111.193 254.551 110.854 253.074C110.512 251.583 109.906 250.219 109.099 249.018C109.196 248.93 109.379 248.768 109.431 248.72C109.447 248.552 109.434 248.376 109.607 248.19C109.976 247.844 110.44 247.557 111 247.211C111.266 247.055 111.512 246.954 111.778 246.757C111.839 246.713 111.921 246.642 111.984 246.591C112.434 246.233 112.537 245.615 112.215 245.211C111.892 244.806 111.267 244.768 110.818 245.127C110.754 245.177 110.667 245.243 110.61 245.293C110.358 245.509 110.203 245.722 109.992 245.947C109.53 246.416 109.148 246.807 108.729 247.089C108.548 247.195 108.282 247.158 108.161 247.151L107.805 247.405C105.774 245.276 103.009 243.914 100.032 243.65C100.023 243.525 100.012 243.3 100.01 243.232C99.8878 243.115 99.7406 243.016 99.7036 242.764C99.6628 242.26 99.7308 241.718 99.8096 241.065C99.8531 240.76 99.9253 240.506 99.9377 240.175C99.9405 240.099 99.936 239.99 99.9357 239.908C99.9356 239.334 99.5164 238.868 98.9993 238.868ZM97.8268 246.131L97.5487 251.043L97.5287 251.053C97.51 251.492 97.1484 251.843 96.7044 251.843C96.5225 251.843 96.3546 251.785 96.2182 251.685L96.2102 251.689L92.1826 248.834C93.4204 247.617 95.0037 246.717 96.8284 246.303C97.1617 246.227 97.4949 246.171 97.8268 246.131ZM100.174 246.131C102.304 246.393 104.274 247.358 105.784 248.836L101.782 251.673L101.768 251.667C101.413 251.927 100.913 251.862 100.636 251.515C100.523 251.373 100.463 251.206 100.456 251.037L100.452 251.035L100.174 246.131ZM90.722 250.669L94.3995 253.958L94.3955 253.978C94.7274 254.267 94.7763 254.767 94.4995 255.114C94.3861 255.257 94.2343 255.352 94.0713 255.397L94.0673 255.413L89.3535 256.773C89.1135 254.579 89.6306 252.447 90.722 250.669ZM107.251 250.671C107.797 251.556 108.211 252.546 108.457 253.618C108.7 254.677 108.761 255.735 108.661 256.757L103.923 255.393L103.919 255.373C103.495 255.257 103.234 254.825 103.333 254.392C103.373 254.215 103.468 254.065 103.595 253.954L103.593 253.944L107.251 250.671ZM98.245 254.212H99.7516L100.688 255.383L100.352 256.843L98.9993 257.493L97.6427 256.841L97.3066 255.381L98.245 254.212ZM103.075 258.218C103.139 258.214 103.203 258.22 103.265 258.232L103.273 258.222L108.149 259.046C107.435 261.051 106.07 262.788 104.245 263.95L102.353 259.378L102.359 259.37C102.185 258.966 102.359 258.492 102.759 258.3C102.861 258.25 102.968 258.223 103.075 258.218ZM94.8857 258.238C95.2577 258.243 95.5915 258.501 95.678 258.88C95.7184 259.057 95.6987 259.233 95.6319 259.388L95.646 259.406L93.7732 263.932C92.0223 262.808 90.6277 261.126 89.8817 259.062L94.7156 258.242L94.7236 258.252C94.7777 258.242 94.8325 258.237 94.8857 258.238ZM98.9693 260.221C99.0989 260.216 99.2304 260.242 99.3554 260.303C99.5193 260.381 99.6459 260.506 99.7256 260.655H99.7436L102.127 264.96C101.817 265.064 101.499 265.153 101.174 265.227C99.3517 265.64 97.535 265.515 95.89 264.954L98.267 260.657H98.271C98.4136 260.39 98.6841 260.231 98.9693 260.221Z" fill="white" stroke="white" stroke-width="0.28125"/>
</g>
<g filter="url(#filter3_d_4_133)">
<rect x="59" y="303" width="80" height="80" rx="20" fill="white" shape-rendering="crispEdges"/>
<rect x="59.625" y="303.625" width="78.75" height="78.75" rx="19.375" stroke="#E3E3E3" stroke-width="1.25" shape-rendering="crispEdges"/>
<path d="M91.1243 352.349V363H85.25V352.349H91.1243ZM96.992 323C102.025 323.006 104.207 323.291 107.307 324.966C110.713 326.794 112.816 330.429 112.816 334.954C112.816 339.16 111.101 342.794 107.81 344.966C104.793 346.977 101.364 347.251 96.7929 347.251H85.25V323L96.992 323ZM97.933 328.142L97.7529 328.143L91.1243 328.189V342.177H98.1414C103.056 342.177 106.804 340.211 106.804 335.023C106.804 330.2 103.787 328.097 97.7529 328.143L97.933 328.142Z" fill="#06AC38"/>
</g>
<g filter="url(#filter4_d_4_133)">
<rect x="59" y="391" width="80" height="80" rx="20" fill="white" shape-rendering="crispEdges"/>
<rect x="59.625" y="391.625" width="78.75" height="78.75" rx="19.375" stroke="#E3E3E3" stroke-width="1.25" shape-rendering="crispEdges"/>
<path d="M96.5372 444.994C96.5411 444.994 96.545 445.006 96.545 445.029C96.5488 445.192 96.5527 445.351 96.5566 445.514C96.5798 445.39 96.6031 445.266 96.6302 445.138C96.6108 444.901 96.4249 445.022 96.5372 444.994Z" fill="#FEFEFE"/>
<path d="M106.607 431.746C106.604 431.75 106.597 431.75 106.593 431.753C106.597 431.757 106.604 431.76 106.607 431.764C106.604 431.76 106.607 431.753 106.607 431.746Z" fill="#FEFEFE"/>
<path d="M100.264 415.485V415.489H100.274C100.271 415.489 100.267 415.485 100.264 415.485Z" fill="#FEFEFE"/>
<path d="M105.657 448.144C105.706 447.582 105.68 447.013 105.749 446.455C105.902 445.227 105.756 443.972 106.075 442.759C106.232 442.132 105.729 441.396 106.374 440.846L106.213 440.311C106.145 440.172 106.111 440.019 106.115 439.863C106.118 439.708 106.158 439.556 106.232 439.42C106.194 438.344 106.259 437.266 106.424 436.201C106.482 434.722 106.543 433.242 106.601 431.758C106.597 431.754 106.589 431.75 106.585 431.747C103.45 433.199 100.494 431.166 99.9913 428.725C99.6612 427.121 99.8378 425.607 101.078 424.383C101.285 424.177 101.461 423.941 101.653 423.716C102.16 420.652 101.807 417.84 99.2121 415.648C99.5998 415.423 99.9491 415.551 100.264 415.493V415.489C97.0819 414.683 93.2207 416.879 91.9425 420.234C91.5451 421.225 91.3656 422.292 91.4167 423.36C94.5717 421.884 97.4005 423.647 98.1797 426.331C98.9895 429.124 96.8324 432.08 93.9653 432.122C93.1443 432.126 92.3275 432.004 91.5434 431.758C91.6009 433.3 91.6598 434.842 91.7199 436.383C91.8605 437.389 91.9208 438.405 91.9003 439.42C91.908 439.661 91.9157 439.901 91.9234 440.141C91.9157 440.3 91.908 440.459 91.9003 440.621C92.0999 441.595 92.2193 442.583 92.2573 443.577C92.2503 443.551 92.2452 443.526 92.2419 443.499C92.2458 443.527 92.2534 443.55 92.2573 443.577C92.334 445.262 92.3801 446.951 92.4991 448.636C92.549 449.333 92.2995 449.682 91.6623 449.86C90.91 450.073 90.1693 450.329 89.4247 450.569C90.4072 450.694 91.3982 450.738 92.3878 450.701C93.451 450.677 93.9346 450.201 94.0382 449.136C94.1035 448.458 94.161 447.78 94.2224 447.102C94.2915 445.874 94.3606 444.642 94.4297 443.414H94.5794V446.92C94.5986 447.451 94.6063 447.985 94.6408 448.516C94.7943 450.991 94.8673 450.976 92.4223 451.475C92.3663 451.493 92.3123 451.516 92.2611 451.545C92.407 451.642 92.5528 451.739 92.6987 451.839C92.7208 451.843 92.7419 451.851 92.7605 451.864C92.779 451.877 92.7946 451.894 92.8061 451.913C93.3895 451.917 93.9768 451.967 94.5525 451.913C95.6004 451.812 96.0955 451.247 96.1723 450.197C96.2183 449.523 96.2874 448.849 96.345 448.175C96.2853 447.285 96.3551 446.391 96.5522 445.521C96.5484 445.359 96.5446 445.2 96.5407 445.037C96.5407 445.014 96.533 444.999 96.533 445.002C96.4217 445.03 96.606 444.909 96.6252 445.146C96.6444 445.041 96.6674 444.937 96.6866 444.832V448.892C96.6981 449.368 96.7134 449.841 96.7211 450.317C96.7403 452.041 96.6328 452.196 95.0054 452.688C94.5564 452.823 94.0881 452.905 93.6429 453.056C93.3204 453.168 92.9098 453.106 92.6065 453.49C93.9307 453.439 95.1705 453.59 96.4025 453.389C97.6768 453.18 98.1835 452.661 98.4445 451.406C98.6364 450.484 98.717 449.535 99.0663 448.601C99.1059 448.665 99.1393 448.732 99.1661 448.802C99.3426 449.674 99.5192 450.549 99.6881 451.421C99.926 452.641 100.417 453.16 101.646 453.377C102.916 453.598 104.202 453.447 105.518 453.478C105.33 453.153 105.035 453.207 104.797 453.137C103.979 452.897 103.146 452.692 102.344 452.413C101.761 452.207 101.342 451.832 101.35 451.107C101.369 449.124 101.358 447.141 101.358 445.157H101.596C101.68 446.401 101.78 447.64 101.845 448.884C101.995 451.758 102.333 452.072 105.192 451.913C105.353 451.642 105.749 451.855 105.898 451.564C105.211 451.561 104.613 451.227 103.983 451.014C103.813 450.955 103.668 450.841 103.569 450.69C103.47 450.538 103.424 450.358 103.438 450.178C103.469 448.14 103.392 446.095 103.664 444.065C103.83 445.769 103.96 447.478 104.091 449.182C104.152 449.98 104.509 450.604 105.338 450.658C106.459 450.735 107.583 450.677 108.708 450.677C108.123 450.403 107.517 450.178 106.896 450.003C105.522 449.558 105.53 449.554 105.657 448.144L105.657 448.144ZM97.0128 419.08C97.0104 419.352 96.902 419.613 96.7111 419.806C96.5201 419.998 96.2619 420.108 95.9919 420.11C95.3893 420.122 94.9364 419.773 94.9248 418.983C94.9274 418.847 94.9573 418.714 95.0126 418.59C95.0679 418.466 95.1475 418.355 95.2465 418.264C95.3456 418.172 95.462 418.102 95.5888 418.057C95.7156 418.012 95.8501 417.994 95.9842 418.003C96.7019 417.991 97.0244 418.479 97.0128 419.08ZM101.626 436.023C101.63 437.592 100.44 438.959 99.0817 438.956C97.7997 438.952 96.4908 437.425 96.5369 435.984C96.4678 435.558 96.3949 435.128 96.2989 434.532C97.2163 435.163 97.9878 435.81 99.0202 435.833C100.076 435.853 100.905 435.307 101.768 434.667C101.953 435.179 101.488 435.578 101.626 436.023H101.626Z" fill="#FE733E"/>
<path d="M91.9042 439.417C91.8274 439.389 91.7545 439.355 91.6816 439.327C90.6526 438.874 89.7047 438.252 88.8758 437.487C85.8283 434.83 83.817 431.503 83.3296 427.466C82.7768 422.88 83.794 418.646 86.8262 415.009C89.5936 411.693 93.1209 409.76 97.3314 409.314C102.01 408.822 106.213 410.143 109.752 413.405C112.641 415.993 114.466 419.579 114.868 423.457C115.283 426.786 114.599 430.159 112.922 433.056C111.36 435.748 109.28 437.933 106.466 439.316C106.39 439.355 106.313 439.393 106.236 439.428C106.161 439.564 106.12 439.716 106.117 439.871C106.114 440.027 106.148 440.18 106.217 440.319V440.319C106.277 440.254 106.344 440.195 106.417 440.145C110.665 437.875 113.613 434.501 114.991 429.806C115.11 429.407 115.294 429.209 115.736 429.256C116.335 429.318 116.496 428.915 116.496 428.411C116.5 426.478 116.501 424.547 116.5 422.616C116.5 422.202 116.4 421.745 115.974 421.698C115.191 421.605 115.095 421.028 114.937 420.467C114.071 417.265 112.202 414.432 109.61 412.39C104.198 408.102 98.2564 407.327 92.0231 410.225C87.3904 412.374 84.4388 416.105 83.103 421.098C83.0186 421.408 83.057 421.776 82.535 421.667C81.7904 421.512 81.5102 421.954 81.5063 422.62C81.4948 424.553 81.5025 426.482 81.5025 428.415C81.5025 429.058 81.8249 429.399 82.439 429.248C83.0033 429.109 83.1376 429.391 83.2528 429.825C83.7517 431.662 84.5861 433.388 85.7131 434.915C87.3635 437.174 89.3747 438.987 91.931 440.141C91.9233 439.901 91.9156 439.657 91.9041 439.417L91.9042 439.417Z" fill="#B5D2F3"/>
<path d="M91.9081 440.617C91.34 442.225 89.8277 442.186 88.5419 442.589C89.5092 442.841 90.4918 443.131 91.459 442.965C92.0347 442.864 92.146 443.073 92.2305 443.418C92.2382 443.445 92.242 443.472 92.2497 443.499C92.2535 443.523 92.2612 443.55 92.265 443.577C92.227 442.582 92.1077 441.592 91.9081 440.617V440.617Z" fill="#FE684B"/>
<path d="M106.075 442.763C107.303 443.325 108.462 442.76 109.648 442.597C108.489 442.101 106.988 442.357 106.378 440.85C105.729 441.4 106.232 442.136 106.075 442.763Z" fill="#FE6446"/>
<path d="M96.6938 444.824C96.6744 444.929 96.6512 445.034 96.6318 445.138C96.6085 445.262 96.5814 445.386 96.5582 445.514C96.3593 446.384 96.2888 447.277 96.349 448.167C96.6396 448.319 96.4265 448.718 96.6938 448.88L96.6938 444.824Z" fill="#FED6C8"/>
<path d="M94.4393 443.406C94.3695 444.634 94.2998 445.866 94.2301 447.094C94.3502 447.032 94.4703 446.974 94.5904 446.912V443.406H94.4393Z" fill="#FEEBE3"/>
<path d="M90.8295 451.906H92.8101C92.7755 451.883 92.7371 451.859 92.7026 451.832C92.5567 451.735 92.4109 451.639 92.265 451.538C91.7623 451.527 91.266 451.654 90.8295 451.906V451.906Z" fill="#FE9166"/>
<path d="M105.192 451.905H107.119C106.766 451.645 106.333 451.522 105.898 451.556C105.749 451.851 105.35 451.634 105.192 451.905Z" fill="#FE8F64"/>
<path d="M106.47 439.312C109.284 437.933 111.36 435.748 112.926 433.052C114.603 430.156 115.287 426.782 114.872 423.453C114.473 419.575 112.648 415.988 109.756 413.401C106.217 410.143 102.014 408.819 97.3354 409.314C93.1287 409.756 89.5975 411.693 86.8301 415.009C83.7941 418.646 82.7808 422.88 83.3335 427.467C83.8209 431.507 85.8322 434.83 88.8797 437.488C89.7089 438.252 90.6568 438.873 91.6855 439.328C91.7584 439.359 91.8313 439.39 91.9081 439.417C91.9286 438.401 91.8683 437.386 91.7277 436.38C91.6509 436.326 91.5742 436.271 91.4974 436.213C90.7383 435.621 90.0295 434.965 89.3787 434.253C89.1753 434.044 88.922 433.866 88.922 433.525C88.4691 433.854 88.1428 433.626 87.878 433.262C86.3914 431.293 85.5261 428.919 85.3946 426.448C85.2872 424.209 85.4867 422.032 86.4194 419.936C87.5588 417.348 89.4658 415.179 91.8774 413.73C92.2919 413.475 92.5299 413.703 92.8178 413.893C92.9544 413.888 93.0883 413.853 93.2107 413.792C93.333 413.73 93.4411 413.643 93.5279 413.537L93.4933 413.455C93.2477 412.932 93.2361 412.34 93.8272 412.2C94.4222 412.057 94.7599 412.545 94.7638 413.177C99.2046 411.705 103.335 412.301 107.061 415.171C109.848 417.317 111.445 420.196 111.932 423.705C112.562 428.218 111.049 431.96 107.933 435.125C107.565 435.506 107.143 435.829 106.681 436.085C106.601 436.128 106.52 436.167 106.44 436.206C106.274 437.27 106.21 438.348 106.248 439.425V439.425C106.317 439.39 106.39 439.351 106.47 439.312Z" fill="#E2F5FC"/>
<path d="M107.925 435.128C111.038 431.963 112.55 428.221 111.924 423.709C111.437 420.195 109.84 417.317 107.054 415.175C103.327 412.304 99.193 411.712 94.756 413.18C94.7483 413.184 94.7407 413.192 94.733 413.195C94.3837 413.42 94.1112 413.904 93.6084 413.602C93.5777 413.583 93.5508 413.567 93.5201 413.544C93.4337 413.651 93.3256 413.738 93.2032 413.8C93.0807 413.861 92.9467 413.895 92.81 413.9C92.7985 413.947 92.7832 413.989 92.7678 414.036C92.4492 414.939 91.4935 415.175 90.8525 415.717C89.1335 417.125 87.8244 418.976 87.0642 421.074C85.8436 424.507 86.0931 427.869 87.7282 431.115C87.9997 431.642 88.3142 432.144 88.6686 432.618C88.8617 432.876 88.9496 433.199 88.9142 433.521V433.532C88.9142 433.869 89.1675 434.051 89.371 434.26C90.0227 434.971 90.7313 435.627 91.4897 436.221C91.5664 436.275 91.6432 436.333 91.72 436.387C91.6624 434.845 91.6035 433.304 91.5434 431.762C91.5396 431.762 91.5396 431.758 91.5357 431.758C90.2077 430.879 89.2328 429.755 89.0639 428.082C88.8528 426.017 89.7126 424.491 91.386 423.379C91.3937 423.375 91.4014 423.368 91.4091 423.364C91.3574 422.296 91.5368 421.229 91.9349 420.238C93.213 416.887 97.0743 414.687 100.256 415.492C100.258 415.492 100.26 415.492 100.262 415.493C100.264 415.494 100.266 415.495 100.268 415.496C102.379 415.841 104.114 416.813 105.357 418.599C106.361 419.974 106.856 421.659 106.758 423.364V423.364C107.956 424.282 108.923 425.359 109.08 426.951C109.291 429.093 108.386 430.658 106.601 431.75V431.77C106.543 433.249 106.482 434.729 106.424 436.213C106.509 436.174 106.589 436.135 106.666 436.093C107.132 435.838 107.557 435.513 107.925 435.128L107.925 435.128Z" fill="#CDECF6"/>
<path d="M102.755 423.189C104.071 422.535 105.349 422.887 106.62 423.309C106.666 423.325 106.716 423.34 106.762 423.356C106.861 421.651 106.365 419.965 105.361 418.591C104.117 416.806 102.382 415.833 100.271 415.489H100.26C99.9452 415.551 99.5959 415.419 99.2083 415.643C101.803 417.836 102.16 420.648 101.649 423.712C101.73 423.674 101.807 423.639 101.887 423.6C102.183 423.464 102.471 423.333 102.755 423.189Z" fill="#FE6B3C"/>
<path d="M109.088 426.947C108.931 425.355 107.963 424.278 106.766 423.36C106.72 423.345 106.67 423.329 106.624 423.314C105.349 422.892 104.075 422.539 102.759 423.194C102.475 423.337 102.183 423.473 101.895 423.608C101.814 423.647 101.738 423.682 101.657 423.721C101.465 423.941 101.289 424.182 101.081 424.387C99.8377 425.611 99.665 427.126 99.9951 428.729C100.498 431.174 103.453 433.207 106.593 431.759C106.597 431.755 106.605 431.755 106.608 431.751C108.393 430.655 109.303 429.086 109.088 426.947ZM104.394 431.228C103.674 431.22 102.972 430.997 102.377 430.587C101.783 430.176 101.323 429.597 101.055 428.922C100.787 428.248 100.723 427.508 100.872 426.797C101.021 426.086 101.375 425.435 101.891 424.927C102.406 424.42 103.059 424.078 103.767 423.945C104.475 423.812 105.206 423.894 105.868 424.181C106.53 424.468 107.092 424.946 107.485 425.556C107.877 426.166 108.081 426.879 108.071 427.606C108.074 428.09 107.98 428.57 107.795 429.016C107.61 429.463 107.338 429.868 106.995 430.206C106.652 430.544 106.244 430.808 105.798 430.984C105.351 431.16 104.873 431.243 104.394 431.228Z" fill="#FE6142"/>
<path d="M91.3899 423.372C89.7164 424.484 88.8567 426.01 89.0678 428.075C89.2367 429.748 90.2116 430.872 91.5396 431.751C91.5434 431.751 91.5434 431.755 91.5473 431.755C92.3314 432 93.1482 432.123 93.9692 432.119C96.8325 432.076 98.9934 429.124 98.1836 426.328C97.4044 423.643 94.5718 421.881 91.4206 423.357C91.4096 423.36 91.3993 423.365 91.3899 423.372L91.3899 423.372ZM93.6775 431.228C93.1957 431.234 92.7174 431.144 92.2701 430.963C91.8228 430.783 91.4153 430.514 91.0711 430.174C90.727 429.834 90.4528 429.428 90.2646 428.98C90.0763 428.533 89.9775 428.052 89.974 427.565C89.9704 427.079 90.0622 426.597 90.2439 426.147C90.4257 425.696 90.6939 425.287 91.033 424.941C91.3722 424.596 91.7757 424.321 92.2203 424.134C92.665 423.946 93.1419 423.849 93.6238 423.849C94.1075 423.839 94.5883 423.927 95.0382 424.106C95.4882 424.286 95.8983 424.553 96.245 424.894C96.5916 425.235 96.8678 425.641 97.0576 426.091C97.2473 426.54 97.3469 427.023 97.3504 427.511C97.354 427.999 97.2615 428.483 97.0783 428.935C96.8951 429.387 96.6248 429.798 96.2832 430.144C95.9416 430.489 95.5353 430.763 95.088 430.949C94.6408 431.135 94.1613 431.23 93.6775 431.228V431.228Z" fill="#FE6143"/>
<path d="M97.0205 436.325C96.8785 436.182 96.7749 435.988 96.5369 435.984C96.4908 437.425 97.7958 438.951 99.0816 438.955C100.444 438.959 101.63 437.592 101.626 436.023C101.112 436.29 100.786 436.84 100.195 437.003C99.0164 437.328 97.934 437.247 97.0205 436.325Z" fill="#070909"/>
<path d="M101.768 434.668C100.905 435.307 100.08 435.853 99.0202 435.834C97.9839 435.814 97.2162 435.164 96.2989 434.532C96.3987 435.129 96.4678 435.555 96.5369 435.985C96.7748 435.992 96.8785 436.182 97.0205 436.326C97.9301 437.248 99.0164 437.329 100.195 437.004C100.786 436.841 101.112 436.295 101.626 436.023C101.488 435.578 101.953 435.179 101.768 434.668Z" fill="#FDFCFB"/>
<path d="M95.9842 418.007C95.8498 417.996 95.7148 418.014 95.5874 418.058C95.46 418.102 95.3431 418.173 95.2437 418.265C95.1444 418.357 95.0648 418.468 95.01 418.592C94.9551 418.717 94.9261 418.851 94.9248 418.987C94.9363 419.777 95.3893 420.122 95.9919 420.114C96.2619 420.112 96.5201 420.002 96.7111 419.809C96.902 419.617 97.0103 419.356 97.0128 419.084C97.0243 418.479 96.7019 417.991 95.9842 418.007Z" fill="#FEA777"/>
<path d="M88.9142 433.517C88.9496 433.195 88.8617 432.872 88.6686 432.614C88.3156 432.14 88.0011 431.637 87.7282 431.111C86.0931 427.865 85.8398 424.503 87.0642 421.071C87.8244 418.973 89.1335 417.121 90.8525 415.714C91.4935 415.171 92.4492 414.939 92.7678 414.032C92.7842 413.988 92.7983 413.943 92.81 413.897C92.5222 413.707 92.2842 413.478 91.8697 413.734C89.458 415.183 87.5511 417.351 86.4117 419.94C85.479 422.035 85.2794 424.212 85.3869 426.451C85.5208 428.922 86.3858 431.296 87.8702 433.265C88.1351 433.629 88.4652 433.858 88.9142 433.529L88.9142 433.517Z" fill="#FDFEFE"/>
<path d="M94.7292 413.196C94.7369 413.192 94.7446 413.184 94.7522 413.181C94.7446 412.549 94.4106 412.061 93.8157 412.204C93.2246 412.348 93.2361 412.94 93.4818 413.459L93.5163 413.541C93.5445 413.562 93.574 413.581 93.6046 413.599C94.1074 413.905 94.3799 413.417 94.7292 413.196L94.7292 413.196Z" fill="#FBFDFE"/>
<path d="M108.071 427.609C108.084 427.125 108.001 426.644 107.827 426.193C107.652 425.741 107.39 425.33 107.056 424.983C106.721 424.636 106.321 424.36 105.879 424.172C105.437 423.984 104.962 423.887 104.482 423.887C104.003 423.879 103.527 423.966 103.081 424.145C102.636 424.323 102.23 424.588 101.886 424.925C101.542 425.262 101.268 425.664 101.079 426.109C100.889 426.553 100.789 427.031 100.783 427.514C100.777 427.998 100.866 428.478 101.045 428.927C101.223 429.376 101.488 429.785 101.823 430.13C102.159 430.475 102.559 430.75 103 430.939C103.441 431.128 103.915 431.228 104.394 431.231C104.873 431.246 105.35 431.162 105.797 430.986C106.244 430.81 106.651 430.546 106.994 430.208C107.337 429.87 107.609 429.465 107.794 429.019C107.979 428.573 108.073 428.093 108.071 427.609V427.609ZM104.574 428.012C104.427 428.027 104.278 428.01 104.138 427.963C103.998 427.916 103.869 427.839 103.76 427.738C103.651 427.638 103.564 427.515 103.505 427.378C103.446 427.24 103.417 427.092 103.419 426.943C103.409 426.788 103.432 426.632 103.485 426.485C103.539 426.339 103.622 426.206 103.729 426.094C103.836 425.981 103.965 425.893 104.108 425.834C104.251 425.775 104.404 425.746 104.559 425.75C105.234 425.8 105.614 426.199 105.695 426.912C105.603 427.547 105.28 428.001 104.574 428.012Z" fill="#FEFEFE"/>
<path d="M93.6237 423.852C93.1419 423.853 92.6649 423.95 92.2203 424.138C91.7757 424.325 91.3722 424.599 91.033 424.945C90.6938 425.29 90.4256 425.7 90.2439 426.15C90.0621 426.601 89.9704 427.083 89.9739 427.569C89.9775 428.055 90.0762 428.536 90.2645 428.984C90.4528 429.432 90.7269 429.837 91.0711 430.178C91.4153 430.518 91.8227 430.786 92.27 430.967C92.7173 431.148 93.1956 431.238 93.6775 431.232C94.1613 431.234 94.6407 431.139 95.088 430.953C95.5353 430.767 95.9415 430.493 96.2832 430.147C96.6248 429.801 96.895 429.391 97.0782 428.939C97.2614 428.487 97.3539 428.003 97.3504 427.514C97.3468 427.026 97.2473 426.544 97.0575 426.094C96.8678 425.645 96.5916 425.238 96.2449 424.898C95.8983 424.557 95.4881 424.289 95.0382 424.11C94.5882 423.93 94.1075 423.843 93.6237 423.852V423.852ZM93.6276 428.013C93.48 428.026 93.3312 428.008 93.191 427.96C93.0508 427.911 92.9223 427.834 92.8139 427.732C92.7056 427.63 92.6198 427.506 92.5622 427.368C92.5047 427.23 92.4766 427.081 92.4799 426.932C92.4718 426.776 92.496 426.62 92.551 426.474C92.606 426.329 92.6906 426.196 92.7994 426.085C92.9082 425.974 93.0387 425.887 93.1827 425.83C93.3266 425.773 93.4808 425.748 93.6352 425.754C93.9365 425.758 94.2239 425.883 94.4341 426.101C94.6442 426.319 94.76 426.612 94.756 426.916C94.6716 427.571 94.3184 428.005 93.6276 428.013Z" fill="#FEFEFE"/>
<path d="M104.559 425.75C104.404 425.746 104.25 425.774 104.107 425.833C103.964 425.891 103.835 425.98 103.727 426.092C103.62 426.205 103.537 426.338 103.484 426.485C103.431 426.631 103.409 426.788 103.419 426.943C103.417 427.093 103.446 427.241 103.504 427.378C103.563 427.515 103.65 427.638 103.759 427.739C103.868 427.84 103.997 427.917 104.137 427.964C104.278 428.011 104.427 428.028 104.574 428.012C105.276 428.001 105.603 427.548 105.695 426.912C105.614 426.2 105.234 425.801 104.559 425.75Z" fill="#090B0B"/>
<path d="M93.6352 425.754C93.4808 425.748 93.3266 425.774 93.1827 425.831C93.0387 425.888 92.9082 425.974 92.7994 426.085C92.6906 426.196 92.606 426.329 92.551 426.475C92.496 426.62 92.4718 426.776 92.4799 426.932C92.4766 427.082 92.5047 427.23 92.5623 427.368C92.6198 427.506 92.7056 427.63 92.8139 427.732C92.9223 427.834 93.0508 427.912 93.191 427.96C93.3312 428.008 93.48 428.026 93.6276 428.013C94.3184 428.005 94.6716 427.571 94.756 426.917C94.6908 426.2 94.2993 425.809 93.6352 425.754Z" fill="#090C0C"/>
</g>
<g filter="url(#filter5_d_4_133)">
<rect x="59" y="479" width="80" height="80" rx="20" fill="white" shape-rendering="crispEdges"/>
<rect x="59.625" y="479.625" width="78.75" height="78.75" rx="19.375" stroke="#E3E3E3" stroke-width="1.25" shape-rendering="crispEdges"/>
<path d="M92.335 500.155H104.171L91.884 536.561C91.7577 536.935 91.5173 537.26 91.1966 537.491C90.8759 537.721 90.491 537.845 90.0962 537.845H80.8845C80.5854 537.845 80.2905 537.774 80.0243 537.637C79.7582 537.501 79.5283 537.303 79.3538 537.06C79.1793 536.817 79.0652 536.536 79.0209 536.24C78.9766 535.944 79.0033 535.642 79.099 535.358L90.5467 501.439C90.6729 501.065 90.9133 500.739 91.2342 500.509C91.555 500.279 91.94 500.155 92.335 500.155Z" fill="url(#paint0_linear_4_133)"/>
<path d="M109.535 524.573H90.7653C90.5908 524.573 90.4203 524.625 90.276 524.724C90.1317 524.822 90.0203 524.961 89.9562 525.123C89.8922 525.286 89.8786 525.463 89.9171 525.634C89.9556 525.804 90.0444 525.958 90.1721 526.077L102.233 537.335C102.584 537.662 103.047 537.844 103.527 537.844H114.155L109.535 524.573Z" fill="#0078D4"/>
<path d="M92.3353 500.155C91.936 500.153 91.5467 500.279 91.2242 500.515C90.9018 500.75 90.663 501.083 90.5429 501.464L79.1134 535.327C79.0113 535.612 78.9793 535.916 79.02 536.216C79.0607 536.515 79.1729 536.801 79.3471 537.048C79.5214 537.295 79.7526 537.496 80.0211 537.635C80.2897 537.773 80.5876 537.845 80.8899 537.845H90.3392C90.6912 537.782 91.0201 537.626 91.2925 537.395C91.5648 537.163 91.7708 536.863 91.8894 536.526L94.1686 529.809L102.31 537.403C102.651 537.685 103.079 537.841 103.522 537.845H114.111L109.467 524.573L95.9288 524.577L104.214 500.155H92.3353Z" fill="url(#paint1_linear_4_133)"/>
<path d="M107.453 501.437C107.327 501.063 107.087 500.738 106.766 500.508C106.446 500.278 106.062 500.155 105.667 500.155H92.4759C92.8702 500.155 93.2546 500.279 93.5749 500.509C93.8953 500.739 94.1354 501.063 94.2615 501.437L105.71 535.358C105.805 535.641 105.832 535.943 105.788 536.239C105.744 536.535 105.63 536.816 105.455 537.059C105.281 537.302 105.051 537.5 104.784 537.637C104.518 537.774 104.223 537.845 103.924 537.845H117.116C117.415 537.845 117.71 537.774 117.976 537.637C118.242 537.5 118.472 537.302 118.647 537.059C118.821 536.816 118.935 536.535 118.979 536.239C119.024 535.943 118.997 535.641 118.901 535.358L107.453 501.437Z" fill="url(#paint2_linear_4_133)"/>
</g>
<rect x="498" y="275" width="10" height="27" rx="5" stroke="#E3E3E3" stroke-opacity="0.86" stroke-width="2"/>
<rect x="754" y="275" width="10" height="27" rx="5" stroke="#E3E3E3" stroke-opacity="0.86" stroke-width="2"/>
<rect x="509" y="282" width="244" height="13" fill="#DBDBDB" fill-opacity="0.5"/>
<rect x="509" y="282" width="244" height="13" fill="url(#paint3_linear_4_133)" fill-opacity="0.5"/>
<rect x="509" y="282" width="244" height="13" fill="black" fill-opacity="0.2"/>
<defs>
<filter id="filter0_d_4_133" x="54" y="39" width="90" height="90" filterUnits="userSpaceOnUse" color-interpolation-filters="sRGB">
<feFlood flood-opacity="0" result="BackgroundImageFix"/>
<feColorMatrix in="SourceAlpha" type="matrix" values="0 0 0 0 0 0 0 0 0 0 0 0 0 0 0 0 0 0 127 0" result="hardAlpha"/>
<feOffset dy="5"/>
<feGaussianBlur stdDeviation="2.5"/>
<feComposite in2="hardAlpha" operator="out"/>
<feColorMatrix type="matrix" values="0 0 0 0 0 0 0 0 0 0 0 0 0 0 0 0 0 0 0.05 0"/>
<feBlend mode="normal" in2="BackgroundImageFix" result="effect1_dropShadow_4_133"/>
<feBlend mode="normal" in="SourceGraphic" in2="effect1_dropShadow_4_133" result="shape"/>
</filter>
<filter id="filter1_d_4_133" x="54" y="127" width="90" height="90" filterUnits="userSpaceOnUse" color-interpolation-filters="sRGB">
<feFlood flood-opacity="0" result="BackgroundImageFix"/>
<feColorMatrix in="SourceAlpha" type="matrix" values="0 0 0 0 0 0 0 0 0 0 0 0 0 0 0 0 0 0 127 0" result="hardAlpha"/>
<feOffset dy="5"/>
<feGaussianBlur stdDeviation="2.5"/>
<feComposite in2="hardAlpha" operator="out"/>
<feColorMatrix type="matrix" values="0 0 0 0 0 0 0 0 0 0 0 0 0 0 0 0 0 0 0.05 0"/>
<feBlend mode="normal" in2="BackgroundImageFix" result="effect1_dropShadow_4_133"/>
<feBlend mode="normal" in="SourceGraphic" in2="effect1_dropShadow_4_133" result="shape"/>
</filter>
<filter id="filter2_d_4_133" x="54" y="215" width="90" height="90" filterUnits="userSpaceOnUse" color-interpolation-filters="sRGB">
<feFlood flood-opacity="0" result="BackgroundImageFix"/>
<feColorMatrix in="SourceAlpha" type="matrix" values="0 0 0 0 0 0 0 0 0 0 0 0 0 0 0 0 0 0 127 0" result="hardAlpha"/>
<feOffset dy="5"/>
<feGaussianBlur stdDeviation="2.5"/>
<feComposite in2="hardAlpha" operator="out"/>
<feColorMatrix type="matrix" values="0 0 0 0 0 0 0 0 0 0 0 0 0 0 0 0 0 0 0.05 0"/>
<feBlend mode="normal" in2="BackgroundImageFix" result="effect1_dropShadow_4_133"/>
<feBlend mode="normal" in="SourceGraphic" in2="effect1_dropShadow_4_133" result="shape"/>
</filter>
<filter id="filter3_d_4_133" x="54" y="303" width="90" height="90" filterUnits="userSpaceOnUse" color-interpolation-filters="sRGB">
<feFlood flood-opacity="0" result="BackgroundImageFix"/>
<feColorMatrix in="SourceAlpha" type="matrix" values="0 0 0 0 0 0 0 0 0 0 0 0 0 0 0 0 0 0 127 0" result="hardAlpha"/>
<feOffset dy="5"/>
<feGaussianBlur stdDeviation="2.5"/>
<feComposite in2="hardAlpha" operator="out"/>
<feColorMatrix type="matrix" values="0 0 0 0 0 0 0 0 0 0 0 0 0 0 0 0 0 0 0.05 0"/>
<feBlend mode="normal" in2="BackgroundImageFix" result="effect1_dropShadow_4_133"/>
<feBlend mode="normal" in="SourceGraphic" in2="effect1_dropShadow_4_133" result="shape"/>
</filter>
<filter id="filter4_d_4_133" x="54" y="391" width="90" height="90" filterUnits="userSpaceOnUse" color-interpolation-filters="sRGB">
<feFlood flood-opacity="0" result="BackgroundImageFix"/>
<feColorMatrix in="SourceAlpha" type="matrix" values="0 0 0 0 0 0 0 0 0 0 0 0 0 0 0 0 0 0 127 0" result="hardAlpha"/>
<feOffset dy="5"/>
<feGaussianBlur stdDeviation="2.5"/>
<feComposite in2="hardAlpha" operator="out"/>
<feColorMatrix type="matrix" values="0 0 0 0 0 0 0 0 0 0 0 0 0 0 0 0 0 0 0.05 0"/>
<feBlend mode="normal" in2="BackgroundImageFix" result="effect1_dropShadow_4_133"/>
<feBlend mode="normal" in="SourceGraphic" in2="effect1_dropShadow_4_133" result="shape"/>
</filter>
<filter id="filter5_d_4_133" x="54" y="479" width="90" height="90" filterUnits="userSpaceOnUse" color-interpolation-filters="sRGB">
<feFlood flood-opacity="0" result="BackgroundImageFix"/>
<feColorMatrix in="SourceAlpha" type="matrix" values="0 0 0 0 0 0 0 0 0 0 0 0 0 0 0 0 0 0 127 0" result="hardAlpha"/>
<feOffset dy="5"/>
<feGaussianBlur stdDeviation="2.5"/>
<feComposite in2="hardAlpha" operator="out"/>
<feColorMatrix type="matrix" values="0 0 0 0 0 0 0 0 0 0 0 0 0 0 0 0 0 0 0.05 0"/>
<feBlend mode="normal" in2="BackgroundImageFix" result="effect1_dropShadow_4_133"/>
<feBlend mode="normal" in="SourceGraphic" in2="effect1_dropShadow_4_133" result="shape"/>
</filter>
<linearGradient id="paint0_linear_4_133" x1="96.6489" y1="502.948" x2="84.3566" y2="539.263" gradientUnits="userSpaceOnUse">
<stop stop-color="#114A8B"/>
<stop offset="1" stop-color="#0669BC"/>
</linearGradient>
<linearGradient id="paint1_linear_4_133" x1="100.489" y1="519.871" x2="97.6457" y2="520.833" gradientUnits="userSpaceOnUse">
<stop stop-opacity="0.3"/>
<stop offset="0.071" stop-opacity="0.2"/>
<stop offset="0.321" stop-opacity="0.1"/>
<stop offset="0.623" stop-opacity="0.05"/>
<stop offset="1" stop-opacity="0"/>
</linearGradient>
<linearGradient id="paint2_linear_4_133" x1="98.925" y1="501.889" x2="112.418" y2="537.837" gradientUnits="userSpaceOnUse">
<stop stop-color="#3CCBF4"/>
<stop offset="1" stop-color="#2892DF"/>
</linearGradient>
<linearGradient id="paint3_linear_4_133" x1="509" y1="288.5" x2="753" y2="288.5" gradientUnits="userSpaceOnUse">
<stop stop-opacity="0"/>
<stop offset="0.75" stop-color="#707070" stop-opacity="0.44"/>
<stop offset="1" stop-color="white"/>
</linearGradient>
</defs>
</svg>
